<svg width="49" height="46" viewBox="0 0 49 46" fill="none" xmlns="http://www.w3.org/2000/svg">
<path fill-rule="evenodd" clip-rule="evenodd" d="M6.79258 0.138422C6.02987 0.330982 5.3658 0.697035 4.75852 1.2597C3.01569 2.87438 2.97719 5.5534 4.67367 7.15845L5.0668 7.53044L4.42648 7.81177C2.43619 8.68652 0.713475 10.5432 0.123244 12.4499C-0.270371 13.7213 0.451544 15.0131 1.75517 15.3701C2.03309 15.4463 3.77419 15.4675 8.12331 15.4478C13.7759 15.4222 14.1293 15.4111 14.4748 15.25C15.5766 14.7361 16.0938 13.5918 15.7403 12.4499C15.1477 10.5355 13.4284 8.68697 11.4193 7.80404L10.7928 7.52864L11.0995 7.24749C12.8793 5.61546 12.8795 2.91934 11.0998 1.248C9.96401 0.181323 8.30987 -0.24481 6.79258 0.138422ZM39.929 0.138422C39.1663 0.330982 38.5023 0.697035 37.895 1.2597C36.1522 2.87438 36.1137 5.5534 37.8101 7.15845L38.2033 7.53044L37.5629 7.81177C35.5727 8.68652 33.8499 10.5432 33.2597 12.4499C32.8661 13.7213 33.588 15.0131 34.8916 15.3701C35.1696 15.4463 36.9107 15.4675 41.2598 15.4478C46.9123 15.4222 47.2658 15.4111 47.6112 15.25C48.7131 14.7361 49.2302 13.5918 48.8768 12.4499C48.2841 10.5355 46.5649 8.68697 44.5558 7.80404L43.9293 7.52864L44.2359 7.24749C46.0158 5.61546 46.016 2.91934 44.2363 1.248C43.1005 0.181323 41.4463 -0.24481 39.929 0.138422ZM9.24956 1.73889C11.4399 2.78129 11.4433 5.70863 9.25541 6.73538C8.75223 6.97147 8.56107 7.01131 7.93177 7.01131C7.30361 7.01131 7.11092 6.97129 6.61225 6.73727C5.59938 6.26194 5.05751 5.49665 4.98387 4.43716C4.92497 3.59074 5.12762 3.02161 5.70109 2.42261C6.13598 1.96833 6.66473 1.65066 7.21349 1.51386C7.73362 1.38417 8.73719 1.49516 9.24956 1.73889ZM42.386 1.73889C44.5764 2.78129 44.5797 5.70863 42.3919 6.73538C41.8887 6.97147 41.6975 7.01131 41.0682 7.01131C40.4401 7.01131 40.2474 6.97129 39.7487 6.73727C38.7358 6.26194 38.194 5.49665 38.1203 4.43716C38.0614 3.59074 38.2641 3.02161 38.8376 2.42261C39.2724 1.96833 39.8012 1.65066 40.35 1.51386C40.8701 1.38417 41.8737 1.49516 42.386 1.73889ZM26.6774 3.52617C26.4441 3.69255 26.3102 4.09809 26.4083 4.34066C26.4545 4.4547 27.0425 4.97077 27.715 5.48738L28.9376 6.42671L24.1091 6.47168C21.4534 6.49641 19.2039 6.55172 19.1102 6.59471C18.7046 6.78062 18.6283 7.40894 18.9745 7.71428C19.1941 7.9081 19.2186 7.90918 24.1126 7.93238L29.03 7.95568L27.7644 8.93188C26.2433 10.1051 26.1199 10.3159 26.6379 10.8562C26.8508 11.0784 27.2132 11.1138 27.5237 10.943C28.0857 10.6339 31.8613 7.61211 31.9091 7.43322C31.9388 7.32187 31.9374 7.13831 31.9059 7.02525C31.871 6.89997 30.9875 6.15527 29.6416 5.11674C27.819 3.71054 27.3822 3.41374 27.1347 3.41374C26.9699 3.41374 26.7642 3.46438 26.6774 3.52617ZM9.50039 8.67609C11.6583 9.20394 13.3089 10.5484 14.1106 12.4309C14.4159 13.1481 14.3828 13.5575 13.9967 13.8428C13.7524 14.0233 13.644 14.0266 7.93177 14.0266C2.21956 14.0266 2.11115 14.0233 1.86684 13.8428C1.48069 13.5575 1.44765 13.1481 1.75296 12.4309C2.54709 10.5661 4.18706 9.22031 6.32359 8.68023C7.01276 8.50601 8.79561 8.50377 9.50039 8.67609ZM42.6369 8.67609C44.7947 9.20394 46.4453 10.5484 47.247 12.4309C47.5523 13.1481 47.5193 13.5575 47.1332 13.8428C46.8889 14.0233 46.7804 14.0266 41.0682 14.0266C35.356 14.0266 35.2476 14.0233 35.0033 13.8428C34.6172 13.5575 34.5841 13.1481 34.8894 12.4309C35.6836 10.5661 37.3235 9.22031 39.4601 8.68023C40.1492 8.50601 41.9321 8.50377 42.6369 8.67609ZM22.7308 13.5094C22.514 13.6867 22.4587 13.8579 22.284 14.8911L22.0847 16.0703L21.5671 16.2717C21.2824 16.3825 20.9962 16.4527 20.9312 16.4276C20.8661 16.4025 20.385 16.0948 19.862 15.7439C18.5417 14.8578 18.5917 14.8499 17.196 16.164C15.7979 17.4804 15.8056 17.4372 16.7527 18.6652C17.1269 19.1505 17.4546 19.5998 17.4807 19.6638C17.5069 19.7278 17.4317 19.9988 17.3137 20.2662L17.0992 20.7522L15.8435 20.9394C14.1106 21.1977 14.1568 21.1407 14.1568 23.0205C14.1568 24.9003 14.1106 24.8433 15.8435 25.1016L17.0992 25.2888L17.3137 25.7748C17.4317 26.0422 17.5069 26.3132 17.4807 26.3772C17.4546 26.4412 17.1269 26.8905 16.7527 27.3758C15.8031 28.607 15.7957 28.5654 17.199 29.8798C18.5966 31.189 18.5451 31.1809 19.862 30.2971C20.385 29.9462 20.8661 29.6385 20.9312 29.6134C20.9962 29.5883 21.2824 29.6585 21.5671 29.7693L22.0847 29.9707L22.284 31.1499C22.559 32.7774 22.4983 32.734 24.5 32.734C26.5017 32.734 26.441 32.7774 26.716 31.1499L26.9153 29.9707L27.4329 29.7693C27.7176 29.6585 28.0061 29.5879 28.0743 29.6124C28.1424 29.637 28.6209 29.9447 29.1377 30.2961C30.4453 31.1856 30.3992 31.1928 31.801 29.8798C33.2043 28.5654 33.1969 28.607 32.2473 27.3758C31.8731 26.8905 31.5454 26.4412 31.5193 26.3772C31.4931 26.3132 31.5678 26.0433 31.6852 25.7772L31.8986 25.2936L33.1554 25.1048C34.8892 24.8442 34.8432 24.9011 34.8432 23.0205C34.8432 21.1399 34.8892 21.1968 33.1554 20.9363L31.8986 20.7474L31.6852 20.2638C31.5678 19.9977 31.4931 19.7278 31.5193 19.6638C31.5454 19.5998 31.8731 19.1505 32.2473 18.6652C33.1944 17.4372 33.2021 17.4804 31.804 16.164C30.4043 14.8462 30.4487 14.8531 29.1377 15.7449C28.6209 16.0964 28.1424 16.404 28.0743 16.4286C28.0061 16.4531 27.7176 16.3825 27.4329 16.2717L26.9153 16.0703L26.716 14.8911C26.441 13.2636 26.5017 13.3071 24.5 13.3071C23.0592 13.3071 22.9652 13.3179 22.7308 13.5094ZM25.3131 15.7579C25.5351 17.1149 25.5909 17.2024 26.3893 17.4426C26.746 17.5499 27.218 17.7358 27.438 17.8557C27.6581 17.9757 27.9416 18.0738 28.0679 18.0738C28.2003 18.0738 28.7208 17.7904 29.2959 17.4051L30.2941 16.7364L30.7455 17.1511L31.1967 17.5658L30.7501 18.1571C30.5043 18.4823 30.1827 18.9062 30.0353 19.0992C29.7067 19.5293 29.6992 19.7752 29.9996 20.2614C30.1274 20.468 30.3253 20.9113 30.4396 21.2463C30.6953 21.996 30.7885 22.0484 32.2334 22.2569L33.3109 22.4123V23.0205V23.6287L32.2334 23.7841C30.8344 23.9859 30.673 24.0671 30.4868 24.6631C30.4059 24.9221 30.2109 25.3725 30.0535 25.6639C29.6994 26.3196 29.6969 26.4987 30.0353 26.9419C30.1827 27.1348 30.5043 27.5588 30.7501 27.8839L31.1967 28.4752L30.7455 28.8899L30.2941 29.3047L29.2959 28.6359C28.7208 28.2507 28.2003 27.9672 28.0679 27.9672C27.9416 27.9672 27.6581 28.0638 27.438 28.1819C27.218 28.2999 26.7462 28.4856 26.3895 28.5945C25.5916 28.8381 25.5349 28.9271 25.3131 30.2831L25.1476 31.2949H24.5H23.8524L23.6869 30.2831C23.472 28.9693 23.3855 28.8176 22.7509 28.6428C22.4751 28.5668 21.9955 28.3837 21.6852 28.2359C21.3749 28.0881 21.0269 27.9672 20.9117 27.9672C20.7966 27.9672 20.2532 28.2681 19.7041 28.6359L18.7059 29.3047L18.2545 28.8899L17.8033 28.4752L18.2499 27.8839C18.4957 27.5588 18.8173 27.1348 18.9647 26.9419C19.2933 26.5117 19.3008 26.2658 19.0004 25.7797C18.8726 25.573 18.6747 25.1298 18.5604 24.7947C18.3044 24.044 18.2048 23.9878 16.7625 23.7799L15.6891 23.6252V23.0205V22.4158L16.7625 22.2612C18.2048 22.0532 18.3044 21.997 18.5604 21.2463C18.6747 20.9113 18.8726 20.468 19.0004 20.2614C19.3008 19.7752 19.2933 19.5293 18.9647 19.0992C18.8173 18.9062 18.4957 18.4823 18.2499 18.1571L17.8033 17.5658L18.2545 17.1511L18.7059 16.7364L19.7041 17.4051C20.2792 17.7904 20.7997 18.0738 20.9321 18.0738C21.0584 18.0738 21.3419 17.9757 21.562 17.8557C21.782 17.7358 22.254 17.5499 22.6107 17.4426C23.4091 17.2024 23.4649 17.1149 23.6869 15.7579L23.8524 14.7461H24.5H25.1476L25.3131 15.7579ZM40.7985 16.9321C40.5922 17.1383 40.591 17.1612 40.5663 21.7573L40.5415 26.3753L39.502 25.1868C38.2527 23.7583 38.0283 23.6424 37.4529 24.1288C37.2164 24.3288 37.1786 24.6691 37.3605 24.9608C37.6789 25.4713 40.9059 29.0327 41.0913 29.0782C41.5543 29.1919 41.7504 29.0231 43.5635 26.9507C45.4346 24.8121 45.5403 24.6427 45.2841 24.1932C45.1572 23.9706 44.6612 23.8167 44.3866 23.9149C44.2666 23.9577 43.7188 24.5076 43.169 25.1369L42.1696 26.2811L42.1217 21.7502C42.0724 17.0871 42.0573 16.9143 41.6856 16.7803C41.3689 16.6661 41.0017 16.729 40.7985 16.9321ZM7.42725 16.967C7.33416 16.9897 6.43986 17.9434 5.44002 19.0863C3.56522 21.2291 3.45968 21.3982 3.71587 21.8478C3.84276 22.0704 4.33876 22.2243 4.61343 22.1262C4.73343 22.0833 5.28123 21.5335 5.83095 20.9041L6.83041 19.7599L6.87829 24.2908C6.90463 26.7828 6.96353 28.8935 7.00931 28.9815C7.20727 29.3625 7.87632 29.4341 8.20146 29.109C8.40784 28.9027 8.40899 28.8798 8.4337 24.2837L8.4585 19.6657L9.49799 20.8542C10.5188 22.0215 10.8273 22.2615 11.1631 22.1502C11.474 22.0471 11.7626 21.7321 11.7626 21.4959C11.7626 21.193 11.7344 21.1563 9.77869 18.9158C8.32778 17.2533 7.9129 16.8647 7.64446 16.9163C7.61812 16.9214 7.52034 16.9441 7.42725 16.967ZM23.4248 18.8433C22.5878 19.0338 21.9324 19.3892 21.2688 20.0124C19.4642 21.7071 19.4703 24.3396 21.2828 26.0418C23.1021 27.7503 25.8979 27.7503 27.7172 26.0418C29.5365 24.3333 29.5365 21.7078 27.7172 19.9992C26.5426 18.8962 25.0079 18.4829 23.4248 18.8433ZM25.7667 20.4344C26.431 20.72 26.9475 21.2057 27.2653 21.8436C27.782 22.881 27.5249 24.2211 26.6517 25.0412C25.4872 26.1347 23.5128 26.1347 22.3483 25.0412C21.6018 24.3401 21.2793 23.2106 21.5636 22.2924C22.1035 20.5482 24.0401 19.692 25.7667 20.4344ZM6.7741 30.7054C5.5085 31.0332 4.42782 31.8985 3.84535 33.0505C3.55488 33.6247 3.49445 33.8532 3.45327 34.53C3.37723 35.7832 3.72631 36.7416 4.57751 37.6161L5.04027 38.0917L4.16359 38.5148C2.2888 39.4195 0.774864 41.0926 0.125638 42.9769C-0.260507 44.0979 0.263739 45.2552 1.4194 45.8325C1.7363 45.9909 2.09113 46 7.93177 46C13.7724 46 14.1272 45.9909 14.4441 45.8325C15.5998 45.2552 16.124 44.0979 15.7379 42.9769C15.0887 41.0926 13.5747 39.4195 11.6999 38.5148L10.8233 38.0917L11.286 37.6161C12.8626 35.9962 12.8146 33.5032 11.1757 31.8758C10.103 30.8106 8.25968 30.3204 6.7741 30.7054ZM39.9106 30.7054C38.645 31.0332 37.5643 31.8985 36.9818 33.0505C36.6913 33.6247 36.6309 33.8532 36.5897 34.53C36.5137 35.7832 36.8628 36.7416 37.714 37.6161L38.1767 38.0917L37.3001 38.5148C35.4253 39.4195 33.9113 41.0926 33.2621 42.9769C32.876 44.0979 33.4002 45.2552 34.5559 45.8325C34.8728 45.9909 35.2276 46 41.0682 46C46.9089 46 47.2637 45.9909 47.5806 45.8325C48.7363 45.2552 49.2605 44.0979 48.8744 42.9769C48.2251 41.0926 46.7112 39.4195 44.8364 38.5148L43.9597 38.0917L44.4225 37.6161C45.9991 35.9962 45.9511 33.5032 44.3122 31.8758C43.2394 30.8106 41.3961 30.3204 39.9106 30.7054ZM9.20551 32.2755C10.5946 32.9071 11.2532 34.4585 10.7093 35.8179C10.2868 36.8738 9.16366 37.5907 7.93177 37.5907C5.50428 37.5907 4.0956 34.9967 5.52899 33.1662C5.88066 32.7171 6.47951 32.2997 7.00213 32.1394C7.58364 31.9609 8.65972 32.0274 9.20551 32.2755ZM42.342 32.2755C43.731 32.9071 44.3896 34.4585 43.8458 35.8179C43.4233 36.8738 42.3001 37.5907 41.0682 37.5907C38.6407 37.5907 37.2321 34.9967 38.6655 33.1662C39.0171 32.7171 39.616 32.2997 40.1386 32.1394C40.7201 31.9609 41.7962 32.0274 42.342 32.2755ZM21.4762 35.098C20.9143 35.4071 17.1387 38.4289 17.0909 38.6078C17.0611 38.7191 17.0626 38.9027 17.0941 39.0158C17.129 39.1411 18.0125 39.8857 19.3584 40.9243C21.6346 42.6805 21.815 42.7797 22.2936 42.5392C22.5346 42.4181 22.6945 41.9545 22.587 41.6889C22.5398 41.5721 21.9532 41.0576 21.2836 40.5455L20.0661 39.6143L24.8928 39.5693C29.8604 39.523 30.0444 39.5088 30.187 39.1598C30.3086 38.8623 30.2417 38.5175 30.0255 38.3267C29.8059 38.1329 29.7814 38.1318 24.8874 38.1086L19.97 38.0853L21.2356 37.1091C22.7567 35.9359 22.88 35.7252 22.3621 35.1848C22.1492 34.9627 21.7868 34.9272 21.4762 35.098ZM9.60774 39.2678C11.4227 39.6935 13.0938 40.9803 13.923 42.5905C14.3322 43.3853 14.406 43.7184 14.251 44.07C14.0096 44.6171 14.1411 44.6059 7.94106 44.6059C3.76395 44.6059 2.22482 44.5779 2.03922 44.4985C1.75708 44.3778 1.51383 43.9999 1.51775 43.6886C1.52197 43.3524 2.0374 42.3144 2.50687 41.6965C4.10652 39.5913 6.90559 38.6339 9.60774 39.2678ZM42.7442 39.2678C44.5592 39.6935 46.2302 40.9803 47.0594 42.5905C47.4686 43.3853 47.5425 43.7184 47.3874 44.07C47.1461 44.6171 47.2776 44.6059 41.0775 44.6059C36.9004 44.6059 35.3613 44.5779 35.1757 44.4985C34.8935 44.3778 34.6503 43.9999 34.6542 43.6886C34.6584 43.3524 35.1739 42.3144 35.6433 41.6965C37.243 39.5913 40.0421 38.6339 42.7442 39.2678Z" fill="#16245A"/>
</svg>
