<svg width="46" height="45" viewBox="0 0 46 45" fill="none" xmlns="http://www.w3.org/2000/svg">
<path fill-rule="evenodd" clip-rule="evenodd" d="M15.6919 0.0912475C12.533 0.440614 9.21286 1.8112 6.6734 3.81445C5.80187 4.50207 4.18488 6.14056 3.52713 7.00268C-0.391507 12.1392 -1.10335 19 1.6849 24.7573C2.59051 26.6273 3.53216 27.9504 5.02317 29.448C6.60217 31.034 7.90528 31.986 9.76594 32.9131C12.202 34.1268 14.4177 34.6805 17.1887 34.7679C20.2015 34.8631 22.7148 34.36 25.3566 33.1328L26.3618 32.6658L32.2469 38.4122C37.9437 43.9749 38.1543 44.169 38.8303 44.4794C39.6429 44.8526 40.2849 45 41.0966 45C43.7117 45 46 42.7606 46 40.2014C46 39.4069 45.8493 38.7787 45.468 37.9835C45.1508 37.322 44.9525 37.1158 39.2691 31.5414L33.3979 25.7826L33.8895 24.7571C34.9544 22.5351 35.4602 20.4764 35.5428 18.0275C35.6457 14.9786 35.1492 12.6048 33.8565 9.96309C32.9045 8.01779 31.9903 6.74817 30.4231 5.19488C28.8581 3.6436 27.5097 2.69045 25.5618 1.75871C23.6125 0.826157 21.7818 0.300284 19.7226 0.0812239C18.6671 -0.03104 16.755 -0.0262105 15.6919 0.0912475ZM19.5585 2.268C23.4734 2.74403 26.6822 4.39254 29.4359 7.34248C31.2325 9.26682 32.6029 12.007 33.1165 14.7015C33.3806 16.0869 33.3569 18.9993 33.0711 20.3056C32.7559 21.7462 32.2771 23.0297 31.5024 24.5117C30.8988 25.6664 30.8129 25.8887 30.8689 26.152C30.9217 26.3994 32.0896 27.5909 37.1074 32.5161C41.457 36.7855 43.3425 38.6962 43.489 38.9832C43.7785 39.5505 43.8334 40.3785 43.6225 41C43.5019 41.3551 43.3129 41.6301 42.9357 41.9988C42.1072 42.8088 41.1648 43.0129 40.0676 42.6201C39.5574 42.4374 39.202 42.1087 33.3833 36.4338C30.0033 33.1373 27.1463 30.3948 27.0345 30.3392C26.6255 30.1359 26.1684 30.2213 25.4272 30.6397C24.0263 31.4305 22.3327 32.0364 20.5103 32.3989C19.2357 32.6525 16.1204 32.6244 14.8073 32.3475C8.88426 31.0984 4.286 26.8868 2.75271 21.3066C0.891955 14.5347 4.12817 7.29682 10.5242 3.92553C13.1569 2.53782 16.5929 1.90743 19.5585 2.268ZM15.785 5.22969C9.65803 6.24289 5.21749 11.3525 5.21749 17.3896C5.21749 24.1792 10.8491 29.6906 17.7869 29.6906C24.0148 29.6906 29.2847 25.2498 30.2216 19.2121C31.2563 12.5453 26.5681 6.3126 19.6985 5.22222C18.6733 5.05947 16.7929 5.06303 15.785 5.22969ZM19.4783 7.40891C22.0586 7.84921 24.2737 9.11419 25.8127 11.0264C27.2666 12.8328 27.9839 14.6785 28.0936 16.8966C28.3549 22.173 24.5647 26.6487 19.1831 27.4188C18.0646 27.5789 16.3799 27.4827 15.2263 27.1931C13.2168 26.6884 11.0769 25.3576 9.82228 23.8321C8.31758 22.0027 7.59307 20.1622 7.48022 17.8827C7.22518 12.7327 10.8177 8.33772 16.0397 7.41137C16.9607 7.24798 18.5289 7.24689 19.4783 7.40891ZM17.0886 10.5921C16.6174 10.7956 16.4667 11.0383 16.4206 11.6673C16.3886 12.1043 16.4187 12.317 16.5473 12.5588C16.7701 12.9781 17.0556 13.1039 17.7869 13.1052C18.5429 13.1064 18.9287 12.9032 19.0926 12.4173C19.2417 11.9749 19.1544 11.1409 18.9333 10.8979C18.5599 10.4874 17.6717 10.3402 17.0886 10.5921ZM16.9862 14.2393C16.8273 14.3069 16.6702 14.4317 16.637 14.5166C16.5367 14.7723 16.5659 23.761 16.6676 23.947C16.9348 24.4354 18.6391 24.4354 18.9062 23.947C19.0294 23.7218 19.0294 14.7024 18.9062 14.4772C18.7144 14.1265 17.5808 13.986 16.9862 14.2393Z" fill="#16245A"/>
</svg>
