<svg width="46" height="45" viewBox="0 0 46 45" fill="none" xmlns="http://www.w3.org/2000/svg">
<path fill-rule="evenodd" clip-rule="evenodd" d="M10.8558 0.230218L10.6206 0.460343V3.65301V6.84559L7.33921 6.84765C4.34699 6.84953 4.02413 6.865 3.67462 7.02376C3.2 7.23926 2.73304 7.71142 2.50588 8.20533C2.34244 8.56055 2.332 9.34611 2.30795 23.0453L2.28246 37.5101H1.42701C0.662954 37.5101 0.543101 37.5341 0.305214 37.7344C0.0663687 37.9354 0.0353276 38.0302 0.00591508 38.6487C-0.0120965 39.0282 0.0124297 40.0139 0.0604287 40.8391C0.143014 42.2598 0.163995 42.3711 0.455438 42.9333C0.858686 43.7112 1.47328 44.2999 2.26618 44.6676L2.90817 44.9652L22.8813 44.9893C42.6704 45.0132 42.8597 45.0117 43.4317 44.8248C44.5377 44.4634 45.5123 43.4837 45.855 42.3888C45.989 41.9603 46.0131 41.5299 45.9944 39.9014L45.9718 37.9321L45.7276 37.7211C45.5111 37.534 45.3806 37.5101 44.5785 37.5101H43.6737V23.0188C43.6737 7.01917 43.719 8.17982 43.0701 7.51721C42.9015 7.34513 42.5911 7.11304 42.3803 7.00145C42.0112 6.80621 41.8713 6.79767 38.5818 6.76991C35.4649 6.74356 35.1628 6.72715 35.124 6.58189C35.0555 6.32579 30.3013 0.129035 30.1214 0.0614228C30.0314 0.0276638 25.7127 0 20.5244 0H11.0909L10.8558 0.230218ZM29.0154 4.27099V7.04167L29.2506 7.2718C29.4857 7.50202 29.486 7.50202 31.5499 7.50202H33.6141V18.3799V29.2579H22.8838H12.1535V15.3791V1.5004H20.5844H29.0154V4.27099ZM31.8631 4.7122L32.8527 6.00161H31.7005H30.5483V4.4803C30.5483 3.02087 30.5549 2.96845 30.711 3.19089C30.8003 3.31842 31.3188 4.00308 31.8631 4.7122ZM15.2193 6.18916C15.0121 6.39191 14.9669 6.84062 15.1246 7.12898C15.3087 7.46554 15.8104 7.50099 20.3928 7.50099C24.9752 7.50099 25.477 7.46554 25.661 7.12898C25.8187 6.84062 25.7735 6.39191 25.5664 6.18916C25.3796 6.0064 25.247 6.00161 20.3928 6.00161C15.5386 6.00161 15.406 6.0064 15.2193 6.18916ZM41.9577 8.52051C42.1362 8.73629 42.1408 9.10576 42.1408 23.126V37.5101H22.9796H3.81833V23.3171C3.81833 13.1965 3.8487 9.0389 3.9242 8.82687C3.98245 8.66333 4.10891 8.48825 4.20529 8.4378C4.30934 8.38332 5.64862 8.34599 7.50055 8.34599H10.6206V9.04931V9.75262H8.74852C7.09682 9.75262 6.8347 9.77363 6.52103 9.93108C6.10714 10.1388 5.82816 10.419 5.57801 10.8779C5.40651 11.1926 5.39799 11.6976 5.37126 23.1156C5.35593 29.6658 5.36867 35.1623 5.39961 35.3302C5.43056 35.498 5.54821 35.7195 5.66117 35.8225C5.86466 36.0081 6.01009 36.0097 23.0154 36.0097H40.1644L40.3862 35.8058L40.6079 35.6019V23.3768C40.6079 11.3969 40.6041 11.1445 40.4191 10.7895C40.1712 10.3138 39.6319 9.88785 39.1168 9.76087C38.8891 9.7048 37.9027 9.65885 36.9249 9.65885H35.147V8.95206V8.24519L38.4608 8.27219L41.7748 8.29911L41.9577 8.52051ZM15.4179 9.99972C15.149 10.3341 15.1635 10.7381 15.4545 11.0228L15.6896 11.253H22.8838H30.078L30.3131 11.0228C30.604 10.7381 30.6185 10.3341 30.3497 9.99972L30.1512 9.75262H22.8838H15.6164L15.4179 9.99972ZM38.8897 11.2563C39.0714 11.3515 39.075 11.5806 39.075 22.9313V34.5093H22.9796H6.88413V23.1217C6.88413 15.9496 6.91872 11.6451 6.97754 11.4936L7.07095 11.253H8.84577H10.6206V20.7754V30.2979L10.8558 30.5281L11.0909 30.7583H22.8838H34.6767L34.9118 30.5281L35.147 30.2979V20.7285V11.1593H36.9257C37.9686 11.1593 38.7811 11.1994 38.8897 11.2563ZM15.5675 13.698C15.2351 13.9539 15.213 14.5286 15.5248 14.8128C15.7319 15.0018 15.8208 15.004 22.9541 15.004H30.1738L30.4203 14.7628C30.6257 14.5616 30.6575 14.4639 30.6105 14.1767C30.4931 13.4587 31.002 13.5036 22.9819 13.5036C15.8814 13.5036 15.8178 13.5053 15.5675 13.698ZM15.5067 17.4422C15.2419 17.7014 15.2473 18.2909 15.5168 18.5295C15.7113 18.7019 15.9731 18.7082 22.9502 18.7082H30.182L30.3651 18.4868C30.6194 18.1795 30.6017 17.7116 30.3266 17.4585L30.1048 17.2546H22.9016C15.826 17.2546 15.695 17.2579 15.5067 17.4422ZM15.7429 21.0949C15.2547 21.2886 15.1276 21.9474 15.5067 22.3185C15.695 22.5028 15.826 22.5061 22.9726 22.5061H30.247L30.4455 22.259C30.7645 21.862 30.6454 21.3094 30.1979 21.1097C29.9191 20.9855 16.0547 20.9711 15.7429 21.0949ZM15.4545 24.9869C15.0891 25.3444 15.1976 25.9443 15.6654 26.153C15.8298 26.2262 17.9921 26.2571 22.9711 26.2571C29.9809 26.2571 30.0457 26.2554 30.2958 26.0627C30.6179 25.8147 30.6496 25.231 30.3567 24.9442C30.1684 24.7599 30.0373 24.7567 22.9274 24.7567H15.6896L15.4545 24.9869ZM18.1414 40.1617C18.6156 40.791 19.1488 41.4646 19.3261 41.6586L19.6487 42.0113H23.0287H26.4088L26.6821 41.7045C26.8325 41.5357 27.3638 40.8605 27.8628 40.2041L28.77 39.0105H36.6051H44.4402L44.4628 39.8779C44.4958 41.1411 44.4637 41.7045 44.3374 42.0788C44.1871 42.5249 43.6169 43.1271 43.1468 43.3367C42.7801 43.5003 41.9157 43.5076 23.0275 43.5076C4.00362 43.5076 3.2776 43.5013 2.90817 43.3335C2.44064 43.1212 1.95931 42.6397 1.77383 42.1988C1.62629 41.8481 1.45077 39.2882 1.56219 39.1118C1.60712 39.0406 3.9493 39.0115 9.4526 39.014L17.2791 39.0173L18.1414 40.1617ZM26.7448 39.1355C26.7026 39.2043 26.4551 39.5419 26.1946 39.8857L25.721 40.5109H23.0206H20.3202L19.7817 39.8106C19.4855 39.4254 19.2431 39.0878 19.2431 39.0604C19.2431 39.0329 20.9482 39.0105 23.0323 39.0105C26.1642 39.0105 26.8081 39.0322 26.7448 39.1355Z" fill="#16245A"/>
</svg>
