<svg width="45" height="46" viewBox="0 0 45 46" fill="none" xmlns="http://www.w3.org/2000/svg">
<path fill-rule="evenodd" clip-rule="evenodd" d="M5.359 5.68015L0 11.3604L0.00284586 28.4209C0.00506918 41.6834 0.0297925 45.5148 0.114012 45.6312C0.173597 45.7133 0.309753 45.83 0.416561 45.8904C0.562144 45.9725 4.49128 46 16.086 46H31.5612L31.8107 45.7725L32.0603 45.5451L32.0845 40.9416L32.1087 36.3381L38.5543 29.5026C44.1658 23.5517 45 22.6312 45 22.3898C45 22.1532 44.6592 21.7506 42.6677 19.6342C40.5051 17.3359 40.3129 17.1557 40.0244 17.1557C39.7331 17.1557 39.4713 17.4119 35.91 21.1829L32.1067 25.2102L32.0835 12.8326L32.0603 0.455004L31.8107 0.227455L31.5612 0H21.1396H10.7181L5.359 5.68015ZM30.6818 14.1153V26.7224L27.4247 30.1756C24.3767 33.4072 24.1606 33.6582 24.0577 34.088L23.9477 34.5471L19.303 34.5943L14.6581 34.6414L14.4881 34.8639C14.2515 35.1738 14.2715 35.5902 14.5365 35.871L14.7548 36.1025H19.2055C22.7068 36.1025 23.6561 36.1276 23.6559 36.2203C23.6559 36.3313 23.3479 38.1651 23.2523 38.624L23.2081 38.8361H18.9814H14.7548L14.5365 39.0675C14.1859 39.439 14.2533 39.9723 14.6803 40.2064C14.8912 40.3219 15.6455 40.3443 19.3432 40.3443H23.7546L26.4837 39.817C27.9848 39.5269 29.2734 39.2542 29.3471 39.211C29.4208 39.1679 29.7201 38.8749 30.0121 38.5602C30.3039 38.2453 30.5741 37.9877 30.6124 37.9877C30.6505 37.9877 30.6818 39.4511 30.6818 41.2398V44.4918H16.0524H1.42292V28.4201V12.3484L5.58053 12.3463C9.56766 12.3443 9.75459 12.3364 10.1383 12.1526C10.6253 11.9195 11.154 11.3947 11.4132 10.8873C11.6019 10.5178 11.6063 10.4198 11.6313 6.00922L11.6568 1.5082H21.1693H30.6818V14.1153ZM10.0934 10.2755C9.82076 10.8343 9.77763 10.8402 5.94107 10.8402H2.44645L6.31458 6.73928L10.1828 2.6385L10.2061 6.31765C10.226 9.4678 10.2098 10.037 10.0934 10.2755ZM14.8962 3.36545C14.3463 3.51023 14.1344 4.21447 14.524 4.60245L14.7299 4.80738H21.1785H27.6271L27.8205 4.58925C28.0871 4.28837 28.0719 3.86117 27.7844 3.5748L27.5549 3.34631L21.3145 3.33245C17.8823 3.32482 14.9941 3.33962 14.8962 3.36545ZM14.7019 7.63591C14.2807 7.81585 14.1915 8.45222 14.5365 8.81777L14.7548 9.04918H19.3761C21.9178 9.04918 24.0621 9.02279 24.1413 8.99064C24.3034 8.92466 24.5455 8.47833 24.5455 8.24541C24.5455 8.16104 24.4285 7.96809 24.2855 7.81651L24.0256 7.54098L19.4609 7.54692C16.9503 7.55022 14.8088 7.59028 14.7019 7.63591ZM4.4871 14.7478L4.26877 14.9791V18.4283V21.8774L4.4871 22.1087L4.70535 22.3402H7.98439H11.2634L11.4569 22.122C11.6482 21.9061 11.6502 21.8676 11.6502 18.4055V14.9071L11.4159 14.7118C11.1885 14.5222 11.0847 14.5164 7.94348 14.5164H4.70535L4.4871 14.7478ZM14.7184 15.6622C14.2644 15.9253 14.182 16.4543 14.5365 16.8301L14.7548 17.0615H21.166H27.5773L27.7955 16.8301C28.1461 16.4586 28.0788 15.9252 27.6517 15.6912C27.4377 15.5739 26.4651 15.5538 21.1482 15.5561C16.7949 15.5582 14.8423 15.5903 14.7184 15.6622ZM10.2273 18.4283V20.832H7.95949H5.6917V18.4283V16.0246H7.95949H10.2273V18.4283ZM43.2213 22.3908C43.2213 22.4455 43.0604 22.657 42.8637 22.8607L42.506 23.2308L40.8869 21.5148L39.2679 19.7988L39.6638 19.3712L40.0596 18.9437L41.6405 20.6174C42.51 21.5379 43.2213 22.3359 43.2213 22.3908ZM14.5365 20.0265C14.3988 20.1723 14.3182 20.3656 14.3182 20.5492C14.3182 20.7328 14.3988 20.926 14.5365 21.0719L14.7548 21.3033H19.3901H24.0256L24.2855 21.0278C24.4285 20.8762 24.5455 20.6832 24.5455 20.5989C24.5455 20.3659 24.3034 19.9196 24.1413 19.8536C24.0621 19.8215 21.9178 19.7951 19.3761 19.7951H14.7548L14.5365 20.0265ZM39.8861 22.6227L41.4848 24.3191L41.1519 24.6719L40.819 25.0248L39.1991 23.3079L37.5793 21.5909L37.8832 21.2586C38.0503 21.0758 38.2096 20.9262 38.2373 20.9262C38.2649 20.9262 39.0068 21.6897 39.8861 22.6227ZM37.1307 23.2841L37.6599 23.851L32.2824 29.5514L26.9048 35.2518L26.3465 34.6653L25.7882 34.0788L31.1473 28.398C34.0948 25.2736 36.5277 22.7172 36.5539 22.7172C36.58 22.7172 36.8396 22.9723 37.1307 23.2841ZM4.61775 24.2802L4.40217 24.5234V27.9488V31.3742L4.61775 31.6174L4.83341 31.8607H8.05669C9.82948 31.8607 11.3447 31.8343 11.4239 31.8021C11.7986 31.6497 11.8281 31.3693 11.8281 27.9488C11.8281 24.5283 11.7986 24.2478 11.4239 24.0954C11.3447 24.0633 9.82948 24.0369 8.05669 24.0369H4.83341L4.61775 24.2802ZM34.4612 31.7667C31.5269 34.8771 29.0847 37.4221 29.0341 37.4221C28.9835 37.4221 28.7039 37.1671 28.4128 36.8552L27.8835 36.2883L33.2618 30.5871L38.6402 24.8858L39.2183 25.4985L39.7964 26.1112L34.4612 31.7667ZM14.7019 25.1678C14.2805 25.3498 14.1916 25.9851 14.5365 26.3506L14.7548 26.582H21.166H27.5773L27.7955 26.3506C28.0605 26.0697 28.0805 25.6533 27.8439 25.3435L27.6738 25.1209L21.2851 25.1023C17.7087 25.092 14.8107 25.1207 14.7019 25.1678ZM10.4051 27.9488V30.3525H8.09289H5.78063V27.9488V25.5451H8.09289H10.4051V27.9488ZM14.5365 29.547C14.2715 29.8278 14.2515 30.2442 14.4881 30.5541L14.6581 30.7766L19.292 30.8027C22.4351 30.8203 23.9827 30.7965 24.1023 30.7287C24.5655 30.4659 24.6467 29.8942 24.2764 29.5017C24.106 29.3211 23.9621 29.3156 19.4278 29.3156H14.7548L14.5365 29.547ZM4.64541 33.7455C4.54055 33.849 4.43063 34.0717 4.40111 34.2404C4.37158 34.4091 4.35975 35.9825 4.37478 37.7368L4.40217 40.9263L4.65172 41.1538L4.90126 41.3811L8.1201 41.3781C10.5101 41.376 11.3753 41.3456 11.4801 41.2603C11.8104 40.9915 11.8281 40.7992 11.8281 37.4708C11.8281 34.0486 11.7987 33.7683 11.4239 33.6159C11.3447 33.5838 9.83001 33.5574 8.05793 33.5574C4.96094 33.5574 4.82852 33.5646 4.64541 33.7455ZM10.4051 37.4693V39.873H8.09289H5.78063V37.4693V35.0656H8.09289H10.4051V37.4693ZM26.413 36.9037C27.0229 37.5517 27.5026 38.084 27.4789 38.0865C27.4552 38.089 26.8355 38.2096 26.1018 38.3544C25.3681 38.4993 24.7554 38.6079 24.7403 38.5957C24.6921 38.557 25.1961 35.7254 25.2511 35.7254C25.2802 35.7254 25.8031 36.2556 26.413 36.9037Z" fill="#16245A"/>
</svg>
