<svg width="51" height="51" viewBox="0 0 51 51" fill="none" xmlns="http://www.w3.org/2000/svg">
<path fill-rule="evenodd" clip-rule="evenodd" d="M9.66623 0.164299C9.19356 0.420247 9.09487 0.75002 9.09056 2.08795L9.08659 3.33499H4.99734C0.561662 3.33499 0.42214 3.3524 0.147519 3.94155C-0.0491731 4.36322 -0.0491731 49.9714 0.147519 50.3931C0.447209 51.036 -0.699484 50.9996 19.2955 50.9996C39.2906 50.9996 38.1439 51.036 38.4436 50.3931C38.5407 50.1849 38.5791 48.9709 38.5791 46.1171V42.1318L40.0821 42.1279C41.0462 42.1254 41.6715 42.0757 41.826 41.9893C42.2518 41.7514 47.4741 36.443 48.0133 35.6998C49.6514 33.4424 49.9193 31.8419 49.9213 24.3019L49.9224 20.0509L49.5269 19.6643L49.1314 19.2779L48.2507 19.3706C47.7665 19.4217 46.5024 19.4577 45.4418 19.4508C43.7752 19.4401 43.3903 19.403 42.606 19.1779C41.8961 18.9743 41.3589 18.9094 40.1388 18.8799L38.5791 18.8421V11.5371C38.5791 6.10963 38.5443 4.15749 38.4436 3.94155C38.1689 3.3524 38.0294 3.33499 33.5937 3.33499H29.5045V2.11012C29.5045 0.756338 29.3805 0.363161 28.8838 0.142019C28.4277 -0.0611655 10.0429 -0.0397718 9.66623 0.164299ZM27.2358 4.44347V6.66043H19.2955H11.3552V4.44347V2.22652H19.2955H27.2358V4.44347ZM43.1541 3.53341C40.3084 4.52739 40.0595 8.32748 42.7555 9.62118C43.2869 9.87613 43.5493 9.93045 44.2508 9.93045C46.2214 9.93045 47.5924 8.58897 47.5924 6.66043C47.5924 5.71612 47.3568 5.08451 46.7549 4.41454C45.9416 3.50947 44.3429 3.11818 43.1541 3.53341ZM9.08659 6.76607C9.08659 8.11121 9.19685 8.48022 9.6702 8.71943C10.1373 8.95554 28.4538 8.95554 28.9209 8.71943C29.3942 8.48022 29.5045 8.11121 29.5045 6.76607V5.55195H32.9075H36.3105V12.3094V19.0669L35.8851 19.1777C34.8187 19.4556 33.695 19.5442 32.0567 19.4793C31.1209 19.4424 30.1142 19.3799 29.8195 19.3406C29.3128 19.2728 29.2614 19.2908 28.8713 19.672L28.4589 20.075L28.5157 25.367C28.5821 31.5413 28.6937 32.5389 29.5099 34.2497C30.0799 35.4445 30.7978 36.2976 33.6069 39.1184L36.3105 41.8334V45.308V48.7827H19.2955H2.28062V27.1673V5.55195H5.68361H9.08659V6.76607ZM44.8015 5.70991C45.3411 5.9826 45.5245 6.62962 45.2234 7.1986C44.833 7.93629 43.6685 7.93629 43.2781 7.1986C42.7456 6.19243 43.7718 5.18959 44.8015 5.70991ZM11.9791 12.3366C11.8543 12.4066 11.0498 12.9805 10.1911 13.612C9.33251 14.2437 8.55697 14.7878 8.4677 14.8212C8.35631 14.863 8.20011 14.6778 7.9686 14.2297C7.51657 13.3545 6.97402 13.1121 6.26722 13.4693C5.94019 13.6345 5.68361 14.0554 5.68361 14.4266C5.68361 14.5465 6.01052 15.2822 6.41014 16.0614C6.95076 17.1158 7.21336 17.5124 7.43637 17.6118C7.81274 17.7794 8.12525 17.7811 8.43809 17.6175C8.99584 17.3259 13.3513 14.0531 13.4781 13.8304C14.0022 12.9098 12.906 11.8174 11.9791 12.3366ZM15.3379 12.3576C14.5776 12.7693 14.6026 13.9417 15.3789 14.2873C15.8423 14.4936 21.7001 14.4714 22.1149 14.2618C22.8698 13.8803 22.8698 12.7423 22.1149 12.3608C21.6767 12.1393 15.7459 12.1365 15.3379 12.3576ZM15.3379 15.683C14.5776 16.0947 14.6026 17.2671 15.3789 17.6128C15.8039 17.802 27.3245 17.802 27.7495 17.6128C28.0746 17.468 28.3702 17.0032 28.3702 16.6368C28.3702 16.2703 28.0746 15.8055 27.7495 15.6607C27.2971 15.4593 15.7125 15.4801 15.3379 15.683ZM11.9791 21.2045C11.8543 21.2744 11.0498 21.8484 10.1911 22.4799C9.33251 23.1115 8.55697 23.6556 8.4677 23.689C8.35631 23.7308 8.20011 23.5457 7.9686 23.0975C7.51657 22.2224 6.97402 21.98 6.26722 22.3371C5.94019 22.5024 5.68361 22.9233 5.68361 23.2944C5.68361 23.4143 6.01052 24.15 6.41014 24.9293C6.95076 25.9837 7.21336 26.3803 7.43637 26.4796C7.81274 26.6472 8.12525 26.649 8.43809 26.4854C8.99584 26.1937 13.3513 22.9209 13.4781 22.6982C14.0022 21.7777 12.906 20.6853 11.9791 21.2045ZM15.3379 21.2254C14.5776 21.6371 14.6026 22.8095 15.3789 23.1552C15.8423 23.3615 21.7001 23.3393 22.1149 23.1297C22.8698 22.7481 22.8698 21.6102 22.1149 21.2286C21.6767 21.0072 15.7459 21.0044 15.3379 21.2254ZM42.1549 21.3635C43.1805 21.629 43.4925 21.6576 45.4833 21.6684L47.68 21.6803L47.6238 26.1143C47.5612 31.0422 47.4593 31.982 46.849 33.2624C46.3299 34.3514 45.783 34.9934 43.1886 37.5593L40.8068 39.9148H39.2014H37.596L35.1056 37.4485C30.8685 33.2523 30.8813 33.2856 30.787 26.1697L30.7274 21.6803L32.9235 21.6671C34.8897 21.6554 35.2262 21.6251 36.1403 21.3779C37.0274 21.1381 37.4144 21.0998 39.0922 21.0863C40.848 21.0721 41.1258 21.0973 42.1549 21.3635ZM15.3379 24.5509C14.5776 24.9625 14.6026 26.135 15.3789 26.4806C15.596 26.5773 17.1134 26.6131 20.997 26.6131C26.7112 26.6131 26.7756 26.6071 27.0742 26.0428C27.3779 25.4689 27.1673 24.7744 26.6151 24.5286C26.1638 24.3276 15.7119 24.3482 15.3379 24.5509ZM42.3791 24.6106C41.6914 24.7742 41.212 25.1259 39.7134 26.5663L38.1821 28.0382L37.7851 27.7066C36.8385 26.9158 35.5726 26.7103 34.5479 27.1809C33.5252 27.6507 32.7885 28.945 32.957 29.9755C33.1078 30.8962 33.407 31.2844 35.6108 33.4179L37.7735 35.5116L38.2525 35.4489C38.7018 35.3899 38.934 35.1883 42.0041 32.1912C44.2262 30.0218 45.3577 28.8362 45.5294 28.4975C45.8707 27.8239 45.8709 26.7428 45.5298 26.1067C45.1811 25.4564 44.4767 24.8807 43.7832 24.6794C43.1466 24.4948 42.9141 24.4833 42.3791 24.6106ZM43.3433 26.9456C43.4681 27.0675 43.5702 27.2522 43.5702 27.356C43.5702 27.4597 42.3589 28.732 40.8785 30.1834L38.1869 32.8221L36.737 31.4085C35.9395 30.6309 35.2593 29.9091 35.2254 29.8045C35.1234 29.4906 35.3772 29.1626 35.7222 29.1626C35.9548 29.1626 36.2187 29.3454 36.7675 29.8869C37.5072 30.6167 37.9342 30.8293 38.4657 30.7322C38.6403 30.7003 39.5389 29.9199 40.8034 28.7021C41.9331 27.6141 42.9158 26.7239 42.987 26.7239C43.0581 26.7239 43.2185 26.8237 43.3433 26.9456ZM11.9791 30.0723C11.8543 30.1422 11.0498 30.7162 10.1911 31.3477C9.33251 31.9793 8.55697 32.5235 8.4677 32.5569C8.35631 32.5986 8.20011 32.4135 7.9686 31.9654C7.51657 31.0902 6.97402 30.8478 6.26722 31.2049C5.94019 31.3702 5.68361 31.7911 5.68361 32.1622C5.68361 32.2822 6.01052 33.0179 6.41014 33.7971C6.95076 34.8515 7.21336 35.2481 7.43637 35.3474C7.81274 35.515 8.12525 35.5168 8.43809 35.3532C8.99584 35.0616 13.3513 31.7888 13.4781 31.5661C14.0022 30.6455 12.906 29.5531 11.9791 30.0723ZM15.3379 30.0933C14.5776 30.5049 14.6026 31.6774 15.3789 32.023C15.8423 32.2293 21.7001 32.2071 22.1149 31.9975C22.8698 31.616 22.8698 30.478 22.1149 30.0965C21.6767 29.875 15.7459 29.8722 15.3379 30.0933ZM15.3379 33.4187C14.5776 33.8304 14.6026 35.0028 15.3789 35.3484C15.5973 35.4458 17.2409 35.4809 21.5642 35.4809C25.8875 35.4809 27.5311 35.4458 27.7495 35.3484C28.0746 35.2037 28.3702 34.7389 28.3702 34.3724C28.3702 34.006 28.0746 33.5412 27.7495 33.3964C27.2971 33.195 15.7125 33.2157 15.3379 33.4187ZM11.9791 38.9401C11.8543 39.0101 11.0498 39.5841 10.1911 40.2156C9.33251 40.8472 8.55697 41.3913 8.4677 41.4247C8.35631 41.4665 8.20011 41.2814 7.9686 40.8332C7.51657 39.9581 6.97402 39.7156 6.26722 40.0728C5.94019 40.2381 5.68361 40.659 5.68361 41.0301C5.68361 41.15 6.01052 41.8857 6.41014 42.665C6.95076 43.7193 7.21336 44.116 7.43637 44.2153C7.81274 44.3829 8.12525 44.3847 8.43809 44.221C8.99584 43.9294 13.3513 40.6566 13.4781 40.4339C14.0022 39.5133 12.906 38.4209 11.9791 38.9401ZM15.3379 38.9611C14.5776 39.3728 14.6026 40.5452 15.3789 40.8908C15.8423 41.0971 21.7001 41.075 22.1149 40.8653C22.8698 40.4838 22.8698 39.3458 22.1149 38.9643C21.6767 38.7428 15.7459 38.7401 15.3379 38.9611ZM15.3379 42.2865C14.5776 42.6982 14.6026 43.8707 15.3789 44.2163C15.5973 44.3136 17.2409 44.3487 21.5642 44.3487C25.8875 44.3487 27.5311 44.3136 27.7495 44.2163C28.0746 44.0715 28.3702 43.6067 28.3702 43.2403C28.3702 42.8738 28.0746 42.409 27.7495 42.2643C27.2971 42.0628 15.7125 42.0836 15.3379 42.2865ZM45.9847 42.286C44.8124 42.6603 43.9887 43.37 43.4682 44.4545C43.2227 44.9659 43.1731 45.228 43.1731 46.0138C43.1731 46.856 43.2132 47.0378 43.5429 47.6923C43.9732 48.5466 44.5882 49.1327 45.4849 49.5436C46.017 49.7874 46.2819 49.8357 47.0866 49.8357C47.8913 49.8357 48.1561 49.7874 48.6882 49.5436C49.5849 49.1327 50.2 48.5466 50.6302 47.6923C50.96 47.0378 51 46.856 51 46.0138C51 45.2249 50.9508 44.9666 50.7011 44.4463C50.0425 43.0739 48.7904 42.2407 47.2817 42.1711C46.7881 42.1483 46.2728 42.194 45.9847 42.286ZM47.8835 44.5719C48.3869 44.8228 48.7881 45.4614 48.7881 46.0115C48.7881 46.8587 47.9495 47.6742 47.0782 47.6742C46.5506 47.6742 45.8498 47.2431 45.6003 46.765C45.1814 45.9626 45.4443 45.0865 46.2464 44.612C46.7895 44.2908 47.2947 44.2784 47.8835 44.5719Z" fill="#16245A"/>
</svg>
