<svg width="51" height="48" viewBox="0 0 51 48" fill="none" xmlns="http://www.w3.org/2000/svg">
<path fill-rule="evenodd" clip-rule="evenodd" d="M25.7988 1.40625L24.7995 2.8125H18.3763H11.9531V5.625V8.4375H10.459H8.96484V11.25V14.0625H7.4707H5.97656V15.9609L5.97646 17.8594L2.98828 22.0781L9.96094e-05 26.2969L0 37.1484V48H25.5H51V37.1484L50.9999 26.2969L48.0117 22.0781L45.0235 17.8594L45.0234 14.5547V11.25H43.5293H42.0352V8.4375V5.625H40.541H39.0469V2.8125V0H32.9225H26.7981L25.7988 1.40625ZM36.0586 4.21875V5.625H32.9225H29.7864L28.7871 7.03125L27.7878 8.4375H21.3646H14.9414V7.03125V5.625H20.6673H26.3933L27.3926 4.21875L28.3919 2.8125H32.2252H36.0586V4.21875ZM39.0469 9.84375V11.25H35.9108H32.7747L31.7754 12.6562L30.7761 14.0625H21.3646H11.9531V12.6562V11.25H20.6673H29.3816L30.3809 9.84375L31.3801 8.4375H35.2135H39.0469V9.84375ZM42.0352 19.6875V25.3125H36.7641H31.4932L31.0034 26.6953L30.5136 28.0781H25.5H20.4864L19.9966 26.6953L19.5068 25.3125H14.2359H8.96484V21.0938V16.875H20.6673H32.3699L33.3691 15.4688L34.3684 14.0625H38.2018H42.0352V19.6875ZM5.97656 24.1406V25.3125H5.12948H4.28241L5.10458 24.143C5.55681 23.4997 5.93791 22.9724 5.95166 22.9711C5.96541 22.9698 5.97656 23.4961 5.97656 24.1406ZM45.9076 24.1641L46.7207 25.3125H45.8721H45.0234V24.125C45.0234 23.4719 45.0394 22.9551 45.0589 22.9765C45.0784 22.9981 45.4603 23.5324 45.9076 24.1641ZM17.855 29.5547L18.3448 30.9375H25.5H32.6552L33.145 29.5547L33.6348 28.1719L40.8232 28.1478L48.0117 28.1238V36.6556V45.1875H25.5H2.98828V36.6556V28.1238L10.1768 28.1478L17.3652 28.1719L17.855 29.5547ZM17.9297 35.1562V36.5625H25.5H33.0703V35.1562V33.75H25.5H17.9297V35.1562Z" fill="#16245A"/>
</svg>
