<svg width="51" height="48" viewBox="0 0 51 48" fill="none" xmlns="http://www.w3.org/2000/svg">
<path fill-rule="evenodd" clip-rule="evenodd" d="M8.15479 0.162334C6.31523 0.647967 4.7671 2.16108 4.22261 4.00548C3.80255 5.42827 4.15291 7.40991 5.02883 8.56613C5.15784 8.73638 5.26333 8.90452 5.26333 8.93983C5.26333 8.97514 4.98296 9.14579 4.64017 9.31914C2.67747 10.312 1.23134 11.7807 0.54706 13.4764C-0.136821 15.1708 -0.185876 17.486 0.435788 18.7233C0.755345 19.3592 1.35697 19.8504 2.0582 20.0478C2.71386 20.2323 3.97474 20.2561 5.01407 20.1035C7.25216 19.7748 8.05898 19.7018 9.45097 19.7018C10.3143 19.7018 11.5024 19.7718 12.143 19.8605C15.4792 20.3224 15.526 20.3264 16.2639 20.2116C17.3516 20.0423 18.2044 19.4314 18.5664 18.5623C19.0779 17.3342 18.974 15.0271 18.3353 13.4265C17.6848 11.7963 15.8183 9.95591 14.0941 9.24452C13.844 9.14129 13.6392 9.01995 13.639 8.97484C13.6388 8.92973 13.7814 8.68466 13.956 8.43009C14.4967 7.64168 14.8322 6.50227 14.8338 5.44908C14.836 3.89785 14.3526 2.74194 13.2311 1.61683C11.8719 0.253259 9.92427 -0.304794 8.15479 0.162334ZM40.1104 0.291169C38.3331 0.803509 36.8458 2.31492 36.3196 4.14352C36.1923 4.58614 36.1614 4.98195 36.195 5.74396C36.2442 6.86366 36.4265 7.46163 37.0197 8.4498C37.2115 8.76949 37.3685 9.04746 37.3685 9.06757C37.3685 9.08757 37.089 9.24562 36.7473 9.41866C34.3527 10.6313 32.8526 12.3937 32.3298 14.6084C32.1159 15.5141 32.0526 16.7044 32.1758 17.5011C32.3884 18.8757 32.848 19.5782 33.829 20.0283C34.2691 20.2301 34.4796 20.2564 35.6237 20.2524C36.3366 20.25 37.391 20.1732 37.9668 20.0818C40.763 19.6377 42.0708 19.635 45.1141 20.0668C47.0787 20.3455 48.2825 20.3746 49.0014 20.1604C49.6211 19.9757 50.3365 19.3629 50.6051 18.7865C51.0573 17.8163 51.1293 16.0582 50.7788 14.5426C50.2838 12.4011 48.7435 10.6117 46.367 9.41716C46.0243 9.24492 45.7438 9.07897 45.7438 9.04846C45.7438 9.01785 45.8688 8.8047 46.0216 8.57473C46.6694 7.59977 46.9549 6.6448 46.9495 5.47098C46.943 4.01829 46.4169 2.78765 45.3413 1.70856C44.2523 0.616058 43.0032 0.0978164 41.4919 0.11152C41.0611 0.115421 40.4395 0.196243 40.1104 0.291169ZM23.9581 0.968054C21.2386 1.27204 19.2845 1.79418 17.2472 2.76154L16.1198 3.29679L16.5115 4.00838C16.7269 4.39979 16.9316 4.71718 16.9664 4.71388C17.0012 4.71058 17.4893 4.48762 18.0511 4.21834C19.2253 3.65569 20.5608 3.20767 21.9746 2.90198C23.2439 2.62761 26.3279 2.52118 27.7679 2.70203C29.6562 2.93919 31.6397 3.53496 33.2914 4.36128L34.1497 4.7906L34.3773 4.37308C34.5024 4.14342 34.6925 3.80813 34.7998 3.62798L34.9947 3.30049L33.8635 2.76274C31.9896 1.8719 29.7582 1.25013 27.5763 1.01087C26.6836 0.912939 24.665 0.889033 23.9581 0.968054ZM10.0606 1.80628C11.6915 2.11427 12.8741 3.3289 13.1575 4.98735C13.5328 7.18295 11.7112 9.30473 9.45097 9.30473C8.19049 9.30473 7.02842 8.66326 6.30625 7.56866C4.71535 5.157 6.40715 1.91711 9.36263 1.71586C9.45107 1.70976 9.76514 1.75047 10.0606 1.80628ZM42.1584 1.80568C43.4016 2.04215 44.4403 2.83977 44.9622 3.95847C45.3361 4.75999 45.4161 5.57171 45.2037 6.40764C44.7718 8.10731 43.2641 9.30473 41.5562 9.30473C39.8228 9.30473 38.3253 8.0905 37.8934 6.33472C37.5981 5.13479 37.9916 3.79633 38.9104 2.87458C39.4166 2.36674 40.1906 1.94632 40.8627 1.81409C41.4818 1.69235 41.5604 1.69185 42.1584 1.80568ZM8.67825 10.9042C9.60551 11.0445 10.7003 10.9124 11.5386 10.5589L12.0808 10.3303L12.7322 10.5763C15.6907 11.6935 17.2429 13.7501 17.2204 16.5233C17.2117 17.5921 17.0774 18.0638 16.7017 18.3453C16.2713 18.6676 15.557 18.6582 13.186 18.2992C10.153 17.84 8.38751 17.8383 5.79646 18.2923C3.57123 18.6822 2.73959 18.7031 2.262 18.3809C1.81252 18.0777 1.6864 17.6646 1.67952 16.4733C1.66945 14.7046 2.13836 13.5283 3.32007 12.3578C4.11652 11.569 4.81177 11.1222 5.97693 10.651L6.77547 10.3279L7.3405 10.5576C7.65128 10.6839 8.2532 10.8399 8.67825 10.9042ZM39.6618 10.6387C40.7063 11.0841 42.4565 11.0494 43.6622 10.5594L44.2228 10.3316L44.9086 10.5999C47.0335 11.4312 48.3967 12.7002 49.0067 14.4146C49.3275 15.3164 49.4393 17.0931 49.2164 17.7496C48.9027 18.6745 48.3153 18.7568 45.2912 18.2999C42.3486 17.8553 40.5784 17.843 38.1163 18.2499C36.0009 18.5996 34.6895 18.633 34.3078 18.347C33.9284 18.0628 33.7954 17.5932 33.7867 16.5069C33.7781 15.4304 34.0161 14.3878 34.4593 13.5603C34.8351 12.8585 35.8941 11.8166 36.7411 11.3151C37.7252 10.7325 38.8442 10.3036 39.1075 10.4082C39.2204 10.4531 39.4698 10.5568 39.6618 10.6387ZM21.4156 19.0596V19.9098H22.2133H23.0109V19.0596V18.2094H22.2133H21.4156V19.0596ZM24.7059 19.0596V19.9098H25.5036H26.3012V19.0596V18.2094H25.5036H24.7059V19.0596ZM27.9962 19.0596V19.9098H28.7938H29.5915V19.0596V18.2094H28.7938H27.9962V19.0596ZM6.53458 21.5895L5.76186 21.6187V21.9095C5.76186 22.0694 5.82966 22.719 5.91252 23.3532C6.65941 29.0691 9.89376 34.2046 14.7852 37.4415C15.6776 38.032 16.8186 38.6589 16.8831 38.5941C16.9449 38.5321 17.5271 37.1973 17.5271 37.1176C17.5271 37.0745 17.2243 36.8793 16.8541 36.6837C14.5173 35.4493 12.2586 33.4419 10.702 31.2164C8.94297 28.7013 7.71878 25.4291 7.49046 22.6323C7.39932 21.5161 7.43542 21.5555 6.53458 21.5895ZM43.6069 21.8604C43.5836 22.0254 43.512 22.6106 43.4476 23.1607C42.8631 28.1579 39.7767 33.0423 35.4136 35.8749C34.9143 36.1991 34.4259 36.511 34.3283 36.5681C34.1646 36.6638 34.1805 36.7266 34.5384 37.3916C34.7515 37.7875 34.9598 38.1122 35.0016 38.1131C35.1816 38.1171 36.9851 36.9163 37.8633 36.2076C38.8928 35.3768 40.3519 33.8988 41.0788 32.9503C43.2451 30.1238 44.7036 26.5558 45.1407 23.0133C45.3238 21.529 45.3735 21.6308 44.4472 21.5929L43.6492 21.5603L43.6069 21.8604ZM24.701 27.8155C23.4516 28.0058 22.3139 28.6595 21.3845 29.7209C20.5212 30.7069 20.1227 31.8049 20.1207 33.2027C20.1192 34.2468 20.3663 35.1239 20.9228 36.0495C21.1481 36.4244 21.3176 36.7444 21.2993 36.7607C21.281 36.777 21.0271 36.9109 20.7349 37.058C17.8097 38.5324 16.3222 40.6412 16.0735 43.6663C15.8937 45.8533 16.6567 47.4036 18.1254 47.8356C18.7872 48.0302 20.3564 47.9809 22.1136 47.7102C24.3447 47.3666 26.7824 47.3796 29.2418 47.7485C31.9729 48.158 32.874 48.0871 33.7997 47.3897C35.3948 46.1882 35.3285 42.2698 33.6722 39.8549C32.9652 38.8239 31.6828 37.769 30.2722 37.058C29.98 36.9109 29.7261 36.777 29.7078 36.7607C29.6895 36.7444 29.859 36.4244 30.0843 36.0495C31.0677 34.4138 31.1656 32.4484 30.3474 30.7703C30.0131 30.085 29.135 29.1238 28.3828 28.6199C27.3701 27.9414 25.9338 27.6276 24.701 27.8155ZM26.6148 29.6108C27.8386 29.994 28.8285 31.0519 29.1533 32.3234C29.6859 34.4092 28.2747 36.5108 26.0663 36.9203C24.0633 37.2918 21.9727 35.6622 21.7535 33.5588C21.5786 31.8786 22.7257 30.1414 24.3569 29.6163C25.1333 29.3663 25.8286 29.3647 26.6148 29.6108ZM23.5724 38.3852C24.1782 38.6244 24.3953 38.6562 25.4537 38.6603C26.5292 38.6645 26.7284 38.636 27.4243 38.3792L28.1985 38.0935L28.9863 38.4121C30.5963 39.0632 31.9918 40.2281 32.6491 41.4696C33.1404 42.3979 33.3061 43.193 33.2631 44.4165C33.2227 45.561 33.0621 46.0025 32.6114 46.2085C32.2109 46.3916 31.0307 46.3307 28.8936 46.017C26.2099 45.6229 24.6142 45.6123 22.3628 45.9732C20.3534 46.2953 18.9809 46.3848 18.4981 46.2248C17.9374 46.0393 17.7265 45.5062 17.7265 44.2744C17.7265 43.1987 17.8894 42.4164 18.2973 41.534C18.6493 40.7725 20.0357 39.3871 20.9087 38.9245C21.5791 38.5693 22.5822 38.1387 22.7747 38.1236C22.8367 38.1188 23.1957 38.2364 23.5724 38.3852Z" fill="#16245A"/>
</svg>
