<svg width="39" height="49" viewBox="0 0 39 49" fill="none" xmlns="http://www.w3.org/2000/svg">
<path fill-rule="evenodd" clip-rule="evenodd" d="M0.242569 0.15763L0.00585662 0.315159V8.10494C0.00585662 15.7597 0.00958353 15.8982 0.218823 16.0971C0.474171 16.3399 0.830677 16.357 1.15343 16.142L1.39014 15.9844V8.70084V1.41736H14.0617H26.7332L26.7366 6.30217C26.7395 10.4994 26.7626 11.2155 26.9008 11.3895C27.0569 11.5859 27.2186 11.5935 32.3015 11.6426L37.5412 11.6932L37.5682 29.6379L37.5951 47.5826H19.4926H1.39014V40.8574C1.39014 35.0027 1.36938 34.1125 1.22978 33.9798C0.944082 33.7082 0.638794 33.6775 0.339149 33.8902L0.0590983 34.089L0.0304546 41.3673L0.00181004 48.6457L0.22862 48.8228C0.442758 48.9901 1.51888 49 19.4838 49C35.7491 49 38.5422 48.9791 38.7188 48.8563C38.9218 48.7152 38.9265 48.3744 38.9788 29.8194C39.0081 19.4282 39.0069 10.8583 38.9762 10.775C38.9456 10.6918 36.4078 8.23342 33.3369 5.31194L27.7534 0H14.1163C1.94598 0 0.453726 0.016907 0.242569 0.15763ZM32.3768 6.32748L36.4753 10.2252H32.3497H28.224V6.32748C28.224 4.18373 28.2362 2.42975 28.2511 2.42975C28.266 2.42975 30.1226 4.18373 32.3768 6.32748ZM6.06945 6.46355C5.90546 6.58979 5.82698 6.75876 5.82698 6.98554C5.82698 7.21231 5.90546 7.38128 6.06945 7.50753C6.30052 7.68541 6.70686 7.69421 14.7006 7.69421C22.6943 7.69421 23.1006 7.68541 23.3317 7.50753C23.4957 7.38128 23.5741 7.21231 23.5741 6.98554C23.5741 6.75876 23.4957 6.58979 23.3317 6.46355C23.1006 6.28567 22.6943 6.27686 14.7006 6.27686C6.70686 6.27686 6.30052 6.28567 6.06945 6.46355ZM6.22065 12.6722C5.7632 12.8827 5.68845 13.3883 6.05486 13.7939C6.20479 13.9598 6.75094 13.9711 14.7006 13.9711C22.6502 13.9711 23.1963 13.9598 23.3463 13.7939C23.7232 13.3766 23.6359 12.877 23.1493 12.6661C22.799 12.5144 6.55064 12.5202 6.22065 12.6722ZM6.02536 19.131C5.92111 19.2405 5.83582 19.447 5.83582 19.5899C5.83582 19.7327 5.92111 19.9393 6.02536 20.0488C6.21203 20.2449 6.42979 20.2479 20.3974 20.2479C34.002 20.2479 34.5871 20.2403 34.7562 20.0628C34.9901 19.8171 34.9803 19.3081 34.7376 19.0994C34.5585 18.9452 33.4093 18.9318 20.3789 18.9318C6.42968 18.9318 6.21203 18.9349 6.02536 19.131ZM0.178892 20.0315C0.0260885 20.1919 0.00394005 20.4195 0.0292831 21.5647C0.058566 22.8842 0.0643157 22.9131 0.339149 23.108C0.638794 23.3205 0.944189 23.2897 1.22978 23.0182C1.35649 22.8977 1.39014 22.5837 1.39014 21.5219C1.39014 20.3486 1.36544 20.1568 1.19538 20.0105C0.935243 19.7866 0.401442 19.7976 0.178892 20.0315ZM17.6528 24.5002C17.4414 24.6582 17.3548 24.8556 17.2586 25.3974L17.1354 26.0919L16.69 26.2184C16.445 26.2881 16.0289 26.4489 15.7654 26.5756L15.2862 26.806L14.7108 26.4123C13.8235 25.8052 13.6914 25.8396 12.4401 27.0057C11.4748 27.9052 11.0801 28.3778 11.0801 28.6342C11.0801 28.6864 11.2692 28.9982 11.5003 29.3272L11.9204 29.9253L11.5776 30.7308C11.3891 31.1737 11.2007 31.5878 11.1589 31.6509C11.1172 31.7139 10.8213 31.7966 10.5014 31.8347C10.176 31.8733 9.80009 31.9933 9.64814 32.1069C9.37671 32.3099 9.37639 32.3121 9.37639 33.9576C9.37639 35.8925 9.37437 35.8885 10.4847 36.0694C11.0417 36.1601 11.1991 36.2262 11.2495 36.3909C11.2846 36.5049 11.4561 36.8986 11.6309 37.266L11.9485 37.9338L11.5143 38.5725C11.2755 38.9237 11.0801 39.2796 11.0801 39.3632C11.0801 39.4469 11.6407 40.0549 12.3257 40.7142C13.7553 42.0905 13.8062 42.1079 14.6917 41.5212L15.2685 41.1391L16.076 41.4743C16.5202 41.6587 16.9391 41.8101 17.0069 41.8108C17.0758 41.8115 17.1892 42.125 17.2633 42.5194C17.4621 43.5772 17.4757 43.5837 19.4923 43.5837C21.5089 43.5837 21.5225 43.5772 21.7213 42.5194C21.7954 42.125 21.9088 41.8115 21.9777 41.8108C22.0456 41.8101 22.4645 41.6587 22.9086 41.4743L23.7161 41.1391L24.2929 41.5212C25.1784 42.1079 25.2293 42.0905 26.659 40.7142C27.344 40.0549 27.9045 39.4469 27.9045 39.3632C27.9045 39.2796 27.7091 38.9237 27.4704 38.5725L27.0361 37.9338L27.3538 37.266C27.5285 36.8986 27.7001 36.5049 27.7351 36.3909C27.7856 36.2262 27.9429 36.1601 28.5 36.0694C29.6103 35.8885 29.6082 35.8925 29.6082 33.9576C29.6082 32.3121 29.6079 32.3099 29.3365 32.1069C29.1845 31.9933 28.8087 31.8733 28.4832 31.8347C28.1634 31.7966 27.8674 31.7139 27.8257 31.6509C27.784 31.5878 27.5955 31.1737 27.407 30.7308L27.0642 29.9253L27.4843 29.3272C27.7154 28.9982 27.9045 28.6864 27.9045 28.6342C27.9045 28.3778 27.5099 27.9052 26.5445 27.0057C25.2932 25.8396 25.1612 25.8052 24.2738 26.4123L23.6984 26.806L23.2192 26.5756C22.9557 26.4489 22.5397 26.2881 22.2946 26.2184L21.8492 26.0919L21.726 25.3974C21.5392 24.3446 21.4435 24.2975 19.4923 24.2975C18.0846 24.2975 17.896 24.3183 17.6528 24.5002ZM20.3974 26.3381C20.5244 27.0209 20.754 27.2915 21.2828 27.3814C21.4987 27.4181 22.1163 27.6505 22.6553 27.8976C23.1943 28.1448 23.6981 28.3471 23.7749 28.3471C23.8515 28.3471 24.1706 28.183 24.4837 27.9824L25.0533 27.6178L25.5738 28.1051C25.86 28.3732 26.0943 28.6292 26.0943 28.6739C26.0943 28.7186 25.9182 29.0075 25.7027 29.3158L25.3113 29.8764L25.7457 30.7063C25.9845 31.1627 26.2582 31.7925 26.3538 32.1058C26.5596 32.78 26.7463 32.9635 27.3188 33.0551C28.1535 33.1883 28.1175 33.1472 28.1175 33.9681V34.716L27.7182 34.7798C26.6667 34.9475 26.6201 34.9874 26.3003 35.9907C26.2293 36.2134 25.9868 36.7466 25.7614 37.1754C25.3088 38.0368 25.3111 38.0845 25.8404 38.7825L26.1917 39.2458L25.6186 39.7838L25.0456 40.3219L24.5175 39.9533C24.227 39.7505 23.8886 39.5847 23.7655 39.5847C23.6424 39.5847 23.2292 39.7423 22.8473 39.935C22.4653 40.1277 21.8197 40.3795 21.4125 40.4949C21.0053 40.6102 20.6381 40.7571 20.5963 40.8213C20.5546 40.8854 20.4684 41.2144 20.4049 41.5521L20.2892 42.1663H19.4915H18.6937L18.581 41.6095C18.4106 40.7669 18.3682 40.7203 17.5655 40.493C17.1619 40.3787 16.5193 40.1277 16.1373 39.935C15.7554 39.7423 15.3422 39.5847 15.2191 39.5847C15.096 39.5847 14.7576 39.7505 14.4672 39.9533L13.939 40.3219L13.3653 39.7831L12.7915 39.2444L13.1397 38.7819C13.3313 38.5274 13.5184 38.2429 13.5555 38.1495C13.5953 38.0495 13.4514 37.6424 13.2051 37.1582C12.9753 36.7064 12.7112 36.088 12.6183 35.7841C12.4007 35.0727 12.2728 34.9618 11.5033 34.8178L10.8672 34.6989V33.9595C10.8672 33.1453 10.8361 33.1798 11.6829 33.0548C12.2496 32.9711 12.3852 32.8177 12.7116 31.8905C12.8585 31.4729 13.1246 30.8682 13.3029 30.5466C13.6567 29.9086 13.6505 29.8331 13.1919 29.1894C13.026 28.9567 12.8903 28.7272 12.8903 28.6794C12.8903 28.6317 13.1274 28.3707 13.417 28.0994L13.9437 27.6062L14.5094 27.9767C14.8206 28.1804 15.1368 28.3471 15.2121 28.3471C15.2875 28.3471 15.7903 28.1448 16.3293 27.8976C16.8684 27.6505 17.4899 27.4174 17.7106 27.3799C18.2153 27.2939 18.4869 26.9737 18.5853 26.3488C18.627 26.0837 18.6845 25.8307 18.7131 25.7866C18.7417 25.7424 19.1083 25.7196 19.528 25.7359L20.2909 25.7655L20.3974 26.3381ZM0.283459 26.9393L0 27.1514L0.0294959 28.5231C0.0585659 29.8721 0.0637833 29.8982 0.339149 30.0935C0.638794 30.306 0.944189 30.2752 1.22978 30.0037C1.3566 29.8831 1.38982 29.5719 1.38854 28.5171C1.38759 27.7832 1.3517 27.1327 1.30868 27.0715C1.21934 26.9443 0.814172 26.7273 0.66616 26.7273C0.61164 26.7273 0.439457 26.8226 0.283459 26.9393ZM18.2768 29.1691C16.8908 29.4782 15.5262 30.5342 14.8722 31.8036C13.3494 34.76 15.2495 38.2435 18.6907 38.8039C20.6864 39.1289 22.9563 38.0916 23.9589 36.3966C25.9171 33.0855 23.4096 29.0193 19.4391 29.0671C19.0291 29.0721 18.5061 29.1179 18.2768 29.1691ZM21.1162 30.8107C23.9066 32.1087 23.835 35.8756 20.9959 37.1413C20.4963 37.3639 20.2477 37.4081 19.4923 37.4081C18.7369 37.4081 18.4883 37.3639 17.9888 37.1413C17.1506 36.7676 16.5697 36.2305 16.1711 35.4607C15.8711 34.8814 15.8294 34.7 15.8299 33.9784C15.8306 33.017 16.1185 32.2931 16.7751 31.6022C17.5674 30.7684 18.38 30.4599 19.6635 30.5057C20.3417 30.5299 20.6534 30.5953 21.1162 30.8107Z" fill="#16245A"/>
</svg>
