<svg width="46" height="45" viewBox="0 0 46 45" fill="none" xmlns="http://www.w3.org/2000/svg">
<path fill-rule="evenodd" clip-rule="evenodd" d="M17.1034 0.0779363C12.5279 0.52145 9.24145 3.45139 8.29578 7.93025C8.06425 9.02705 8.02136 10.874 8.19939 12.081C8.53676 14.367 9.37516 16.4059 10.7823 18.362C11.0724 18.7655 11.3099 19.1135 11.3099 19.1355C11.3099 19.1575 11.1177 19.2471 10.8828 19.3345C10.1409 19.6108 8.53766 20.4358 7.77426 20.9342C3.65809 23.6211 1.0253 27.9241 0.209112 33.2982C0.022173 34.5288 -0.0613607 37.0719 0.0503173 38.1312C0.157679 39.1504 0.223769 39.2341 1.53558 40.0124C6.13065 42.7388 10.4362 44.2853 15.0043 44.8503C16.4637 45.0309 19.7321 45.0526 21.111 44.8908C24.2603 44.5214 27.1345 43.7657 30.0117 42.5504C30.6799 42.2682 31.3834 41.9568 31.5748 41.8583C31.92 41.6808 31.9284 41.6807 32.6089 41.8512C33.5091 42.0766 35.736 42.163 36.7695 42.0125C38.4254 41.7714 40.2822 40.9786 41.7167 39.9001C45.1692 37.3047 46.7369 32.8255 45.6689 28.6083C44.6342 24.523 41.3062 21.3897 37.1411 20.5797C36.0756 20.3724 34.1802 20.3714 33.1352 20.5775C32.2701 20.7481 31.019 21.1634 30.347 21.503L29.9168 21.7204L28.9624 21.0831C27.9308 20.3941 26.9524 19.873 25.8567 19.4287L25.1625 19.1472L25.6769 18.455C28.2949 14.9318 29.1391 10.374 27.8684 6.62432C27.3261 5.02402 26.5237 3.76613 25.3322 2.6485C23.7511 1.16548 21.7756 0.319314 19.3256 0.0756913C18.3062 -0.0256908 18.1704 -0.0255112 17.1034 0.0779363ZM20.2118 2.37614C24.8541 3.3201 27.2582 7.81279 25.9229 13.0487C25.0496 16.4732 22.2454 19.8088 19.5504 20.6288C18.3955 20.9801 17.1539 20.8407 15.9939 20.2295C13.7231 19.0327 11.6947 16.4751 10.7802 13.6554C10.3721 12.3969 10.2755 11.7346 10.2796 10.2201C10.2825 9.08865 10.3208 8.67701 10.4843 8.02005C10.746 6.96797 11.4375 5.57017 12.0691 4.81641C13.8478 2.6934 17.0511 1.73346 20.2118 2.37614ZM13.7952 21.4062C16.2637 23.1748 18.9005 23.4494 21.4081 22.199C21.9298 21.9389 22.5088 21.5702 23.2859 21.0037C23.4958 20.8507 23.9799 20.9802 25.3371 21.552C26.1982 21.9148 27.7939 22.8004 27.9024 22.9757C27.9346 23.0277 27.6329 23.4114 27.2321 23.8283C24.5864 26.5804 23.6097 30.5672 24.6726 34.276C24.9722 35.3217 25.7424 36.8677 26.405 37.7538C27.007 38.5587 28.1088 39.6374 28.8252 40.1229C29.0802 40.2958 29.2899 40.4588 29.2912 40.4853C29.2944 40.5529 27.742 41.1567 26.6246 41.5221C20.5181 43.5199 14.3285 43.3335 8.28715 40.9702C6.81115 40.3928 5.02835 39.5339 3.51099 38.6692C1.98778 37.8011 2.08804 38.0202 2.16599 35.7293C2.26347 32.8652 2.80684 30.6035 3.93657 28.3594C5.60814 25.0394 8.59341 22.4204 12.1229 21.1775C12.5413 21.0302 12.9316 20.9089 12.9904 20.9079C13.0492 20.9069 13.4114 21.1311 13.7952 21.4062ZM36.1722 22.6216C38.2097 22.8699 40.0769 23.8223 41.4953 25.3366C42.2159 26.1059 42.5346 26.5784 43.0124 27.5855C43.6105 28.8465 43.8076 29.7616 43.8076 31.2778C43.8076 32.277 43.7667 32.6986 43.6081 33.3321C42.9528 35.9497 41.0066 38.2434 38.5717 39.2678C37.2913 39.8065 36.7834 39.8984 35.0932 39.898C33.7695 39.8977 33.4695 39.8702 32.8547 39.6927C30.6912 39.068 28.7598 37.6031 27.6408 35.738C27.1351 34.895 26.6493 33.5523 26.4982 32.5799C26.3534 31.6477 26.4443 29.9362 26.6865 29.0328C27.679 25.3315 31.1047 22.6401 34.9583 22.5341C35.1809 22.5279 35.7271 22.5674 36.1722 22.6216ZM39.4992 27.295C39.4003 27.3487 38.1051 28.6002 36.621 30.0762L33.9227 32.7599L32.4398 31.2719C31.6243 30.4535 30.8477 29.7261 30.7142 29.6553C29.8259 29.1849 28.8519 30.2209 29.3324 31.1251C29.4872 31.4162 33.211 35.1226 33.4912 35.2643C33.7421 35.3912 34.1063 35.3912 34.3573 35.2644C34.6369 35.1232 40.7882 28.9929 40.9437 28.7006C41.1113 28.3856 41.1066 28.1436 40.9257 27.7628C40.689 27.2646 39.9823 27.0328 39.4992 27.295Z" fill="#16245A"/>
</svg>
