<svg width="46" height="46" viewBox="0 0 46 46" fill="none" xmlns="http://www.w3.org/2000/svg">
<path fill-rule="evenodd" clip-rule="evenodd" d="M22.2348 0.0728348C20.9457 0.475289 20.0144 1.82319 20.1459 3.09606C20.2468 4.07318 20.8976 4.99667 21.7943 5.43512L22.2798 5.67247V7.49525V9.31804L21.402 9.42808C18.7925 9.75531 16.3379 10.796 14.3468 12.4194L13.8414 12.8315L12.8286 11.8164L11.8158 10.8014L12.1506 10.1245C13.5113 7.37307 11.8099 4.13301 8.75518 3.6584C5.80051 3.19935 3.14716 5.87014 3.6335 8.81374C4.13532 11.8509 7.36072 13.5267 10.1002 12.1736L10.7776 11.839L11.7932 12.8511L12.8089 13.8634L12.3965 14.3685C10.7722 16.3583 9.73083 18.8114 9.40339 21.4193L9.29329 22.2965H7.46938H5.64548L5.40798 21.8114C5.12763 21.2389 4.51741 20.6473 3.92961 20.3785C3.6199 20.2368 3.33019 20.1856 2.83341 20.1846C1.69534 20.1824 0.793609 20.7394 0.246321 21.7822C0.0340311 22.1866 0 22.3574 0 23.0163C0 23.6753 0.0340311 23.8461 0.246321 24.2505C0.79523 25.2965 1.69931 25.8539 2.83341 25.8455C3.9594 25.8372 4.91066 25.237 5.40798 24.2213L5.64548 23.7361H7.47163H9.29788L9.35892 24.2985C9.65368 27.0119 10.7306 29.6234 12.3965 31.6642L12.8089 32.1693L11.7932 33.1815L10.7776 34.1936L10.1002 33.859C6.68838 32.1738 2.82035 35.2368 3.69229 38.9334C4.08265 40.5887 5.4168 41.9221 7.07316 42.3122C9.10684 42.7913 11.2244 41.7912 12.1409 39.9187C12.7931 38.5863 12.7964 37.2141 12.1506 35.9082L11.8158 35.2312L12.8286 34.2162L13.8414 33.2011L14.3468 33.6133C16.3889 35.2782 19.002 36.3545 21.7171 36.649L22.2798 36.71V38.5352V40.3602L21.7943 40.5976C21.2215 40.8777 20.6295 41.4876 20.3605 42.075C20.2187 42.3845 20.1675 42.6741 20.1665 43.1706C20.1643 44.3076 20.7209 45.2079 21.7651 45.7567C22.1728 45.971 22.3357 46.003 23 45.9998C23.6513 45.9966 23.8352 45.9599 24.2349 45.753C25.2782 45.213 25.8393 44.3051 25.8309 43.1706C25.8226 42.0452 25.222 41.0946 24.2057 40.5976L23.7202 40.3602V38.5352V36.71L24.2829 36.649C26.998 36.3545 29.6111 35.2782 31.6532 33.6133L32.1586 33.2011L33.1714 34.2162L34.1842 35.2312L33.8494 35.9082C32.7349 38.1619 33.6384 40.8393 35.8882 41.9496C39.3146 43.6406 43.1819 40.587 42.3077 36.8807C42.0014 35.582 41.101 34.4496 39.9128 33.8688C38.5795 33.217 37.2065 33.2137 35.8998 33.859L35.2224 34.1936L34.2068 33.1815L33.1911 32.1693L33.6035 31.6642C35.2694 29.6234 36.3463 27.0119 36.6411 24.2985L36.7021 23.7361H38.5284H40.3545L40.592 24.2213C41.0893 25.237 42.0406 25.8372 43.1666 25.8455C44.3007 25.8539 45.2048 25.2965 45.7537 24.2505C45.966 23.8461 46 23.6753 46 23.0163C46 22.3574 45.966 22.1866 45.7537 21.7822C45.2054 20.7374 44.3031 20.1807 43.1639 20.1845C42.6101 20.1863 42.3933 20.2319 41.9807 20.4337C41.3933 20.7209 40.7946 21.331 40.5435 21.8983L40.3672 22.2965H38.5347H36.7021L36.6411 21.7342C36.3463 19.0208 35.2694 16.4093 33.6035 14.3685L33.1911 13.8634L34.2068 12.8511L35.2224 11.839L35.8998 12.1736C39.3116 13.8589 43.1796 10.7959 42.3077 7.09928C41.7736 4.83472 39.5535 3.31451 37.2624 3.64436C34.2206 4.08226 32.4881 7.37172 33.8494 10.1245L34.1842 10.8014L33.1714 11.8164L32.1586 12.8315L31.6532 12.4194C29.6621 10.796 27.2075 9.75531 24.598 9.42808L23.7202 9.31804V7.49525V5.67247L24.2057 5.43512C25.222 4.9381 25.8226 3.98743 25.8309 2.86212C25.8393 1.72593 25.2738 0.812422 24.2349 0.283824C23.7193 0.0214595 22.7326 -0.0826406 22.2348 0.0728348ZM23.5965 1.56893C23.9768 1.74923 24.228 2.05847 24.3648 2.51437C24.5755 3.21761 24.1021 4.01208 23.3519 4.2139C22.3445 4.48508 21.342 3.49257 21.6352 2.51437C21.9097 1.59907 22.7777 1.1806 23.5965 1.56893ZM8.9546 5.16456C10.0133 5.47875 10.7488 6.2142 11.0635 7.27338C11.395 8.38897 11.0601 9.59849 10.2031 10.3813C9.76837 10.7784 9.4991 10.9276 8.90697 11.0996C7.49729 11.5092 5.92718 10.7686 5.29454 9.39578C5.08378 8.93844 5.04075 8.72367 5.04012 8.12561C5.0394 7.52441 5.08081 7.31693 5.29166 6.86597C5.96598 5.42351 7.47127 4.72432 8.9546 5.16456ZM39.1687 5.32796C39.8595 5.64305 40.3895 6.16993 40.7055 6.85545C40.9162 7.31279 40.9593 7.52755 40.9599 8.12561C40.9606 8.72682 40.9192 8.9343 40.7083 9.38525C39.7376 11.4618 37.1118 11.8558 35.5748 10.1555C35.0239 9.54613 34.8521 9.06701 34.8469 8.12561C34.8428 7.41149 34.8721 7.25745 35.0945 6.82099C35.8944 5.25067 37.6161 4.61977 39.1687 5.32796ZM24.8006 10.9108C27.7825 11.3633 30.6223 12.9737 32.4562 15.2517C34.2924 17.533 35.2429 20.1813 35.2429 23.0163C35.2429 29.06 30.7992 34.2115 24.8006 35.1219C18.165 36.1291 11.9011 31.4893 10.887 24.8158C10.3338 21.1755 11.5077 17.4295 14.0803 14.6264C15.8024 12.7501 18.4902 11.3321 21.1094 10.9182C22.1386 10.7556 23.7568 10.7523 24.8006 10.9108ZM22.3441 14.0195C21.1923 14.2212 20.1023 15.0569 19.5633 16.1516C19.2713 16.7446 19.2639 16.7884 19.2677 17.8862C19.2723 19.1824 19.4117 19.8168 19.9194 20.852C20.3159 21.6604 21.0469 22.4399 21.7406 22.7937C22.4128 23.1366 23.3836 23.2019 24.0463 22.9487L24.5074 22.7725L24.3164 23.0598C24.2113 23.2178 23.8823 23.7777 23.5852 24.3041C23.2881 24.8304 23.0248 25.2612 23 25.2614C22.9752 25.2616 22.6573 24.738 22.2934 24.0978C21.9296 23.4577 21.5714 22.8835 21.4973 22.8222C21.2373 22.6064 20.8095 22.7122 19.984 23.1963C19.2502 23.6266 17.5338 24.4196 16.968 24.5895C16.6305 24.6909 16.4348 24.8981 16.1564 25.4488C15.6558 26.4388 15.4841 27.1882 15.4971 28.3248C15.5039 28.9142 15.5625 29.5338 15.6333 29.7644C15.7449 30.1277 15.816 30.2002 16.3253 30.4706C18.2891 31.513 21.5449 32.2155 23.6752 32.0566C25.9476 31.887 28.223 31.277 29.7972 30.4153C30.1985 30.1957 30.2607 30.1201 30.3699 29.7192C30.4372 29.4719 30.4961 28.8242 30.5007 28.2798C30.5099 27.1903 30.3281 26.4071 29.8436 25.4488C29.5652 24.8981 29.3695 24.6909 29.032 24.5895C28.4662 24.4196 26.7498 23.6266 26.016 23.1963C25.5353 22.9144 25.0933 22.719 24.9292 22.7158L24.6528 22.7104L25.1618 22.2111C26.1463 21.2453 26.7107 19.6698 26.7267 17.8428C26.7375 16.622 26.6307 16.2764 25.9748 15.4082C25.1893 14.3685 23.67 13.7872 22.3441 14.0195ZM24.0702 15.6798C25.2012 16.2567 25.547 17.2575 25.1982 18.9446C24.947 20.1607 24.3458 21.2085 23.7113 21.5364C23.3792 21.708 22.7865 21.702 22.4095 21.5232C22.0321 21.3443 21.4535 20.7249 21.2002 20.2288C20.679 19.2076 20.5082 17.5554 20.8466 16.8081C21.4106 15.5629 22.8519 15.0584 24.0702 15.6798ZM3.42715 21.7481C4.48257 22.2271 4.48536 23.7599 3.43183 24.2696C2.95981 24.4979 2.71637 24.501 2.2393 24.2845C1.69904 24.0393 1.43795 23.6262 1.43795 23.0163C1.43795 22.4065 1.69904 21.9934 2.2393 21.7482C2.70394 21.5373 2.96278 21.5373 3.42715 21.7481ZM43.7607 21.7482C44.301 21.9934 44.562 22.4065 44.562 23.0163C44.562 23.6262 44.301 24.0393 43.7607 24.2845C43.2836 24.501 43.0402 24.4979 42.5682 24.2696C41.5146 23.7599 41.5174 22.2271 42.5728 21.7481C43.0372 21.5373 43.2961 21.5373 43.7607 21.7482ZM21.6107 25.7947C22.5163 27.3581 22.5733 27.4251 22.9983 27.4251C23.4239 27.4251 23.5304 27.3028 24.3413 25.8832C24.6986 25.2579 25.0418 24.6767 25.1039 24.5918C25.2076 24.45 25.2969 24.4773 26.2016 24.9277C26.7432 25.1974 27.4769 25.5307 27.8319 25.6682C28.4621 25.9123 28.483 25.9307 28.7106 26.4375C28.9985 27.0787 29.1666 28.2093 29.0629 28.807L28.987 29.2442L28.2577 29.5458C26.5149 30.2665 24.8941 30.5877 23 30.5877C21.1063 30.5877 19.4868 30.2668 17.7423 29.546L17.013 29.2448L16.931 28.8073C16.8208 28.2191 16.9881 27.1085 17.2872 26.4425L17.5215 25.9206L18.3476 25.5886C18.802 25.4061 19.5181 25.0786 19.939 24.8611C20.3599 24.6435 20.7407 24.4755 20.7854 24.4877C20.8299 24.4999 21.2013 25.0881 21.6107 25.7947ZM8.9546 34.946C10.0133 35.2602 10.7488 35.9957 11.0635 37.0548C11.2441 37.6627 11.2441 38.1514 11.0635 38.7593C10.7924 39.6719 10.2439 40.3014 9.36054 40.7138C8.60069 41.0686 7.60983 41.0737 6.86898 40.7268C5.4466 40.0606 4.70917 38.5279 5.1243 37.1007C5.29643 36.509 5.4457 36.2398 5.84309 35.8054C6.62734 34.9478 7.83598 34.614 8.9546 34.946ZM38.7526 34.9455C39.6658 35.2165 40.2956 35.7646 40.7083 36.6474C41.2415 37.7879 40.9555 39.2775 40.0417 40.1193C38.4389 41.5957 35.9959 41.1329 35.1048 39.1839C34.3031 37.4306 35.189 35.5314 37.0896 34.9291C37.5881 34.7712 38.185 34.777 38.7526 34.9455ZM23.7814 42.0119C24.091 42.202 24.4416 42.8236 24.4385 43.1765C24.4353 43.5291 24.1234 44.1174 23.8284 44.3274C23.2635 44.7293 22.5603 44.6876 22.0673 44.223C21.6515 43.8311 21.4933 43.2966 21.6441 42.7937C21.9195 41.8748 22.9466 41.4991 23.7814 42.0119Z" fill="#16245A"/>
</svg>
