<svg width="51" height="43" viewBox="0 0 51 43" fill="none" xmlns="http://www.w3.org/2000/svg">
<path fill-rule="evenodd" clip-rule="evenodd" d="M8.37136 0.07548C7.69972 0.253765 6.74385 0.851411 6.27982 1.38324C6.04154 1.65638 5.69532 2.21703 5.51064 2.62888C5.20646 3.30714 5.17472 3.47903 5.17472 4.44895C5.17472 5.45979 5.19701 5.56754 5.57114 6.36725C6.04855 7.38784 6.66308 8.0235 7.64984 8.51731C8.29101 8.83823 8.45532 8.8722 9.36714 8.8722C10.279 8.8722 10.4433 8.83823 11.0844 8.51731C12.0712 8.0235 12.6857 7.38784 13.1631 6.36725C13.5377 5.56665 13.5596 5.46069 13.5596 4.44312C13.5596 3.42555 13.5377 3.31959 13.1631 2.51899C12.446 0.985853 11.1718 0.0862449 9.60584 0.00753052C9.15349 -0.0152316 8.59796 0.015379 8.37136 0.07548ZM19.4096 0.07548C18.738 0.253765 17.7821 0.851411 17.3181 1.38324C17.0798 1.65638 16.7336 2.21703 16.5489 2.62888C16.2447 3.30714 16.213 3.47903 16.213 4.44895C16.213 5.45979 16.2353 5.56754 16.6094 6.36725C17.0868 7.38784 17.7014 8.0235 18.6881 8.51731C19.3293 8.83823 19.4936 8.8722 20.4054 8.8722C21.3172 8.8722 21.4815 8.83823 22.1227 8.51731C23.1095 8.0235 23.724 7.38784 24.2014 6.36725C24.576 5.56665 24.5978 5.46069 24.5978 4.44312C24.5978 3.42555 24.576 3.31959 24.2014 2.51899C23.4842 0.985853 22.2101 0.0862449 20.6441 0.00753052C20.1918 -0.0152316 19.6362 0.015379 19.4096 0.07548ZM29.5988 0.07548C28.9272 0.253765 27.9713 0.851411 27.5073 1.38324C27.269 1.65638 26.9228 2.21703 26.7381 2.62888C26.4339 3.30714 26.4022 3.47903 26.4022 4.44895C26.4022 5.45979 26.4245 5.56754 26.7986 6.36725C27.276 7.38784 27.8905 8.0235 28.8773 8.51731C29.5185 8.83823 29.6828 8.8722 30.5946 8.8722C31.5064 8.8722 31.6707 8.83823 32.3119 8.51731C33.2986 8.0235 33.9132 7.38784 34.3906 6.36725C34.7651 5.56665 34.787 5.46069 34.787 4.44312C34.787 3.42555 34.7651 3.31959 34.3906 2.51899C33.6734 0.985853 32.3992 0.0862449 30.8333 0.00753052C30.3809 -0.0152316 29.8254 0.015379 29.5988 0.07548ZM40.6371 0.07548C39.9654 0.253765 39.0096 0.851411 38.5455 1.38324C38.3073 1.65638 37.961 2.21703 37.7764 2.62888C37.4722 3.30714 37.4404 3.47903 37.4404 4.44895C37.4404 5.45979 37.4627 5.56754 37.8369 6.36725C38.3143 7.38784 38.9288 8.0235 39.9156 8.51731C40.5567 8.83823 40.721 8.8722 41.6329 8.8722C42.5447 8.8722 42.709 8.83823 43.3502 8.51731C44.3369 8.0235 44.9515 7.38784 45.4289 6.36725C45.8034 5.56665 45.8253 5.46069 45.8253 4.44312C45.8253 3.42555 45.8034 3.31959 45.4289 2.51899C44.7117 0.985853 43.4375 0.0862449 41.8716 0.00753052C41.4192 -0.0152316 40.8637 0.015379 40.6371 0.07548ZM10.1509 1.88838C10.7339 2.07036 11.6131 2.99924 11.7854 3.61516C12.0794 4.66648 11.8721 5.50464 11.122 6.29705C10.0482 7.43146 8.68606 7.43146 7.61227 6.29705C6.53848 5.16265 6.53848 3.72482 7.61227 2.58795C8.35682 1.79968 9.15879 1.57868 10.1509 1.88838ZM21.1891 1.88838C22.1013 2.17307 22.9527 3.40649 22.9527 4.44312C22.9527 5.8325 21.7206 7.13421 20.4054 7.13421C19.0903 7.13421 17.8581 5.8325 17.8581 4.44312C17.8581 3.73839 18.101 3.16978 18.6505 2.58795C19.3951 1.79968 20.1971 1.57868 21.1891 1.88838ZM31.3783 1.88838C31.9613 2.07036 32.8406 2.99924 33.0128 3.61516C33.3073 4.66816 32.9989 5.75704 32.2019 6.47769C31.5113 7.10214 30.7061 7.27728 29.8109 6.99786C29.2279 6.81587 28.3486 5.887 28.1764 5.27108C27.8825 4.22009 28.0896 3.38216 28.8397 2.58795C29.5843 1.79968 30.3862 1.57868 31.3783 1.88838ZM42.4166 1.88838C43.3287 2.17307 44.1801 3.40649 44.1801 4.44312C44.1801 5.8325 42.948 7.13421 41.6329 7.13421C40.3177 7.13421 39.0856 5.8325 39.0856 4.44312C39.0856 3.73839 39.3284 3.16978 39.878 2.58795C40.6225 1.79968 41.4245 1.57868 42.4166 1.88838ZM14.0016 8.41135C13.2867 8.72924 12.6196 9.19356 12.3418 9.56661C12.1491 9.82541 12.1396 9.8263 9.19233 9.85849C6.33862 9.88955 6.20786 9.90076 5.42234 10.1795C4.14975 10.6312 3.25332 11.2187 2.29968 12.2262C1.33935 13.2407 0.780003 14.1973 0.370737 15.5251C0.147212 16.2506 0.0975401 16.6679 0.0528564 18.1977L0 20.0106L0.274046 20.3001L0.548093 20.5896H4.3201H8.09211L7.7132 21.1141C7.16437 21.8736 6.62307 23.0688 6.38787 24.0403C6.23089 24.6886 6.18302 25.2735 6.18302 26.5422C6.18302 28.1976 6.18313 28.1983 6.4627 28.4305C6.73611 28.6576 6.84808 28.6629 11.4511 28.6629H16.1599V29.2847C16.1599 29.7954 16.2065 29.9558 16.4205 30.1817L16.681 30.457H25.5H34.319L34.5795 30.1817C34.7935 29.9558 34.8401 29.7954 34.8401 29.2847V28.6629H39.5489C44.1519 28.6629 44.2639 28.6576 44.5373 28.4305C44.8169 28.1983 44.817 28.1976 44.817 26.5422C44.817 24.1497 44.4236 22.7439 43.3161 21.1783L42.8996 20.5896H46.6758H50.4519L50.726 20.3001L51 20.0106L50.9471 18.1977C50.9025 16.6679 50.8528 16.2506 50.6293 15.5251C50.22 14.1973 49.6607 13.2407 48.7003 12.2262C47.746 11.218 46.8488 10.6302 45.5777 10.1804C44.7961 9.90379 44.649 9.891 41.8579 9.85613L38.9517 9.8198L38.4084 9.30087C38.1095 9.01539 37.6023 8.65086 37.2812 8.49063C36.7683 8.23475 36.5623 8.19943 35.583 8.19943C34.5513 8.19943 34.4158 8.22589 33.7574 8.55532C30.5461 10.1626 30.5291 14.9618 33.7289 16.6157C36.2031 17.8945 39.1474 16.2978 39.7211 13.3663C39.7933 12.998 39.8208 12.4613 39.7831 12.1609L39.7151 11.6194L41.815 11.6213C43.2052 11.6226 44.1521 11.6764 44.6169 11.7805C47.3315 12.3883 49.2747 14.9517 49.2747 17.9246V18.8004L44.8966 18.7632L40.5184 18.7261L39.5632 18.3403L38.6079 17.9546H35.4769C32.4834 17.9546 32.3135 17.9661 31.6104 18.2149C30.6982 18.5377 30.1628 18.8195 29.4801 19.3362L28.9495 19.7379L26.0838 19.7093C24.5076 19.6935 22.985 19.7285 22.7002 19.787C22.204 19.8888 22.1622 19.8771 21.7004 19.5046C21.0566 18.9854 20.1972 18.5369 19.2342 18.2175C18.4807 17.9675 18.2938 17.9546 15.417 17.9546H12.3921L11.4368 18.3403L10.4816 18.7261L6.10342 18.7632L1.72526 18.8004V18.0897C1.72526 15.5526 2.9659 13.3862 5.03154 12.3163C6.19045 11.7161 6.77113 11.6194 9.21505 11.6194H11.2529L11.2946 12.7163C11.3294 13.6317 11.385 13.9183 11.6302 14.4479C12.4766 16.2755 14.358 17.3501 16.1168 17.0104C18.5219 16.5458 20.099 14.1759 19.6195 11.7465C19.4183 10.7271 19.1206 10.1352 18.4568 9.43441C17.6296 8.56116 16.8678 8.22163 15.6292 8.17442C14.7477 8.14067 14.543 8.1705 14.0016 8.41135ZM16.7076 10.1786C18.0373 10.9556 18.4166 12.8456 17.4984 14.119C16.9753 14.8447 16.3703 15.1513 15.4618 15.1514C14.8107 15.1514 14.6411 15.1061 14.1909 14.8121C12.3775 13.6277 12.6476 10.7666 14.6473 9.97846C15.2022 9.7597 16.1478 9.85153 16.7076 10.1786ZM24.5042 9.94281C23.8326 10.1211 22.8767 10.7187 22.4127 11.2506C22.1744 11.5237 21.8282 12.0844 21.6435 12.4962C21.3393 13.1745 21.3076 13.3464 21.3076 14.3163C21.3076 15.3271 21.3299 15.4349 21.704 16.2346C22.1814 17.2552 22.7959 17.8908 23.7827 18.3846C24.4239 18.7056 24.5882 18.7395 25.5 18.7395C26.4118 18.7395 26.5761 18.7056 27.2173 18.3846C28.2041 17.8908 28.8186 17.2552 29.296 16.2346C29.6706 15.434 29.6924 15.328 29.6924 14.3104C29.6924 13.2929 29.6706 13.1869 29.296 12.3863C28.5788 10.8532 27.3046 9.95357 25.7387 9.87486C25.2863 9.85209 24.7308 9.88271 24.5042 9.94281ZM36.8373 10.239C37.1318 10.4315 37.4573 10.78 37.65 11.1089C37.9342 11.5948 37.9711 11.7565 37.9711 12.5164C37.9711 13.2763 37.9342 13.438 37.65 13.9238C37.4508 14.264 37.1312 14.6018 36.8091 14.8121C36.3589 15.1061 36.1893 15.1514 35.5382 15.1514C34.9338 15.1513 34.6947 15.0966 34.3144 14.8711C32.9825 14.0813 32.5839 12.2425 33.4658 10.9563C34.2463 9.81801 35.7144 9.50573 36.8373 10.239ZM26.2837 11.7557C26.8667 11.9377 27.746 12.8666 27.9182 13.4825C28.2122 14.5338 28.0049 15.372 27.2549 16.1644C26.1811 17.2988 24.8189 17.2988 23.7451 16.1644C22.6713 15.03 22.6713 13.5921 23.7451 12.4553C24.4897 11.667 25.2917 11.446 26.2837 11.7557ZM18.548 19.8457C19.1773 20.0241 20.194 20.4757 20.191 20.5754C20.1898 20.6141 19.9471 20.7971 19.6515 20.9821C18.0667 21.9741 16.6732 24.1559 16.3393 26.1681L16.223 26.8689H12.0521H7.88122L7.88249 25.9438C7.88313 25.435 7.95307 24.7435 8.03777 24.4071C8.61537 22.1142 10.3744 20.3457 12.6043 19.816C13.3104 19.6483 17.9332 19.6714 18.548 19.8457ZM38.5439 19.865C39.5875 20.1249 40.6309 20.7536 41.4331 21.6059C42.5637 22.8069 43.1152 24.2273 43.1175 25.9438L43.1188 26.8689H38.9479H34.777L34.6628 26.1641C34.5265 25.3238 34.1458 24.2911 33.6572 23.4365C33.2048 22.6453 32.052 21.4182 31.3515 20.9821C31.0543 20.7971 30.8102 20.6141 30.809 20.5754C30.8061 20.4819 31.8003 20.0306 32.3989 19.8537C33.1294 19.638 37.6656 19.6463 38.5439 19.865ZM28.3196 21.6065C28.6661 21.6725 29.341 21.9249 29.8196 22.1675C31.8734 23.209 33.1419 25.4184 33.1419 27.9547V28.6629H25.5H17.8581V27.9547C17.8581 25.3142 19.1843 23.1072 21.4121 22.0399C21.7789 21.8642 22.3114 21.6735 22.5954 21.6161C23.322 21.4693 27.5613 21.4622 28.3196 21.6065ZM0.287632 30.7322C0.11898 30.9104 0.027065 31.1347 0.027065 31.3682C0.027065 31.6823 0.222676 31.9375 1.53474 33.3357L3.04253 34.9421L1.53474 36.5486C0.222676 37.9467 0.027065 38.2019 0.027065 38.516C0.027065 38.7496 0.11898 38.9738 0.287632 39.152L0.548093 39.4273H6.34319H12.1384L12.7428 39.8604C18.5843 44.0465 32.4157 44.0465 38.2572 39.8604L38.8616 39.4273H44.6568H50.4519L50.7124 39.152C50.881 38.9738 50.9729 38.7496 50.9729 38.516C50.9729 38.2019 50.7773 37.9467 49.4653 36.5486L47.9575 34.9421L49.4653 33.3357C50.7773 31.9375 50.9729 31.6823 50.9729 31.3682C50.9729 31.1347 50.881 30.9104 50.7124 30.7322L50.4519 30.457H43.3476C34.9318 30.457 35.7711 30.2902 35.6892 31.9789L35.6361 33.0729L34.4205 33.5024C33.0588 33.9835 31.4324 34.3901 29.6924 34.6843C28.1978 34.9371 23.1054 34.969 21.626 34.7349C19.4835 34.3959 17.4916 33.8785 15.868 33.2392L15.3108 33.0198V32.0137C15.3108 31.0948 15.2882 30.9835 15.0503 30.7322L14.7898 30.457H7.66894H0.548093L0.287632 30.7322ZM11.0653 34.9421V37.6332H7.01196H2.95858L4.04011 36.4721C4.96956 35.4743 5.12165 35.2591 5.12165 34.9421C5.12165 34.6251 4.96956 34.41 4.04011 33.4121L2.95858 32.251H7.01196H11.0653V34.9421ZM46.9599 33.4121C46.0304 34.41 45.8783 34.6251 45.8783 34.9421C45.8783 35.2591 46.0304 35.4743 46.9599 36.4721L48.0414 37.6332H43.988H39.9347V34.9421V32.251H43.988H48.0414L46.9599 33.4121ZM14.8684 34.7755C18.3364 36.3163 23.4554 37.0196 28.2649 36.6165C31.9479 36.3077 35.6146 35.2809 37.644 33.9898L38.2365 33.6129V35.6021V37.5913L37.9446 37.8745C36.5071 39.2696 33.4825 40.3789 29.5332 40.9594C27.6783 41.2321 23.319 41.2319 21.4668 40.959C17.7634 40.4134 14.6175 39.2923 13.2046 38.0146L12.7635 37.6157V35.6143V33.6129L13.356 33.9898C13.6819 34.1971 14.3625 34.5507 14.8684 34.7755Z" fill="#16245A"/>
</svg>
