<svg width="45" height="45" viewBox="0 0 45 45" fill="none" xmlns="http://www.w3.org/2000/svg">
<path fill-rule="evenodd" clip-rule="evenodd" d="M2.09671 0.102712C1.32118 0.346023 0.545387 1.0399 0.190186 1.80773L0 2.21891V17.9589V33.6989L0.231902 34.1931C0.682944 35.1541 1.44219 35.7477 2.45842 35.9336C2.79048 35.9943 4.62606 36.0292 7.49997 36.0292H12.0193L11.9942 36.9209L11.9691 37.8126L9.69639 39.11C8.44632 39.8236 7.32246 40.5006 7.19881 40.6145C6.80242 40.9795 6.73254 41.2847 6.73404 42.6433C6.73536 43.7798 6.75419 43.932 6.93205 44.2443C7.05491 44.4599 7.27476 44.6665 7.5181 44.7948L7.90762 45L25.7428 44.9772L43.5779 44.9544L44.0087 44.6883C44.2757 44.5233 44.5408 44.2585 44.7059 43.9917L44.9722 43.5612L44.9953 30.9497C45.0107 22.6582 44.9881 18.2252 44.9296 18.0083C44.7951 17.5092 44.3578 16.9676 43.9164 16.7534L43.525 16.5633L43.5005 9.39108L43.4761 2.21891L43.2328 1.7242C42.9459 1.14067 42.2731 0.480912 41.691 0.212189L41.2758 0.0205825L21.87 0.0039632C6.07045 -0.00957849 2.39594 0.00879952 2.09671 0.102712ZM41.0281 1.56477C41.3966 1.70362 41.838 2.16923 41.9363 2.5228C41.9897 2.71494 42.0231 5.45564 42.0234 9.67123L42.0239 16.508H35.3085H28.5933L28.1334 16.7369C27.8806 16.8628 27.5724 17.0985 27.4487 17.2606C26.9824 17.8713 26.9745 17.9741 26.9745 23.4248V28.4669H14.2133H1.45214V15.5904C1.45214 6.70648 1.48118 2.63721 1.54578 2.46644C1.66943 2.13942 2.04821 1.7424 2.37622 1.59608C2.59413 1.49891 5.97347 1.47772 21.7103 1.47491C34.9521 1.47253 40.856 1.49997 41.0281 1.56477ZM29.2627 3.02059C28.7476 3.11864 28.5661 3.24869 28.4235 3.62197C28.3237 3.88304 28.1956 4.03613 27.9985 4.13004C27.7382 4.25412 27.6905 4.2513 27.3827 4.09355C26.8641 3.82773 26.6095 3.93395 25.7802 4.76272C24.9518 5.59026 24.8459 5.84307 25.1083 6.36662C25.3486 6.84612 25.1977 7.19038 24.6569 7.39676C24.1238 7.60015 24.0258 7.85797 24.0279 9.05139C24.0298 10.1245 24.152 10.4054 24.6946 10.5825C24.8966 10.6483 25.041 10.7763 25.1373 10.9747C25.2719 11.2518 25.2701 11.2883 25.1078 11.5997C24.869 12.0573 24.9541 12.3402 25.518 12.9627C26.3763 13.9104 26.9493 14.1675 27.4593 13.8337C27.7735 13.628 28.2443 13.8468 28.3816 14.2624C28.4376 14.432 28.5774 14.6446 28.6923 14.7349C29.1111 15.0641 31.0041 15.0407 31.3791 14.7017C31.4681 14.6212 31.5668 14.4378 31.5984 14.2942C31.6628 14.0011 32.1301 13.6595 32.343 13.7498C32.8669 13.9721 33.1014 14.0209 33.2943 13.9477C33.6232 13.8227 34.2315 13.2885 34.6244 12.7798C35.0212 12.2658 35.0781 11.9342 34.8462 11.4862C34.7201 11.2425 34.7219 11.1998 34.8687 10.9486C34.9588 10.7945 35.1511 10.6343 35.3109 10.5803C35.4664 10.5276 35.6573 10.4209 35.7352 10.3429C36.0442 10.0335 36.0648 8.01924 35.7627 7.65554C35.6984 7.57816 35.4835 7.4453 35.2851 7.36035C34.8219 7.16189 34.6291 6.77384 34.8427 6.46915C35.095 6.10924 35.023 5.67028 34.6301 5.17372C34.229 4.66679 33.4808 4.04537 33.1808 3.97018C33.0629 3.94055 32.8384 3.99155 32.6392 4.09311C32.3174 4.25711 32.2826 4.25869 31.9978 4.12204C31.7921 4.02338 31.6646 3.88155 31.5956 3.67464C31.4308 3.1809 31.1685 3.04979 30.2696 3.01189C29.8369 2.9936 29.3837 2.99756 29.2627 3.02059ZM30.3622 4.75402C30.5197 5.13072 30.6751 5.25462 31.278 5.48457C31.5492 5.58789 31.8981 5.72462 32.0535 5.78829C32.2984 5.88862 32.379 5.88352 32.6594 5.74995C32.9759 5.59914 32.9871 5.59993 33.1871 5.78776C33.3774 5.96635 33.3827 5.9966 33.2633 6.22725C33.0805 6.58039 33.1037 6.86722 33.3551 7.36299C33.4761 7.60155 33.5751 7.85445 33.5751 7.92488C33.5751 8.12106 33.9889 8.56838 34.2252 8.62764C34.6689 8.73888 34.612 9.23218 34.1374 9.3887C33.9094 9.46389 33.7922 9.57512 33.6919 9.81175C33.6169 9.98841 33.4611 10.3415 33.3454 10.5965C33.1076 11.1206 33.0899 11.3143 33.2411 11.7323C33.3317 11.9826 33.3255 12.0468 33.1979 12.1742C33.0705 12.3016 33.0062 12.3078 32.7557 12.2172C32.3348 12.0652 32.1267 12.0846 31.658 12.3192C31.4298 12.4335 31.0902 12.5765 30.9036 12.6369C30.6295 12.7256 30.5313 12.821 30.3934 13.1325C30.1605 13.6586 29.8864 13.6656 29.5994 13.1526C29.3719 12.746 29.3636 12.7401 28.5587 12.4132C27.7896 12.1009 27.573 12.0705 27.2619 12.2312C27.0109 12.3608 26.9885 12.3574 26.8033 12.1605C26.6155 11.9607 26.6139 11.9434 26.7557 11.6694C26.9266 11.3391 26.9096 11.2363 26.5384 10.3547C26.2147 9.58594 26.0796 9.41544 25.7332 9.33946C25.5165 9.29189 25.4788 9.24186 25.4815 9.00479C25.4843 8.76499 25.5365 8.70133 25.8547 8.55009C26.187 8.39216 26.2549 8.30256 26.5207 7.67076C26.9111 6.74227 26.9302 6.63341 26.7615 6.29548C26.6227 6.01726 26.6248 6.0017 26.8315 5.79514C27.0337 5.59325 27.0557 5.58956 27.2493 5.72506C27.5291 5.92089 27.7871 5.9048 28.2755 5.66087C28.5038 5.54691 28.8095 5.42512 28.9547 5.39021C29.3033 5.3065 29.4986 5.12052 29.6183 4.75833C29.7005 4.50939 29.7588 4.4612 29.9781 4.4612C30.1915 4.4612 30.2624 4.51528 30.3622 4.75402ZM12.5852 6.03784C11.8811 6.15734 11.6386 6.40646 11.2586 7.40115C11.0294 8.00095 10.9741 8.07595 10.6947 8.16591C10.5244 8.22078 10.1348 8.37783 9.82902 8.51491L9.27316 8.7642L8.53592 8.45934C7.34208 7.96551 7.04022 8.04342 5.9975 9.11391C5.02078 10.1168 4.95539 10.4141 5.45536 11.5811L5.76225 12.2975L5.55112 12.7139C5.43503 12.9429 5.2753 13.3278 5.19627 13.5692C5.05387 14.0041 5.04613 14.0107 4.37841 14.2655C3.19065 14.7186 2.94616 15.0978 2.95039 16.481C2.9547 17.8831 3.13107 18.1797 4.23003 18.6327C4.69629 18.8249 5.03706 19.0198 5.07508 19.1163C5.11002 19.2052 5.2738 19.5981 5.43882 19.9895L5.73901 20.7009L5.44683 21.3964C5.11451 22.1873 5.07552 22.6747 5.3135 23.0645C5.53994 23.4356 6.62262 24.4939 6.94895 24.6632C7.35133 24.872 7.84804 24.826 8.57077 24.5132C8.92826 24.3585 9.28469 24.2523 9.36284 24.2772C9.44099 24.3021 9.83896 24.4612 10.2473 24.6306L10.9898 24.9387L11.2427 25.5755C11.7474 26.8463 12.0226 27.0037 13.6591 26.9577C15.0207 26.9194 15.1927 26.8097 15.6392 25.6949L15.9423 24.938L16.684 24.6289C17.7069 24.2025 17.7076 24.2024 18.3499 24.4895C19.4778 24.9936 19.7769 24.9509 20.6509 24.1614C21.8499 23.0783 22.0006 22.5736 21.4847 21.3695L21.1875 20.6755L21.3489 20.3724C21.4377 20.2057 21.5928 19.827 21.6937 19.5308L21.877 18.9923L22.655 18.6701C23.0829 18.4929 23.4956 18.2787 23.5722 18.1941C23.8686 17.8669 23.9822 17.4064 23.9822 16.5323C23.9822 15.0796 23.7931 14.7652 22.6404 14.3009C22.0204 14.0513 21.9222 13.9805 21.8094 13.7021C21.7391 13.5285 21.5709 13.1462 21.4357 12.8526L21.19 12.3187L21.4829 11.6215C22.0046 10.3799 21.9035 10.0245 20.7032 8.88107C19.8168 8.03656 19.5211 7.98257 18.412 8.46277L17.6998 8.77115L16.9467 8.45828C16.5324 8.2862 16.1348 8.11385 16.0632 8.07542C15.9914 8.03691 15.8105 7.70065 15.6611 7.32808C15.3 6.42817 15.0182 6.15356 14.3421 6.04294C13.763 5.94824 13.1241 5.9463 12.5852 6.03784ZM29.0227 6.96826C28.2145 7.37688 27.7718 8.09196 27.7685 8.9945C27.7612 11.0008 30.2296 11.9782 31.6071 10.5143C32.0685 10.0239 32.2064 9.67308 32.2061 8.98975C32.2055 7.71393 31.3603 6.84102 30.0548 6.76786C29.5718 6.74069 29.4112 6.7719 29.0227 6.96826ZM13.9359 7.52646C14.095 7.57113 14.2117 7.7557 14.4436 8.33034C14.6094 8.74064 14.8134 9.14126 14.8971 9.22066C14.9808 9.30007 15.3266 9.45439 15.6655 9.56351C16.0043 9.67264 16.5478 9.89485 16.8734 10.0573C17.1989 10.2198 17.5435 10.3527 17.639 10.3527C17.7346 10.3527 18.1674 10.1991 18.6006 10.0114L19.3883 9.67L19.8377 10.1246L20.287 10.5792L19.9174 11.4734L19.5478 12.3676L19.956 13.2287C20.1805 13.7023 20.4051 14.2481 20.4549 14.4416C20.6017 15.011 20.7598 15.1516 21.6491 15.5033L22.4861 15.8343V16.4835C22.4861 17.1124 22.4785 17.1353 22.2441 17.2181C22.111 17.2651 21.7059 17.4315 21.344 17.5879L20.686 17.8724L20.3662 18.751C20.1903 19.2343 19.9419 19.8235 19.8141 20.0604C19.6864 20.2973 19.5832 20.5545 19.585 20.632C19.5868 20.7095 19.7416 21.1279 19.9291 21.5618C20.269 22.3488 20.2694 22.3514 20.105 22.5822C20.0144 22.7094 19.8046 22.9168 19.6389 23.0431L19.3376 23.2727L18.4676 22.9138L17.5978 22.5548L16.7636 22.9556C16.3048 23.1761 15.7513 23.401 15.5334 23.4554C15.3156 23.5098 15.0647 23.608 14.9758 23.6736C14.887 23.7392 14.6621 24.162 14.4759 24.6131L14.1376 25.4332L13.4876 25.4586L12.8376 25.484L12.5036 24.6409C12.1409 23.7253 12.0659 23.6481 11.3091 23.4109C11.0428 23.3274 10.4919 23.0996 10.0848 22.9045L9.34462 22.55L8.45996 22.915L7.57539 23.28L7.11969 22.8304L6.66407 22.3808L7.00642 21.5622C7.19467 21.112 7.34868 20.6801 7.34868 20.6024C7.34868 20.5247 7.19353 20.1528 7.00387 19.7758C6.81412 19.3989 6.59533 18.8718 6.51754 18.6044C6.43974 18.337 6.32761 18.0521 6.2683 17.9713C6.20907 17.8904 5.78434 17.6693 5.3245 17.4798L4.48842 17.1353V16.4929V15.8506L5.265 15.5328C5.69211 15.358 6.11331 15.14 6.20088 15.0482C6.28854 14.9564 6.44942 14.6043 6.55837 14.2657C6.66733 13.9272 6.88972 13.3904 7.05263 13.0729C7.21544 12.7554 7.34728 12.4191 7.34552 12.3255C7.34376 12.2319 7.18772 11.7992 6.99885 11.3639L6.65544 10.5725L7.09945 10.1207L7.54345 9.66868L8.36272 10.0107C8.81332 10.1988 9.2589 10.3527 9.3529 10.3527C9.44698 10.3527 9.78854 10.2148 10.1121 10.0464C10.4357 9.87788 10.9722 9.65752 11.3047 9.55666C11.637 9.4558 11.9725 9.30297 12.0504 9.21697C12.1282 9.13106 12.3261 8.72859 12.4899 8.3226C12.8045 7.54352 12.8903 7.46842 13.4653 7.46842C13.6105 7.46842 13.8222 7.49454 13.9359 7.52646ZM30.531 8.51289C30.8296 8.86744 30.8206 9.1614 30.5016 9.48015C30.227 9.75451 29.9849 9.79979 29.675 9.63492C28.9794 9.26472 29.2173 8.24232 29.999 8.24232C30.2306 8.24232 30.3575 8.30686 30.531 8.51289ZM12.7554 10.5444C11.0042 10.7253 9.23778 11.8638 8.33587 13.3928C7.21914 15.2863 7.1871 17.4276 8.24558 19.434C8.67321 20.2447 9.76821 21.303 10.649 21.7569C11.7274 22.3127 12.241 22.4374 13.4653 22.4407C14.3977 22.4432 14.6126 22.4136 15.3007 22.1883C18.4502 21.157 20.1794 17.8208 19.1887 14.6873C18.3121 11.9149 15.71 10.2392 12.7554 10.5444ZM14.5555 12.1167C16.7656 12.6258 18.2937 14.9361 17.9129 17.1924C17.4812 19.7497 14.9588 21.4454 12.4613 20.8572C9.63452 20.1915 8.17438 17.1192 9.45402 14.5295C10.2319 12.9554 11.7023 12.0281 13.4213 12.0278C13.8327 12.0278 14.3431 12.0678 14.5555 12.1167ZM43.344 18.1788C43.4977 18.3323 43.5201 18.4718 43.5201 19.2779V20.2012H35.9954H28.4707V19.36C28.4707 18.5623 28.5509 18.2162 28.7699 18.0702C28.8231 18.0346 32.0845 18.005 36.0174 18.0042C43.0516 18.0029 43.1709 18.0058 43.344 18.1788ZM43.4985 30.7312L43.5208 39.7223H35.9958H28.4707V30.7679C28.4707 25.8428 28.4973 21.7867 28.5298 21.7542C28.5624 21.7217 31.9386 21.7052 36.0325 21.7175L43.4761 21.74L43.4985 30.7312ZM34.8398 24.9004C34.6413 24.9867 34.5229 25.1287 34.4158 25.409C34.2252 25.9077 33.8256 26.0933 33.4074 25.8772C32.9585 25.6452 32.6847 25.7033 32.174 26.1388C31.5846 26.6415 31.0512 27.2832 30.9999 27.551C30.9782 27.6646 31.0319 27.9171 31.1193 28.112C31.2608 28.4279 31.2647 28.4988 31.1542 28.7627C31.0659 28.9739 30.9582 29.0734 30.7791 29.1092C30.3069 29.2035 30.1429 29.4244 30.0478 30.0937C29.9567 30.7356 30.0031 31.5089 30.1571 31.9121C30.2386 32.1256 30.6861 32.4239 30.925 32.4239C30.9776 32.4239 31.081 32.5686 31.1549 32.7453C31.2716 33.0244 31.2728 33.0918 31.1642 33.2573C31.0367 33.4518 30.9947 33.648 31.0128 33.9642C31.0357 34.3671 32.5165 35.7654 32.92 35.7654C33.035 35.7654 33.2662 35.7 33.4338 35.6202C33.874 35.4105 34.2127 35.5662 34.4038 36.0662C34.6112 36.6086 34.8208 36.6887 36.0349 36.6887C37.239 36.6887 37.4717 36.5925 37.6227 36.0322C37.7035 35.7325 37.7651 35.6685 38.0573 35.581C38.3431 35.4954 38.4305 35.5021 38.6022 35.6222C39.0608 35.9431 39.5471 35.7088 40.4504 34.7321C41.0454 34.0887 41.1181 33.865 40.896 33.3633C40.7468 33.0263 40.7434 32.9647 40.8604 32.718C40.9525 32.5235 41.0878 32.4158 41.3311 32.343C41.5189 32.2867 41.7286 32.1533 41.797 32.0466C41.9643 31.7852 42.0574 30.8054 41.9791 30.1306C41.9073 29.5123 41.6823 29.2033 41.2396 29.1148C41.0439 29.0757 40.9471 28.9834 40.8524 28.7462C40.7371 28.4574 40.7413 28.4004 40.9002 28.0958C41.0049 27.8952 41.0539 27.6797 41.0229 27.5565C40.9448 27.2455 40.3268 26.5144 39.7963 26.1055C39.2816 25.7087 39.0087 25.6574 38.5833 25.8772C38.1736 26.0889 37.7787 25.9115 37.6166 25.443C37.432 24.9095 37.0999 24.7732 35.9954 24.7773C35.4533 24.7794 35.0095 24.8266 34.8398 24.9004ZM36.4082 26.6031C36.526 26.9025 36.6126 26.968 37.2356 27.2286C38.0811 27.582 38.4244 27.6417 38.7759 27.4962C39.014 27.3977 39.0642 27.4052 39.2221 27.563C39.3898 27.7306 39.392 27.7561 39.2598 28.0115C39.0702 28.3779 39.0829 28.5753 39.3276 29.0634C39.442 29.2915 39.5851 29.6307 39.6456 29.8172C39.7344 30.091 39.8299 30.1892 40.1417 30.327C40.4653 30.4699 40.5278 30.5375 40.5278 30.7439C40.5278 30.9495 40.4698 31.0131 40.1774 31.1279C39.9457 31.2188 39.7921 31.3499 39.7242 31.5149C39.6677 31.6521 39.5086 32.0162 39.3706 32.3238C39.0851 32.9602 39.0677 33.1237 39.2479 33.4717C39.3669 33.7017 39.3618 33.7328 39.1767 33.9065C38.9854 34.086 38.9627 34.088 38.6216 33.9541C38.2852 33.822 38.2441 33.8244 37.8643 33.9972C37.6435 34.0977 37.2712 34.2498 37.0371 34.3351C36.6827 34.4643 36.5823 34.5529 36.4377 34.864C36.2863 35.1896 36.2277 35.2378 35.9826 35.2378C35.7419 35.2378 35.693 35.1999 35.6436 34.975C35.5891 34.7274 35.2352 34.3584 35.0522 34.3584C35.0063 34.3584 34.6893 34.2359 34.3478 34.0861C33.7393 33.8192 33.7195 33.8166 33.3701 33.9538C33.0278 34.088 33.0054 34.0862 32.814 33.9065C32.6252 33.7293 32.6218 33.7055 32.7511 33.4557C32.912 33.145 32.8815 32.9286 32.5689 32.1601C32.2346 31.338 32.2371 31.3414 31.8322 31.1512C31.5278 31.008 31.4629 30.9343 31.4629 30.7313C31.4629 30.5421 31.519 30.4652 31.705 30.3993C32.1437 30.244 32.2083 30.169 32.5072 29.4687C32.8814 28.5917 32.9211 28.3655 32.7581 28.0389C32.6342 27.7909 32.6385 27.7645 32.8334 27.5816C33.0185 27.4079 33.0682 27.3991 33.3064 27.4977C33.6217 27.6282 33.8899 27.5903 34.5432 27.323C34.8094 27.214 35.1196 27.0899 35.2324 27.0472C35.3503 27.0024 35.5 26.8208 35.5844 26.6199C35.7106 26.3197 35.7698 26.2703 36.004 26.2695C36.2384 26.2687 36.2951 26.3155 36.4082 26.6031ZM35.3326 28.602C33.8263 29.0659 33.2788 30.9637 34.2957 32.1962C35.2623 33.368 37.2903 33.1369 37.9911 31.7751C38.4358 30.911 38.2782 29.9139 37.5847 29.2034C36.9323 28.535 36.192 28.3373 35.3326 28.602ZM26.9745 32.248V34.5343L14.9834 34.5322C8.1023 34.531 2.84513 34.496 2.64702 34.4501C2.17213 34.3401 1.88338 34.1092 1.65015 33.6532C1.4656 33.2922 1.45214 33.1538 1.45214 31.6139V29.9618H14.2133H26.9745V32.248ZM36.5454 30.2777C36.9599 30.7412 36.6405 31.4566 36.0189 31.4566C35.6203 31.4566 35.3536 31.248 35.285 30.8822C35.1417 30.119 36.0247 29.6955 36.5454 30.2777ZM19.9653 31.5411C19.4854 31.7415 19.3497 32.3758 19.7099 32.7356C19.9252 32.9509 19.9313 32.9515 21.738 32.9515C23.5447 32.9515 23.5508 32.9509 23.7662 32.7356C24.0459 32.4563 24.0474 32.0698 23.77 31.7473L23.5578 31.5006L21.8559 31.4815C20.9197 31.4711 20.069 31.4979 19.9653 31.5411ZM26.9745 36.7766V37.524H20.2419H13.5093V36.7766V36.0292H20.2419H26.9745V36.7766ZM26.9745 39.7663V40.5137L18.6357 40.5122L10.297 40.5106L11.001 40.1042C11.3883 39.8808 11.9625 39.5467 12.2771 39.3619L12.8492 39.0259L19.9119 39.0224L26.9745 39.0189V39.7663ZM43.5201 42.1569C43.5201 43.0005 43.5005 43.1172 43.3287 43.3L43.1373 43.5035H36.02H28.9027L28.6867 43.2876C28.4865 43.0876 28.4707 43.0081 28.4707 42.2031C28.4707 41.7254 28.4971 41.308 28.5294 41.2759C28.5616 41.2436 31.9477 41.2172 36.0541 41.2172H43.5201V42.1569ZM26.9757 42.5582C26.9764 42.8605 27.0008 43.1968 27.03 43.3056L27.083 43.5035H17.6559H8.22877V42.756V42.0086H17.6016H26.9745L26.9757 42.5582Z" fill="#16245A"/>
</svg>
