<svg width="47" height="46" viewBox="0 0 47 46" fill="none" xmlns="http://www.w3.org/2000/svg">
<path fill-rule="evenodd" clip-rule="evenodd" d="M22.4777 0.135391C21.5386 0.439658 20.8736 1.00052 20.3923 1.89435C20.167 2.31257 20.1448 2.44226 20.1448 3.34301C20.1448 4.29952 20.1553 4.35124 20.4601 4.90194C20.852 5.61013 21.5344 6.20976 22.2336 6.4606L22.7615 6.64992V8.41689V10.1839L21.8663 10.2904C19.561 10.5647 17.1668 11.5501 15.374 12.9625L14.7347 13.4662L12.9858 11.7547L11.2371 10.0433L10.7559 10.5146L10.2747 10.986L12.0218 12.6991L13.7689 14.4123L13.2548 15.0385C11.8129 16.7948 10.807 19.1402 10.527 21.3985L10.4183 22.2754H8.61447H6.81072L6.61746 21.7582C6.36139 21.0733 5.74928 20.4048 5.02635 20.0209C4.46418 19.7223 4.41139 19.7121 3.43496 19.7121C2.51068 19.7121 2.38444 19.733 1.9464 19.9592C1.02121 20.4371 0.41947 21.1456 0.137789 22.0894C-0.0572203 22.7428 -0.0459274 23.3079 0.176075 23.9973C0.507243 25.0259 1.22568 25.7623 2.27399 26.1476C3.07515 26.4419 4.15505 26.3756 4.97144 25.9815C5.72825 25.6163 6.34487 24.9608 6.61746 24.2316L6.81072 23.7144H8.61447H10.4183L10.527 24.5913C10.807 26.8496 11.8129 29.195 13.2548 30.9513L13.7689 31.5775L12.0218 33.2907L10.2747 35.0038L10.7559 35.4752L11.2371 35.9465L12.9894 34.2316L14.7419 32.5166L15.148 32.8494C15.6424 33.2546 16.6613 33.9279 17.3446 34.3011C18.5675 34.969 20.6811 35.6066 22.0859 35.7312L22.7615 35.7912V37.5655V39.3399L22.2336 39.5292C21.5344 39.78 20.852 40.3797 20.4601 41.0879C20.1553 41.6386 20.1448 41.6903 20.1448 42.6468C20.1448 43.5522 20.1662 43.6759 20.3971 44.105C20.7268 44.7177 21.1051 45.1318 21.6394 45.4648C23.3704 46.544 25.6497 45.9336 26.5448 44.1511C26.8286 43.5859 26.8472 43.491 26.8472 42.6033C26.8472 41.6964 26.8342 41.634 26.5319 41.0879C26.14 40.3797 25.4576 39.78 24.7584 39.5292L24.2305 39.3399V37.5655V35.7912L24.9274 35.7293C27.2272 35.5252 29.9712 34.3825 31.844 32.8492L32.2501 32.5166L34.0026 34.2316L35.7549 35.9465L36.2361 35.4752L36.7173 35.0038L34.9666 33.2872L33.2159 31.5705L33.5554 31.1726C35.1207 29.338 36.2871 26.65 36.4955 24.3972L36.5587 23.7144H38.37H40.1813L40.3745 24.2316C40.6471 24.9608 41.2637 25.6163 42.0205 25.9815C42.5405 26.2325 42.7539 26.2823 43.417 26.3078C44.3049 26.342 44.9491 26.1608 45.6122 25.6903C46.4006 25.1308 47 23.9667 47 22.9949C47 22.0231 46.4006 20.859 45.6122 20.2995C44.9317 19.8166 44.308 19.6454 43.3734 19.6851C42.6463 19.716 42.4769 19.7571 41.9623 20.0267C41.2436 20.4034 40.6965 21.001 40.3817 21.7533L40.1443 22.3204H38.3657H36.5871L36.4769 21.4659C36.1604 19.0115 35.1251 16.655 33.5557 14.8172L33.2159 14.4193L34.9666 12.7026L36.7173 10.986L36.2361 10.5146L35.7549 10.0433L34.0061 11.7547L32.2573 13.4662L31.618 12.9625C30.7778 12.3007 29.4535 11.5373 28.4669 11.146C27.4663 10.7493 25.8342 10.341 24.9274 10.2605L24.2305 10.1986V8.42426V6.64992L24.7584 6.4606C25.5031 6.19348 26.1721 5.58953 26.5448 4.8478C26.8259 4.28855 26.8472 4.18269 26.8472 3.34301C26.8472 2.50333 26.8259 2.39747 26.5448 1.83823C26.1798 1.11187 25.511 0.500817 24.7814 0.22704C24.0773 -0.0371137 23.127 -0.0748885 22.4777 0.135391ZM24.425 1.57056C24.7315 1.72742 25.0201 1.96693 25.193 2.20797C25.4474 2.56251 25.47 2.65515 25.47 3.34301C25.47 4.03087 25.4474 4.12351 25.193 4.47805C24.8311 4.98244 24.0973 5.36666 23.496 5.36666C22.8947 5.36666 22.1609 4.98244 21.799 4.47805C21.5446 4.12351 21.522 4.03087 21.522 3.34301C21.522 2.65515 21.5446 2.56251 21.799 2.20797C22.1609 1.70358 22.8947 1.31936 23.496 1.31936C23.7972 1.31936 24.0875 1.39788 24.425 1.57056ZM6.26279 3.99993C5.34007 4.32237 4.61282 4.97929 4.19416 5.86853C4.02164 6.23503 3.98584 6.46546 3.98584 7.21043C3.98584 8.02313 4.01136 8.15912 4.25026 8.62105C5.73762 11.4968 9.91894 11.0502 10.7045 7.93175C10.8359 7.41046 10.8426 7.22743 10.75 6.69831C10.6138 5.92033 10.3771 5.46164 9.80721 4.87136C9.15268 4.19339 8.49264 3.90262 7.52062 3.86403C6.93081 3.84065 6.62361 3.87384 6.26279 3.99993ZM38.5605 3.98024C37.2993 4.42895 36.4687 5.40291 36.2419 6.69921C36.1494 7.22725 36.1562 7.41073 36.2875 7.93175C37.0763 11.0629 41.2909 11.5038 42.7183 8.6045C42.9788 8.07547 43.0062 7.93868 43.0062 7.16546C43.0062 6.43074 42.9726 6.24169 42.7665 5.81636C42.413 5.08659 41.8544 4.52078 41.1537 4.18296C40.6411 3.93572 40.4316 3.88778 39.7585 3.86394C39.1995 3.84407 38.847 3.87833 38.5605 3.98024ZM8.21435 5.35641C8.99852 5.70538 9.55445 6.70803 9.40571 7.50516C9.25422 8.31678 8.50274 9.05699 7.69442 9.19073C6.81366 9.33652 5.76975 8.75038 5.45025 7.93067C5.22723 7.35856 5.30279 6.66216 5.64709 6.11667C6.16271 5.29966 7.31799 4.95761 8.21435 5.35641ZM40.5841 5.43807C41.852 6.0869 42.0533 7.75556 40.9759 8.68464C40.2525 9.30837 39.3351 9.37942 38.5226 8.87459C37.4733 8.2228 37.2628 6.82963 38.0733 5.90198C38.7248 5.15647 39.6866 4.97875 40.5841 5.43807ZM25.6733 11.7435C29.3645 12.4459 32.3686 14.702 34.0084 18.0032C34.8297 19.6565 35.1562 21.0763 35.1562 22.9949C35.1562 26.1218 33.9889 28.9004 31.7566 31.0871C29.5244 33.2738 26.6879 34.4173 23.496 34.4173C18.9336 34.4173 14.9752 31.9958 12.9836 27.9866C12.1623 26.3333 11.8358 24.9135 11.8358 22.9949C11.8358 17.3883 15.736 12.8019 21.4302 11.7124C22.4224 11.5225 24.596 11.5385 25.6733 11.7435ZM25.5159 14.2258V14.9003H26.2504H26.9849V14.2258V13.5512H26.2504H25.5159V14.2258ZM28.2702 15.5749V16.2494H29.0047H29.7392V15.5749V14.9003H29.0047H28.2702V15.5749ZM17.7326 15.4505C16.9477 15.831 16.0586 17.1287 15.7392 18.3594C15.6627 18.6542 15.6001 19.2427 15.6001 19.6671C15.6001 20.5987 15.7682 21.2901 16.2104 22.1771C16.4739 22.7056 16.7574 23.059 17.5814 23.8859L18.6202 24.9286L19.1007 24.4616L19.5814 23.9944L18.6364 23.0334C17.3803 21.7558 17.0441 21.1041 16.9934 19.8481C16.9529 18.8455 17.1461 18.1467 17.6832 17.3541C18.0717 16.7807 18.3008 16.6092 18.6782 16.6092C18.9178 16.6092 19.1254 16.7722 20.0349 17.6743C20.6514 18.2856 21.1088 18.8125 21.1087 18.911C21.1085 19.0053 20.9434 19.3205 20.7417 19.6114C20.1357 20.4852 20.0532 21.2149 20.466 22.0502C20.5775 22.2757 21.3501 23.1004 22.4622 24.1808C24.1293 25.8004 24.3168 25.955 24.7751 26.088C25.6342 26.3373 26.1125 26.2503 26.9517 25.6918C27.2477 25.4949 27.5686 25.3337 27.6649 25.3335C27.7655 25.3334 28.3033 25.7815 28.9273 26.3854C29.8482 27.2763 30.0147 27.4798 30.0147 27.7144C30.0147 28.0842 29.8396 28.3086 29.2542 28.6892C28.4452 29.2152 27.7318 29.4046 26.7083 29.3649C25.4262 29.3152 24.7609 28.9859 23.4567 27.7553L22.4757 26.8297L21.9988 27.3005L21.522 27.7713L22.5864 28.7888C23.7337 29.8859 24.4407 30.3152 25.5581 30.5935C26.2594 30.7681 27.5268 30.7681 28.228 30.5935C29.4904 30.2791 30.8199 29.402 31.2 28.6328C31.4433 28.1405 31.4506 27.3994 31.2172 26.9073C31.1161 26.6943 30.5456 26.0662 29.819 25.3678C28.6974 24.2897 28.55 24.1784 28.1096 24.0771C27.4782 23.9319 26.8421 24.0754 26.2912 24.4874C25.8329 24.83 25.5325 24.9282 25.2241 24.8362C24.9623 24.7581 21.8831 21.7915 21.6896 21.431C21.5045 21.0863 21.5827 20.7568 21.9669 20.2639C22.3941 19.7157 22.5405 19.0956 22.3892 18.4754C22.2843 18.0457 22.166 17.8951 21.0717 16.7998C20.3521 16.0795 19.7219 15.5297 19.5021 15.4302C18.9952 15.2008 18.2294 15.2095 17.7326 15.4505ZM4.59584 21.334C5.10843 21.687 5.50074 22.407 5.50074 22.9949C5.50074 23.5839 5.10852 24.3028 4.59363 24.6573C4.23254 24.9059 4.13622 24.9286 3.44332 24.9286C2.77354 24.9286 2.64381 24.9005 2.3086 24.6833C1.59338 24.2196 1.20089 23.1824 1.45502 22.4279C1.62405 21.9261 2.0485 21.4219 2.48397 21.2055C2.80999 21.0436 3.0062 21.0121 3.54394 21.0354C4.10207 21.0597 4.26421 21.1057 4.59584 21.334ZM44.7179 21.334C45.2305 21.687 45.6228 22.407 45.6228 22.9949C45.6228 23.5839 45.2306 24.3028 44.7157 24.6573C44.3546 24.9059 44.2583 24.9286 43.5654 24.9286C42.8956 24.9286 42.7659 24.9005 42.4307 24.6833C41.7155 24.2196 41.323 23.1824 41.5771 22.4279C41.7461 21.9261 42.1706 21.4219 42.606 21.2055C42.9321 21.0436 43.1283 21.0121 43.666 21.0354C44.2241 21.0597 44.3863 21.1057 44.7179 21.334ZM20.0518 25.4244L19.5986 25.8753L20.0783 26.3453L20.558 26.8152L21.0377 26.3453L21.5174 25.8753L21.0642 25.4244C20.8148 25.1765 20.587 24.9736 20.558 24.9736C20.529 24.9736 20.3012 25.1765 20.0518 25.4244ZM6.55659 35.5279C5.55399 35.7833 4.73044 36.4402 4.25127 37.3667C4.01118 37.831 3.98584 37.9659 3.98584 38.7794C3.98584 39.5676 4.01632 39.7425 4.23263 40.1947C4.77212 41.3223 5.88966 42.0619 7.16319 42.1341C8.96244 42.2361 10.4387 41.0696 10.7483 39.3012C11.1515 36.9977 8.8653 34.9396 6.55659 35.5279ZM38.7399 35.5506C37.0457 35.9966 35.9366 37.6831 36.2482 39.3396C36.3092 39.6635 36.4441 40.092 36.5482 40.2917C36.8585 40.8877 37.5798 41.5627 38.2115 41.8487C38.7141 42.0761 38.8878 42.1071 39.6571 42.1071C40.4601 42.1071 40.5816 42.083 41.1443 41.8115C43.2479 40.7966 43.7068 38.0405 42.0434 36.4111C41.6263 36.0025 41.0031 35.6674 40.403 35.5289C39.7513 35.3787 39.3741 35.3836 38.7399 35.5506ZM8.40936 37.0753C9.52195 37.7139 9.74918 39.1596 8.8878 40.1183C7.93937 41.1738 6.23598 40.9765 5.57364 39.7345C5.10475 38.8553 5.28618 37.9131 6.0473 37.2749C6.72717 36.7048 7.63107 36.6284 8.40936 37.0753ZM40.1599 36.855C40.3812 36.9096 40.7356 37.0996 40.9474 37.2772C42.3342 38.4399 41.6068 40.6369 39.7863 40.7848C39.0996 40.8406 38.5617 40.6275 38.1042 40.1183C37.1134 39.0156 37.5659 37.3824 39.0018 36.8798C39.4169 36.7345 39.6509 36.7295 40.1599 36.855ZM24.425 40.8743C24.7315 41.0312 25.0201 41.2707 25.193 41.5117C25.4474 41.8663 25.47 41.9589 25.47 42.6468C25.47 43.3347 25.4474 43.4273 25.193 43.7818C24.8311 44.2862 24.0973 44.6704 23.496 44.6704C22.8947 44.6704 22.1609 44.2862 21.799 43.7818C21.5446 43.4273 21.522 43.3347 21.522 42.6468C21.522 41.9589 21.5446 41.8663 21.799 41.5117C22.1609 41.0074 22.8947 40.6231 23.496 40.6231C23.7972 40.6231 24.0875 40.7017 24.425 40.8743Z" fill="#16245A"/>
</svg>
