<svg width="51" height="46" viewBox="0 0 51 46" fill="none" xmlns="http://www.w3.org/2000/svg">
<path fill-rule="evenodd" clip-rule="evenodd" d="M22.0708 1.25998C21.9132 1.95297 21.7352 2.57433 21.6751 2.64065C21.6152 2.70707 21.3195 2.83082 21.0182 2.91566C20.7169 3.00049 20.058 3.24512 19.5539 3.45937L18.6375 3.84878L17.3625 3.09558L16.0877 2.34228L13.9053 4.30873L11.7229 6.27527L12.1372 7.14333C12.3651 7.62072 12.5516 8.04293 12.5516 8.08157C12.5516 8.12021 12.2266 8.17665 11.8295 8.20694C10.2193 8.32988 8.776 9.04372 7.79875 10.2003C6.7971 11.3856 6.53503 12.3136 6.60555 14.4242C6.63663 15.3548 6.70656 16.0075 6.80387 16.2742C7.12152 17.1451 7.59645 17.8369 8.33215 18.5009C8.73546 18.8648 9.06535 19.2306 9.06535 19.3137C9.06535 19.4318 8.81673 19.5195 7.92595 19.7155L6.78664 19.9663L4.72626 18.8803L2.66589 17.7943H1.33294H0L0.0253998 25.493L0.0508993 33.1917L4.03519 34.3919L8.01948 35.5922L8.86186 35.5679C9.66887 35.5446 9.70683 35.5342 9.7628 35.319C9.79508 35.1954 9.8654 35.0943 9.91929 35.0943C9.97307 35.0943 10.533 35.3713 11.1635 35.7098C12.3066 36.3234 12.3103 36.3265 12.4258 36.7656C12.6605 37.6567 13.5282 38.4188 14.4326 38.5283C14.797 38.5724 14.8226 38.596 14.8727 38.9333C14.9924 39.7383 15.8388 40.5242 16.8098 40.7318C17.2727 40.8307 17.3328 40.8701 17.3328 41.0742C17.3328 41.2011 17.4517 41.5204 17.5971 41.7836C17.9056 42.3422 18.4846 42.7554 19.2444 42.9593C19.7323 43.0901 19.7565 43.112 19.8735 43.5279C20.0463 44.1416 20.481 44.6466 21.1123 44.9667C21.7973 45.3141 22.7213 45.3488 23.359 45.051L23.7574 44.865L24.2056 45.2242C24.819 45.7159 25.3335 45.9351 26.0018 45.9899C27.295 46.0956 28.4142 45.3644 28.7165 44.216C28.8268 43.7968 28.8458 43.7793 29.2473 43.725C30.1458 43.6034 30.985 42.8268 31.1998 41.9181C31.2824 41.5687 31.3264 41.5197 31.5598 41.518C32.4737 41.5113 33.6588 40.4388 33.6661 39.612C33.6678 39.4177 33.7254 39.3556 33.9423 39.3137C34.5656 39.1933 35.061 38.9784 35.4001 38.6814C35.8773 38.2632 36.064 37.9169 36.1317 37.3242L36.1879 36.8334L43.594 33.4926L51 30.152V24.737V19.3221H50.0454H49.0907L47.75 19.9605L46.4092 20.5989L45.9405 20.4213C45.6828 20.3236 44.6761 20.0678 43.7038 19.8528C42.2936 19.5412 41.9357 19.4318 41.9357 19.3124C41.9357 19.23 42.2656 18.8648 42.6689 18.5009C43.4052 17.8364 43.8812 17.1426 44.1965 16.2742C44.29 16.017 44.3646 15.3554 44.395 14.514C44.4547 12.8715 44.3135 12.1521 43.7176 11.0618C42.7925 9.36878 40.7586 8.17818 38.7917 8.17818H38.3643L38.8222 7.22753L39.2801 6.27698L37.0968 4.30963L34.9134 2.34228L33.6386 3.09558L32.3636 3.84878L31.4472 3.45937C30.9431 3.24512 30.2842 3.00049 29.9829 2.91566C29.6816 2.83082 29.3859 2.70707 29.326 2.64065C29.2659 2.57433 29.0879 1.95297 28.9303 1.25998L28.6439 0H25.5005H22.3572L22.0708 1.25998ZM27.5951 2.72046C27.742 3.3518 27.8799 3.88014 27.9016 3.8947C27.9232 3.90926 28.3892 4.03777 28.937 4.18031C29.4853 4.32293 30.4879 4.6923 31.1675 5.00199C32.5738 5.64277 32.3357 5.65822 33.6895 4.83897C34.1667 4.55012 34.6143 4.31377 34.684 4.31377C34.8669 4.31377 37.2549 6.48656 37.2506 6.64904C37.2486 6.7239 37.0544 7.18961 36.8189 7.6839C36.426 8.50881 36.3546 8.6003 35.9509 8.79774C35.709 8.9161 35.2927 9.17538 35.026 9.3739C34.6011 9.69007 34.5293 9.71631 34.4479 9.58492C34.1926 9.1734 33.0771 8.02819 32.5048 7.59016C30.9227 6.37916 29.2266 5.65517 27.2555 5.34961C23.5246 4.7712 19.6174 6.10263 17.2482 8.75982C16.9172 9.13116 16.6035 9.50385 16.5513 9.58806C16.4657 9.7261 16.4203 9.71514 16.0876 9.47644C15.8848 9.33085 15.4676 9.06789 15.1606 8.89211C14.6335 8.59042 14.5785 8.52319 14.1746 7.6874C13.9393 7.20057 13.7469 6.73837 13.7469 6.66027C13.7469 6.49006 16.128 4.31377 16.3141 4.31377C16.3855 4.31377 16.8344 4.55012 17.3116 4.83897C18.6654 5.65822 18.4273 5.64277 19.8336 5.00199C20.5132 4.6923 21.5158 4.32293 22.0641 4.18031C22.6119 4.03777 23.0766 3.91034 23.0967 3.89722C23.1168 3.8841 23.2417 3.41632 23.3741 2.85787C23.5066 2.29933 23.6391 1.77062 23.6687 1.68309C23.718 1.53705 23.8727 1.52581 25.5252 1.54828L27.3281 1.57273L27.5951 2.72046ZM27.1939 6.84586C29.6215 7.2589 31.7849 8.60677 33.2057 10.5916L33.4859 10.9831L33.2036 11.76C32.9379 12.4912 32.9214 12.6268 32.9236 14.0647C32.9263 15.8169 33.0506 16.387 33.6382 17.3419C33.8369 17.6649 34.306 18.2023 34.6806 18.5363C35.0552 18.8702 35.3617 19.215 35.3617 19.3023C35.3617 19.433 35.0693 19.5266 33.7181 19.8292L32.0746 20.1973L30.4311 19.8292C29.0625 19.5228 28.7876 19.4341 28.7876 19.2987C28.7876 19.2093 29.0678 18.8996 29.4101 18.6106C30.14 17.9943 30.6985 17.1903 31.007 16.3114C31.1993 15.764 31.228 15.4838 31.2277 14.1545C31.2274 12.9283 31.1912 12.5203 31.0444 12.0875C30.3976 10.1813 28.7464 8.73223 26.7344 8.30535C25.841 8.11581 24.4918 8.17755 23.6356 8.44716C21.9529 8.97704 20.57 10.2524 20.0122 11.7884C19.7957 12.3848 19.7731 12.5999 19.7731 14.0647C19.7731 15.4863 19.7999 15.7585 19.9941 16.3114C20.3026 17.1903 20.8611 17.9943 21.591 18.6106C21.9334 18.8996 22.2135 19.2093 22.2135 19.2987C22.2135 19.4341 21.9386 19.5228 20.57 19.8292L18.9265 20.1973L17.283 19.8292C15.9767 19.5367 15.6394 19.4304 15.6394 19.311C15.6394 19.2285 15.9455 18.8838 16.3195 18.545C16.6936 18.2062 17.1627 17.6649 17.3619 17.3419C17.9503 16.3883 18.0761 15.8148 18.0707 14.1096C18.0665 12.7096 18.0498 12.5836 17.7734 11.8546L17.4807 11.0825L17.7803 10.6354C19.7243 7.73422 23.4946 6.21641 27.1939 6.84586ZM13.7252 9.90593C14.735 10.2411 15.7199 11.1328 16.1502 12.1016C16.3636 12.5818 16.3837 12.7614 16.385 14.1995L16.3865 15.7722L16.0487 16.3958C15.6766 17.0828 15.0229 17.7309 14.3667 18.0635L13.9406 18.2795L13.9682 19.4469L13.9959 20.6142L15.3388 20.9176C16.0774 21.0845 16.6983 21.2359 16.7185 21.2542C16.7387 21.2724 16.6438 21.4215 16.5075 21.5854C15.9678 22.2347 15.6686 23.0399 15.613 23.9929L15.5896 24.3949L14.3943 24.6403C13.7369 24.7752 13.1766 24.8876 13.1493 24.8901C13.1219 24.8925 13.1136 24.5398 13.1308 24.1066L13.1622 23.3186L11.0232 22.1966C9.84677 21.5794 8.93616 21.0491 8.99971 21.0179C9.06316 20.9868 9.46249 20.8884 9.88711 20.7993L10.6591 20.6372V19.4498V18.2623L10.1663 17.9771C9.49068 17.5859 9.00141 17.073 8.63087 16.3674C8.32527 15.7854 8.3176 15.7388 8.28503 14.2679C8.25764 13.0295 8.28204 12.68 8.42319 12.2907C8.67649 11.5918 9.02033 11.1075 9.59686 10.6372C10.7498 9.6969 12.2792 9.42594 13.7252 9.90593ZM26.7424 9.8574C28.0924 10.2811 29.1662 11.3838 29.483 12.6717C29.5591 12.9811 29.5913 13.6533 29.569 14.4691C29.5362 15.6689 29.5115 15.8144 29.2574 16.3051C28.8928 17.0092 28.3842 17.556 27.729 17.9486L27.1939 18.2691V19.4491V20.6291L29.5595 21.1569C32.0763 21.7185 32.6873 21.9296 33.1112 22.3841C33.6507 22.9625 33.702 23.1851 33.7104 24.9839L33.7181 26.6465L33.3461 26.6743C33.1061 26.6922 32.0456 26.4641 30.3573 26.0315C28.9181 25.6627 27.5167 25.3334 27.2431 25.2997C26.9695 25.2661 25.8268 24.9814 24.7037 24.6671C22.2063 23.9684 22.0677 23.9363 21.0481 23.8228C20.2801 23.7373 19.0452 23.7878 17.7029 23.9596L17.2263 24.0206L17.2957 23.626C17.4426 22.7902 17.871 22.2273 18.6157 21.892C18.8688 21.778 20.1405 21.4472 21.4416 21.1569L23.8072 20.6291V19.4457V18.2623L23.3145 17.9771C22.6388 17.5859 22.1496 17.073 21.779 16.3674L21.4665 15.7722V14.1049V12.4377L21.8416 11.7529C22.7627 10.0712 24.8506 9.26363 26.7424 9.8574ZM39.8926 9.86307C40.9262 10.1568 41.7583 10.84 42.3108 11.8483L42.6828 12.5275V14.1499V15.7722L42.3702 16.3674C41.9997 17.073 41.5104 17.5859 40.8348 17.9771L40.342 18.2623V19.4469V20.6315L42.3342 21.0745C43.8449 21.4105 44.2961 21.5421 44.2018 21.6192C44.0699 21.7267 35.5118 25.7927 35.4171 25.7927C35.3867 25.7927 35.3612 25.2569 35.3605 24.6019C35.359 23.0648 35.167 22.3973 34.4932 21.5854C34.3571 21.4215 34.2624 21.2724 34.2826 21.2542C34.3028 21.2359 34.9237 21.0845 35.6623 20.9176L37.0052 20.6142L37.0329 19.4469L37.0605 18.2795L36.6344 18.0635C35.9759 17.7298 35.3234 17.0813 34.956 16.3958C34.6309 15.7894 34.6207 15.7353 34.5819 14.4285C34.5227 12.4296 34.7873 11.6364 35.8158 10.7305C36.9406 9.73958 38.3802 9.43331 39.8926 9.86307ZM5.20637 20.8557C6.80636 21.6992 8.12466 22.3977 8.13582 22.4078C8.1654 22.4344 5.20976 33.076 5.16045 33.1204C5.13764 33.141 4.34845 32.927 3.40667 32.6449L1.69442 32.1318V25.7269V19.3221H1.99583C2.2058 19.3221 3.17916 19.7871 5.20637 20.8557ZM49.3067 25.0965V29.2534L42.4057 32.3661L35.5047 35.4789L31.8722 32.5228C27.7028 29.1298 27.4677 28.9831 26.1999 28.9831C25.2717 28.9831 25.0381 29.0673 23.2172 30.0574C21.23 31.138 21.0763 31.2029 20.6691 31.134C19.9477 31.0118 19.5559 30.2825 19.8595 29.6269C19.9994 29.3247 20.1783 29.2278 22.6801 28.0987C25.4676 26.8405 26.1453 26.6235 26.9244 26.7392C27.1548 26.7734 28.5878 27.1204 30.1088 27.5103C31.9987 27.9948 33.0393 28.2186 33.3958 28.2172C33.8888 28.2154 34.3345 28.0165 41.5373 24.5846C45.7283 22.5878 49.1908 20.9508 49.232 20.9468C49.2731 20.943 49.3067 22.8103 49.3067 25.0965ZM11.4855 24.1742C11.544 24.2207 8.53455 34.0063 8.42498 34.1258C8.37956 34.1753 6.77439 33.6554 6.77439 33.5911C6.77439 33.5146 9.53929 23.4878 9.6118 23.3015C9.63979 23.2295 9.95535 23.3498 10.5303 23.6514C11.012 23.9041 11.4419 24.1393 11.4855 24.1742ZM21.2672 25.3422C21.9525 25.4427 23.608 25.8838 23.608 25.9659C23.608 25.9961 22.6577 26.4447 21.4961 26.9627C18.5128 28.2935 18.1842 28.6005 18.1811 30.0616C18.1791 31.0126 18.3382 31.3827 18.9982 31.9626C19.4988 32.4025 20.1392 32.6232 20.9114 32.622C21.5849 32.6209 21.9644 32.469 23.857 31.4431C24.624 31.0274 25.3769 30.6374 25.5301 30.5766C25.8886 30.4342 26.5105 30.4351 26.8643 30.5783C27.2824 30.7476 34.1896 36.3552 34.3928 36.6904C34.7259 37.2397 34.3019 37.8353 33.5778 37.8353C33.2327 37.8353 32.996 37.6824 30.8691 36.085C29.5873 35.1223 28.5162 34.336 28.4888 34.3376C28.4275 34.3413 27.4927 35.3736 27.4927 35.4376C27.4927 35.4628 28.4452 36.1967 29.6093 37.0684C31.7505 38.6715 32.0731 38.9698 32.0741 39.3476C32.0749 39.6684 31.5591 40.0821 31.1581 40.0821C30.7375 40.0821 30.7573 40.0948 28.1923 38.1652L26.0532 36.5559L25.5302 37.0833C25.2427 37.3733 25.0063 37.6319 25.0049 37.6577C25.0036 37.6836 25.971 38.4312 27.1547 39.3189C28.3385 40.2066 29.3694 41.0134 29.4457 41.1117C29.6691 41.3994 29.6177 41.82 29.3293 42.0643C28.9727 42.3668 28.4132 42.3443 27.9173 42.0076C27.1692 41.4998 25.899 40.5102 25.899 40.4352C25.899 40.3929 25.7125 40.1967 25.4845 39.999C25.0944 39.6608 24.3942 39.3631 23.9887 39.3631C23.8563 39.3631 23.8072 39.295 23.8072 39.1111C23.8072 38.9725 23.6883 38.6438 23.5429 38.3806C23.2344 37.8219 22.6554 37.4087 21.8956 37.2049C21.4105 37.0747 21.383 37.0503 21.2697 36.648C21.2046 36.4165 21.0317 36.0641 20.8854 35.8647C20.6032 35.4799 19.7274 34.9617 19.3569 34.9603C19.0533 34.9591 18.8653 34.7598 18.79 34.3589C18.6226 33.4673 17.467 32.6792 16.3413 32.6888C15.4453 32.6964 14.9527 32.9465 13.8184 33.97L12.8263 34.865L11.6399 34.2249C10.9873 33.8729 10.4313 33.5526 10.4044 33.5132C10.3588 33.4466 12.4771 26.6388 12.5693 26.5555C12.6078 26.5209 18.1539 25.4048 18.7273 25.3164C19.2152 25.2411 20.6794 25.2559 21.2672 25.3422ZM16.7666 34.2552C17.1028 34.4167 17.2266 34.6137 17.23 34.9929C17.2328 35.3089 17.1574 35.4111 16.4114 36.1022C15.9595 36.5208 15.4631 36.9229 15.3084 36.9956C14.721 37.2717 14.0258 36.8694 14.0258 36.2531C14.0258 35.9437 14.1106 35.8393 15.0165 35.0327C16.0523 34.1105 16.267 34.0151 16.7666 34.2552ZM19.4045 36.5797C19.6565 36.7914 19.769 37.1208 19.6879 37.4084C19.6565 37.5197 19.2093 37.9887 18.694 38.4509C17.8511 39.207 17.7204 39.2912 17.3895 39.2912C16.7515 39.2912 16.3385 38.7795 16.5374 38.2357C16.6013 38.0607 17.0018 37.6323 17.533 37.1702C18.335 36.4726 18.4588 36.3974 18.8047 36.3974C19.0518 36.3974 19.2646 36.462 19.4045 36.5797ZM21.9656 38.9313C22.4257 39.4247 22.2795 39.7327 21.0894 40.7786C20.3153 41.4589 20.2126 41.52 19.844 41.52C19.5176 41.52 19.3938 41.468 19.1844 41.2435C18.7264 40.7524 18.8119 40.5246 19.798 39.6101C20.9928 38.502 21.4358 38.3632 21.9656 38.9313ZM24.3715 41.0858C24.8959 41.5274 24.7605 41.9296 23.7797 42.8437C22.7223 43.8293 22.2991 43.9714 21.7231 43.5341C21.4765 43.3469 21.4167 43.2324 21.4167 42.9478C21.4167 42.628 21.4932 42.5223 22.2168 41.8422C23.3452 40.7817 23.8147 40.617 24.3715 41.0858ZM26.9178 43.2725C27.0124 43.3713 27.0909 43.5911 27.0921 43.761C27.0974 44.4944 26.2098 44.732 25.4206 44.2083C25.1907 44.0558 25.0025 43.9016 25.0025 43.8657C25.0025 43.8297 25.1362 43.6849 25.2994 43.5437C25.4628 43.4025 25.7165 43.1307 25.8632 42.9397L26.13 42.5923L26.4379 42.8425C26.6071 42.9801 26.823 43.1736 26.9178 43.2725Z" fill="#16245A"/>
</svg>
