<svg width="50" height="46" viewBox="0 0 50 46" fill="none" xmlns="http://www.w3.org/2000/svg">
<path fill-rule="evenodd" clip-rule="evenodd" d="M34.1239 0.0436345C31.691 0.230494 29.1268 1.07099 26.9545 2.39341C25.8211 3.08352 23.8287 4.91986 23.0777 5.96648C21.5066 8.15624 20.6999 10.4204 20.5785 12.9807C20.2613 19.6701 25.3728 25.5413 32.5985 26.7871C34.0743 27.0416 36.6964 27.0219 38.1005 26.7457C43.787 25.6275 48.124 21.8783 49.5292 16.8662C50.8401 12.1907 49.3712 7.29704 45.649 3.93964C44.6295 3.02002 44.413 2.85533 43.4288 2.2507C40.7524 0.606365 37.3388 -0.203268 34.1239 0.0436345ZM37.4262 2.08937C44.2062 3.10064 48.8604 9.09231 47.7512 15.3817C46.8262 20.627 42.0536 24.6702 36.3638 25.0284C32.8357 25.2507 29.694 24.3176 27.1303 22.2861C24.037 19.8351 22.489 16.3425 22.8021 12.5213C23.2254 7.35764 27.5104 3.02629 33.1168 2.09526C34.1971 1.91579 36.2438 1.91308 37.4262 2.08937ZM34.7961 5.5359C34.4022 5.7366 34.284 6.0441 34.28 6.87702L34.2765 7.64719L33.6917 7.92112C32.9824 8.25341 32.3623 8.83054 31.9733 9.52037C31.7083 9.99033 31.6833 10.1196 31.6833 11.0167C31.6833 11.9187 31.7078 12.0432 31.9833 12.5438C32.3637 13.2349 33.277 14.0261 33.9388 14.2378C34.2084 14.324 34.7814 14.4529 35.2121 14.5242C36.157 14.6805 36.4388 14.8368 36.7121 15.3561C37.599 17.041 35.5329 18.49 34.0039 17.2555C33.7057 17.0147 33.5438 16.9555 33.1834 16.9555C32.8047 16.9555 32.6879 17.0034 32.4376 17.2609C31.976 17.736 32.025 18.1094 32.6172 18.6313C32.8793 18.8622 33.3555 19.1655 33.6755 19.3053L34.2575 19.5595L34.2924 20.3777C34.3226 21.0854 34.3599 21.2279 34.5689 21.4324C34.889 21.7456 35.287 21.816 35.7441 21.6404C36.2308 21.4533 36.412 21.0487 36.412 20.1492V19.4558L36.9586 19.2099C37.6416 18.9026 38.3772 18.1888 38.7308 17.4903C38.9635 17.0306 39.0017 16.8307 39.0033 16.067C39.005 15.261 38.9752 15.1204 38.6824 14.5518C38.309 13.8271 37.6047 13.1341 36.9913 12.8882C36.7565 12.7941 36.1985 12.665 35.751 12.6014C34.7601 12.4607 34.2594 12.2429 33.9947 11.838C33.5393 11.1412 33.6343 10.4851 34.2759 9.89493C35.0146 9.21558 35.8256 9.17639 36.6673 9.77934C37.0624 10.0625 37.2393 10.1283 37.6055 10.1283C38.1976 10.1283 38.5476 9.79037 38.5476 9.21857C38.5476 8.886 38.487 8.78023 38.1022 8.4412C37.8574 8.22544 37.3998 7.93309 37.0853 7.79159L36.5137 7.5344V6.88778C36.5137 6.16933 36.3317 5.65953 36.0205 5.50634C35.7415 5.36905 35.0927 5.38467 34.7961 5.5359ZM1.27612 23.1622C0.76348 23.3763 0.252472 23.9049 0.113661 24.3647C-0.0446752 24.8892 -0.0344042 43.9878 0.124644 44.5684C0.285319 45.1554 0.918257 45.7375 1.55658 45.8853C2.2299 46.0413 9.6421 46.0368 10.2107 45.8802C10.4389 45.8173 10.817 45.5963 11.0508 45.3892C11.506 44.9859 11.6991 44.5359 11.7 43.8755L11.7006 43.4865L12.3362 43.6647C13.9732 44.1236 13.9836 44.1241 23.6731 44.1241C31.4361 44.1241 32.9349 44.1024 33.8567 43.9766C35.8391 43.7062 36.6195 43.4019 42.5644 40.5819C47.381 38.2971 48.1255 37.915 48.6225 37.4732C49.3838 36.7966 49.7506 36.0908 49.8141 35.1806C49.91 33.8069 49.326 32.6727 48.1478 31.9444C47.0326 31.255 45.5489 31.1049 44.2701 31.5523C39.1924 33.3287 33.9986 34.9588 33.4163 34.9588C33.386 34.9588 33.3612 34.714 33.3612 34.4148C33.3612 32.1488 31.8562 30.2592 29.5986 29.6908C29.1638 29.5813 28.1448 29.5383 25.0224 29.498C22.2931 29.4627 20.6632 29.4013 19.9377 29.3066C18.356 29.1001 18.1429 29.0272 17.2783 28.398C16.3548 27.7257 13.8392 26.7714 12.3708 26.5363L11.7006 26.429V25.5003C11.7006 24.1765 11.3674 23.5644 10.4294 23.1651C10.0544 23.0053 9.69732 22.9919 5.85322 22.9919C2.03739 22.9919 1.64923 23.0063 1.27612 23.1622ZM9.56502 34.4444V44.0305H5.85322H2.14142V34.4444V24.8582H5.85322H9.56502V34.4444ZM13.7402 28.922C14.5896 29.1949 15.6053 29.693 16.3276 30.1908C16.963 30.6285 17.3008 30.7862 18.0069 30.9743C19.3606 31.3348 20.5185 31.4212 24.8698 31.4861L29.1409 31.5499L29.6494 31.7966C30.2867 32.1059 30.8481 32.636 31.1161 33.1818C31.2749 33.505 31.3234 33.8017 31.3251 34.4604L31.3274 35.318L31.0477 35.3712C30.4671 35.4818 27.5553 35.7127 26.0393 35.7685C24.0081 35.8432 23.7004 35.9766 23.7004 36.7825C23.7004 37.6162 24.1491 37.8051 25.9309 37.7211C29.4643 37.5544 32.8165 37.2025 34.7862 36.7915C35.8368 36.5723 44.072 33.8436 44.9034 33.4392C45.4426 33.177 46.3829 33.1612 46.9175 33.4054C47.5336 33.6868 47.8381 34.1304 47.8794 34.8063C47.9195 35.4629 47.7444 35.8083 47.1747 36.1975C46.5597 36.6176 36.7867 41.1991 35.8807 41.4921C33.9107 42.1292 34.2191 42.1133 23.8021 42.1133C14.979 42.1133 14.345 42.1025 13.5819 41.9388C13.1344 41.8428 12.5281 41.682 12.2345 41.5814L11.7006 41.3984V34.9167V28.4349L12.3552 28.5612C12.7152 28.6306 13.3384 28.7929 13.7402 28.922Z" fill="#16245A"/>
</svg>
