<svg width="46" height="42" viewBox="0 0 46 42" fill="none" xmlns="http://www.w3.org/2000/svg">
<path fill-rule="evenodd" clip-rule="evenodd" d="M4.42597 0.202602C4.26534 0.313855 4.12609 0.417044 4.11647 0.431844C4.10677 0.446746 4.0765 1.35453 4.04909 2.44919L3.99923 4.43949L2.22718 4.49052C0.53292 4.53931 0.446136 4.55176 0.250738 4.77406L0.0463565 5.00647L0.0231782 23.169L0 41.3315L0.262866 41.6657L0.525733 42H23H45.4743L45.7371 41.6657L46 41.3315L45.9768 23.169L45.9536 5.00647L45.7493 4.77406C45.5539 4.55176 45.4671 4.53931 43.7728 4.49052L42.0008 4.43949L41.9558 2.49002C41.9077 0.40204 41.8904 0.32447 41.4196 0.102985C41.1893 -0.00540956 40.1024 0.238631 32.074 2.20147L22.989 4.42275L20.1871 3.73513C10.8604 1.44628 4.90831 -0.00040818 4.81964 8.6389e-08C4.76376 0.00020422 4.5866 0.0913494 4.42597 0.202602ZM14.2408 4.37243L22.0567 6.29108L22.0794 22.9972C22.0919 32.2071 22.0677 39.7035 22.0253 39.7035C21.983 39.7035 20.0727 39.2438 17.7801 38.682C15.4876 38.1201 12.298 37.3384 10.6922 36.9448C9.08632 36.5513 7.34795 36.1258 6.82914 35.9992L5.88584 35.7692L5.86311 19.0468L5.84038 2.32426L6.13262 2.38907C6.29334 2.42469 9.94203 3.31727 14.2408 4.37243ZM40.1797 9.48434C40.2036 16.5109 40.2069 16.6259 40.3892 16.9033C40.7361 17.4312 41.3197 17.4705 41.739 16.9942L41.9558 16.7478V11.6398V6.53185H43.0788H44.2018V23.2708V40.0097L37.8907 40.0016C34.4196 39.9972 31.62 39.9754 31.6694 39.9533C31.7188 39.9311 33.8412 39.405 36.3859 38.7842C38.9305 38.1633 41.1433 37.6077 41.3031 37.5493C41.4629 37.491 41.6752 37.3256 41.7747 37.1817C41.9516 36.9264 41.9558 36.7809 41.9558 31.0062V25.0923L41.6932 24.7939C41.3347 24.3867 40.8984 24.3865 40.4974 24.7933L40.204 25.0911L40.1591 30.4322L40.1142 35.7732L32.1186 37.7346C27.721 38.8134 24.0723 39.6977 24.0104 39.6997C23.9206 39.7028 23.9024 36.3304 23.9206 22.9953L23.9433 6.2871L25.5155 5.90221C26.3802 5.69052 29.9782 4.80754 33.5111 3.94008C37.0439 3.07272 39.9843 2.35937 40.045 2.35508C40.1312 2.34886 40.1609 3.91374 40.1797 9.48434ZM4.04415 21.717C4.04415 38.1517 4.01594 37.1678 4.49541 37.4594C4.59037 37.517 6.82186 38.092 9.45439 38.7369C12.0869 39.3819 14.2812 39.9285 14.3306 39.9515C14.38 39.9747 11.5804 39.9972 8.10933 40.0016L1.7982 40.0097V23.2708V6.53185H2.92118H4.04415V21.717ZM8.74511 8.44918C8.63776 8.46796 8.44568 8.60166 8.31838 8.74629L8.08687 9.00932L8.08974 11.9808C8.09262 15.0247 8.09738 15.0691 8.45161 15.3826C8.52878 15.4507 10.9418 16.0822 13.8141 16.7858C19.3612 18.1446 19.2681 18.1309 19.6674 17.6442C19.8496 17.4219 19.8557 17.3188 19.8557 14.4419V11.4692L19.6086 11.2059C19.4452 11.0318 19.1486 10.8888 18.7327 10.7836C17.2365 10.4056 9.62634 8.55308 9.29968 8.48735C9.10204 8.44764 8.85247 8.4305 8.74511 8.44918ZM36.9698 8.44622C36.871 8.46734 34.5262 9.03524 31.7592 9.70807C26.9103 10.8872 26.7194 10.9425 26.4812 11.234C26.1489 11.6407 26.1403 12.2151 26.4609 12.5795C26.8608 13.0337 26.6772 13.0615 32.0287 11.7395C33.4122 11.3978 35.2113 10.9555 36.0265 10.7568C37.7548 10.3354 38.0045 10.1698 38.001 9.44718C37.9998 9.21355 37.9311 8.93226 37.8434 8.80294C37.6753 8.55482 37.2583 8.38457 36.9698 8.44622ZM14.1471 11.7522L18.0583 12.7069L18.0586 14.2243C18.0589 15.6187 18.0461 15.738 17.9017 15.6961C17.8152 15.6711 15.9758 15.2179 13.8141 14.6891L9.88381 13.7276L9.88372 12.2101C9.88363 10.7533 9.89064 10.6948 10.0597 10.7451C10.1566 10.7738 11.9959 11.227 14.1471 11.7522ZM31.8491 14.7921C29.1809 15.452 26.9079 16.0248 26.798 16.065C26.2724 16.2576 26.0505 17.1906 26.4225 17.6442C26.801 18.1057 26.8904 18.1003 29.538 17.4572C35.9674 15.8951 37.5034 15.5021 37.6357 15.3849C37.9159 15.1367 37.9973 14.9464 38.0001 14.5324C38.0042 13.9226 37.6765 13.5713 37.1148 13.5834C36.8868 13.5883 34.5173 14.1322 31.8491 14.7921ZM8.32826 18.9641C8.14913 19.1766 8.08687 19.3548 8.08687 19.6558C8.08687 20.1591 8.26942 20.4676 8.64863 20.6052C9.41495 20.8833 19.027 23.1691 19.2121 23.1172C19.3275 23.0848 19.5195 22.9474 19.6388 22.812C20.0135 22.3863 19.8895 21.5232 19.412 21.2328C19.3212 21.1776 17.8375 20.7883 16.115 20.3677C14.3924 19.9471 12.1367 19.3948 11.1022 19.1403C8.85669 18.5881 8.65608 18.5753 8.32826 18.9641ZM33.1068 19.5938C31.1304 20.0857 28.8866 20.6406 28.1208 20.8271C26.9432 21.1138 26.6902 21.2092 26.4812 21.4451L26.2342 21.7241V27.2482V32.7723L26.451 33.0187C26.5703 33.1541 26.7697 33.294 26.894 33.3294C27.1163 33.3928 36.9566 31.051 37.49 30.8078C38.02 30.5662 38.003 30.7667 38.003 24.7371V19.2063L37.7265 18.942C37.5191 18.7437 37.3567 18.6805 37.0752 18.6887C36.869 18.6947 35.0832 19.102 33.1068 19.5938ZM40.6532 20.0242C40.0334 20.4224 40.09 21.4874 40.7475 21.7995C41.3697 22.0949 41.9558 21.643 41.9558 20.8679C41.9558 20.1459 41.2129 19.6647 40.6532 20.0242ZM36.2062 25.0059C36.2062 27.2514 36.1883 29.0886 36.1665 29.0886C36.1448 29.0886 34.3518 29.5249 32.1822 30.0582C30.0126 30.5915 28.1906 31.0278 28.1332 31.0278C28.0554 31.0278 28.0348 30.0007 28.0524 26.9804L28.0759 22.9329L32.0737 21.9391C34.2724 21.3925 36.1017 20.9404 36.1388 20.9343C36.1759 20.9282 36.2062 22.7604 36.2062 25.0059ZM8.34947 24.0795C7.86165 24.6337 8.07825 25.5938 8.73047 25.7681C11.2443 26.4404 19.047 28.2686 19.2071 28.2229C19.8075 28.0517 20.061 27.1673 19.6711 26.6042C19.4611 26.3007 19.366 26.2671 17.3402 25.7804C16.5249 25.5845 14.3521 25.0546 12.5116 24.6027C10.6712 24.1508 9.04086 23.7811 8.88868 23.7811C8.70271 23.7811 8.526 23.8789 8.34947 24.0795ZM8.34947 29.1828C7.89524 29.6988 8.0265 30.549 8.59985 30.8057C9.14561 31.05 18.9784 33.3915 19.197 33.3291C19.823 33.1506 20.073 32.2449 19.6504 31.6866C19.4222 31.3853 19.9079 31.5206 12.9014 29.8059C10.8307 29.2991 9.01849 28.8844 8.87421 28.8844C8.70424 28.8844 8.51971 28.9894 8.34947 29.1828Z" fill="#16245A"/>
</svg>
