<svg width="51" height="45" viewBox="0 0 51 45" fill="none" xmlns="http://www.w3.org/2000/svg">
<path fill-rule="evenodd" clip-rule="evenodd" d="M9.73931 0.10238C8.72742 0.470873 8.1728 1.29476 8.17111 2.43155L8.17011 3.08992H6.04869C3.80221 3.08992 3.20514 3.17098 2.36723 3.58931C1.79298 3.87607 0.880739 4.75087 0.566361 5.31629C-0.0266215 6.38285 -0.000813632 5.69044 0.000481743 20.4963C0.00177712 35.0731 -0.0184507 34.4735 0.50777 35.5446C0.836497 36.2138 1.7595 37.0796 2.51012 37.4229C2.85549 37.5808 3.45196 37.7543 3.83559 37.8083C4.84518 37.9506 24.3799 37.9453 24.7979 37.8027C25.2991 37.6316 25.4682 37.101 25.152 36.6913C25.0035 36.4989 24.8552 36.4955 14.4163 36.4474L3.8312 36.3987L3.1605 36.0754C2.68699 35.8472 2.38706 35.6205 2.14064 35.3046C1.46047 34.4327 1.49395 35.1008 1.49395 22.3844V10.8928H4.1689C6.72298 10.8928 6.85202 10.884 7.0254 10.6965C7.27411 10.4275 7.25667 9.95542 6.98843 9.69256C6.77599 9.48462 6.69558 9.47779 4.12266 9.4496L1.47542 9.42063L1.51208 8.03532C1.54566 6.76432 1.57038 6.60982 1.81132 6.16233C2.1238 5.58218 2.57509 5.14599 3.1879 4.83173C3.61448 4.61296 3.7469 4.60028 5.9032 4.57072L8.17011 4.5398V5.21164C8.17011 7.19465 10.1192 8.2854 11.7767 7.23015C12.3663 6.85474 12.6803 6.22836 12.734 5.32029L12.7794 4.55297H13.7131H14.647V5.21827C14.647 7.19455 16.599 8.28345 18.2536 7.23015C18.8432 6.85474 19.1572 6.22836 19.2109 5.32029L19.2562 4.55297H20.19H21.1239V5.21827C21.1239 7.19455 23.0759 8.28345 24.7305 7.23015C25.3201 6.85474 25.6341 6.22836 25.6878 5.32029L25.7331 4.55297H26.6669H27.6007V5.21827C27.6007 7.19455 29.5528 8.28345 31.2074 7.23015C31.7969 6.85474 32.1109 6.22836 32.1646 5.32029L32.21 4.55297H33.1437H34.0776V5.21827C34.0776 7.20645 36.0645 8.30023 37.696 7.21016C38.2989 6.80733 38.5878 6.22816 38.6418 5.31376L38.6876 4.54L40.9413 4.57092C43.057 4.59989 43.2209 4.6152 43.6157 4.82178C44.276 5.16706 44.7083 5.59281 45.0082 6.19256C45.2614 6.69917 45.2879 6.85922 45.3223 8.08711L45.36 9.42824L27.3541 9.4534L9.3482 9.47857L9.15778 9.70885C8.93249 9.98117 8.91126 10.3904 9.10866 10.6548C9.24756 10.8407 9.57719 10.845 27.2688 10.8928L45.2876 10.9416L45.3374 15.8672C45.3648 18.5763 45.4252 20.8504 45.4716 20.9208C45.738 21.3245 46.5067 21.2387 46.7195 20.7816C46.8765 20.4443 46.8779 7.31189 46.721 6.58163C46.4695 5.4112 45.5663 4.18243 44.5657 3.6493C43.6766 3.17566 43.0986 3.08992 40.7954 3.08992H38.6868L38.6415 2.3226C38.5655 1.03698 37.9472 0.290528 36.7607 0.0520512C36.0817 -0.0844024 35.5489 0.0433705 34.9624 0.483455C34.3661 0.931051 34.1366 1.41932 34.0927 2.33402L34.0565 3.08992H33.1333H32.21L32.1646 2.3226C32.0886 1.03698 31.4703 0.290528 30.2838 0.0520512C28.8223 -0.241729 27.604 0.838976 27.6017 2.43155L27.6007 3.08992H26.6669H25.7331L25.6878 2.3226C25.6117 1.03698 24.9934 0.290528 23.807 0.0520512C22.3454 -0.241729 21.1271 0.838976 21.1249 2.43155L21.1239 3.08992H20.19H19.2562L19.2109 2.3226C19.1349 1.03698 18.5166 0.290528 17.3301 0.0520512C15.8685 -0.241729 14.6503 0.838976 14.648 2.43155L14.647 3.08992H13.7004H12.7537L12.7494 2.48032C12.7443 1.77738 12.586 1.27731 12.22 0.807569C11.72 0.165876 10.5096 -0.178232 9.73931 0.10238ZM10.9678 1.7169L11.2591 2.002V3.82145V5.64089L10.9678 5.92599C10.6518 6.23528 10.468 6.27303 10.1315 6.09766C9.69297 5.86903 9.67115 5.76077 9.67115 3.82145C9.67115 1.89822 9.69307 1.78547 10.1132 1.54963C10.4342 1.36938 10.6574 1.41308 10.9678 1.7169ZM17.4447 1.7169L17.736 2.002V3.82145V5.64089L17.4447 5.92599C17.1287 6.23528 16.9449 6.27303 16.6084 6.09766C16.1698 5.86903 16.148 5.76077 16.148 3.82145C16.148 1.89822 16.1699 1.78547 16.59 1.54963C16.9111 1.36938 17.1343 1.41308 17.4447 1.7169ZM23.9216 1.7169L24.2128 2.002V3.82145V5.64089L23.9216 5.92599C23.6056 6.23528 23.4218 6.27303 23.0853 6.09766C22.6467 5.86903 22.6249 5.76077 22.6249 3.82145C22.6249 1.89822 22.6468 1.78547 23.0669 1.54963C23.388 1.36938 23.6112 1.41308 23.9216 1.7169ZM30.3984 1.7169L30.6897 2.002V3.82145V5.64089L30.3984 5.92599C30.0825 6.23528 29.8986 6.27303 29.5621 6.09766C29.1241 5.86923 29.1019 5.75999 29.0986 3.81569C29.0953 1.87959 29.1161 1.77338 29.5438 1.54446C29.8689 1.37036 30.0899 1.41503 30.3984 1.7169ZM36.8753 1.7169L37.1666 2.002V3.82145V5.64089L36.8753 5.92599C36.5593 6.23528 36.3755 6.27303 36.039 6.09766C35.601 5.86923 35.5787 5.75999 35.5755 3.81569C35.5722 1.87959 35.593 1.77338 36.0207 1.54446C36.3458 1.37036 36.5668 1.41503 36.8753 1.7169ZM5.67901 13.5935C5.30195 13.7402 4.94273 14.077 4.77274 14.4433C4.61909 14.7746 4.58691 15.0902 4.58511 16.2856C4.58322 17.5316 4.60972 17.7795 4.77942 18.1052C5.21078 18.9329 5.76629 19.1182 7.66651 19.0683C9.18827 19.0283 9.46469 18.9392 9.93361 18.3381C10.2092 17.9847 10.2132 17.9598 10.2443 16.396C10.2799 14.6085 10.1828 14.2499 9.54251 13.8028C9.23481 13.588 9.12082 13.574 7.52242 13.5553C6.59075 13.5444 5.76121 13.5615 5.67901 13.5935ZM13.4692 13.6904C13.2871 13.7782 13.0181 14.004 12.8713 14.1922C12.6132 14.523 12.6032 14.5839 12.5719 16.0001C12.5337 17.7267 12.5745 18.003 12.9279 18.4142C13.3954 18.958 13.8323 19.0814 15.2947 19.0832C16.735 19.085 17.1916 18.9983 17.626 18.6405C18.1447 18.2133 18.2532 17.7458 18.2167 16.0948C18.1858 14.7011 18.172 14.6145 17.9192 14.2412C17.4901 13.6072 17.2008 13.526 15.3793 13.5286C14.1217 13.5303 13.7326 13.5633 13.4692 13.6904ZM21.3154 13.7481C21.1304 13.8701 20.8771 14.118 20.7526 14.299C20.5397 14.6081 20.526 14.7254 20.526 16.2279C20.526 17.9589 20.5676 18.1349 21.0901 18.6136C21.5328 19.0193 22.0213 19.1094 23.5707 19.0713C24.8126 19.0408 24.9993 19.0133 25.3288 18.8128C26.0244 18.3894 26.1512 18.0502 26.1908 16.5067C26.2297 14.99 26.1377 14.5118 25.7232 14.0785C25.2342 13.5671 25.0543 13.5263 23.2859 13.5263C21.7509 13.5263 21.6311 13.5398 21.3154 13.7481ZM29.3356 13.7108C28.5533 14.1778 28.3656 14.7461 28.4157 16.4966C28.4582 17.9811 28.596 18.368 29.2282 18.7776C29.6217 19.0326 29.6584 19.0371 31.2876 19.0371C32.8904 19.0371 32.9585 19.029 33.3074 18.795C33.9311 18.3766 34.117 17.9244 34.1611 16.7178C34.2287 14.8668 34.047 14.2486 33.2882 13.7481C32.972 13.5395 32.8538 13.5263 31.2977 13.5267C29.8533 13.527 29.6044 13.5503 29.3356 13.7108ZM37.2633 13.7305C37.07 13.8403 36.801 14.0883 36.6655 14.2817C36.4347 14.611 36.4171 14.7264 36.3856 16.119C36.3452 17.8981 36.4659 18.3021 37.1751 18.7618C37.5838 19.0267 37.6544 19.0384 39.0378 19.0709C40.1987 19.0981 40.5591 19.0734 40.909 18.9426C41.3745 18.7686 41.9102 18.249 42.0049 17.8795C42.037 17.7544 42.0488 16.9463 42.0313 16.0836C41.9959 14.3468 41.9505 14.2105 41.253 13.7458C40.9437 13.5397 40.8228 13.5264 39.2693 13.5286C37.7857 13.5306 37.5787 13.5514 37.2633 13.7305ZM8.76798 16.2469C8.76798 17.3036 8.74277 17.5139 8.61034 17.5637C8.40527 17.6407 6.44029 17.6407 6.23522 17.5637C6.10339 17.5141 6.07758 17.3094 6.07758 16.312C6.07758 15.656 6.10748 15.0901 6.14404 15.0544C6.18051 15.0186 6.78585 14.9894 7.48924 14.9894H8.76798V16.2469ZM16.7176 16.2791C16.7506 17.7496 16.8699 17.6458 15.195 17.6025L14.0989 17.5741L14.0711 16.2789L14.0433 14.9837L15.3665 15.0109L16.6897 15.0382L16.7176 16.2791ZM24.6894 16.1947C24.7085 16.9773 24.6796 17.3962 24.6 17.49C24.5078 17.5988 24.223 17.6228 23.2765 17.6014L22.0705 17.5741L22.0427 16.2789L22.0149 14.9837L23.338 15.0109L24.6612 15.0382L24.6894 16.1947ZM32.6221 15.1437C32.7235 15.4024 32.6895 17.233 32.5794 17.4342C32.4864 17.6043 32.361 17.6229 31.304 17.6229C30.5251 17.6229 30.0915 17.5836 30.0121 17.5058C29.8866 17.3829 29.8379 15.4373 29.953 15.1437C30.0038 15.0142 30.2177 14.9894 31.2876 14.9894C32.3574 14.9894 32.5713 15.0142 32.6221 15.1437ZM40.5325 16.2817L40.5047 17.5741L39.3231 17.6017C38.5371 17.62 38.0951 17.5916 38.0028 17.5166C37.8988 17.4321 37.8641 17.1185 37.8641 16.2617C37.8641 15.6334 37.894 15.0901 37.9305 15.0544C37.967 15.0186 38.5737 14.9894 39.2786 14.9894H40.5603L40.5325 16.2817ZM37.0306 20.7503C33.4845 21.2316 30.2379 23.1882 28.3142 26.0034C27.9766 26.4974 27.7004 26.9625 27.7004 27.0369C27.7004 27.3014 27.9252 27.6492 28.1655 27.7563C28.6153 27.957 28.8662 27.7938 29.4997 26.8884C30.5895 25.331 32.3063 23.903 34.0218 23.1271C38.6517 21.0332 44.1698 22.3784 47.2531 26.3524C50.8545 30.9942 50.043 37.5265 45.4112 41.1792C44.4316 41.9518 42.5633 42.8823 41.4015 43.1765C38.3566 43.9472 35.2534 43.4508 32.567 41.7635C31.503 41.0952 29.8688 39.4303 29.2205 38.3542C28.166 36.6035 27.6986 34.9532 27.6859 32.9361C27.6811 32.1757 27.7411 31.3894 27.8453 30.8465C27.9371 30.3678 27.9854 29.8712 27.9525 29.7431C27.8272 29.2546 26.8561 29.1592 26.609 29.6112C26.3952 30.0022 26.1815 31.5819 26.1789 32.7898C26.1716 36.1138 27.4221 39.0958 29.7986 41.4221C33.1646 44.7169 38.2032 45.8596 42.6285 44.3318C44.9811 43.5196 47.0018 42.0823 48.4849 40.1663C49.2431 39.1866 50.223 37.3011 50.5188 36.2523C51.161 33.9752 51.1604 31.687 50.517 29.4248C50.2442 28.4656 49.3805 26.7285 48.733 25.8369C46.8813 23.287 44.0195 21.4719 40.9345 20.8903C39.9089 20.6971 37.9426 20.6265 37.0306 20.7503ZM5.49456 21.1012C5.31092 21.1916 5.04188 21.4411 4.8967 21.6556C4.6436 22.0296 4.63145 22.1088 4.60105 23.5804C4.57285 24.9498 4.59049 25.1555 4.76487 25.4899C5.19842 26.3215 5.652 26.4893 7.4726 26.4923C8.93139 26.4946 9.38348 26.3816 9.83247 25.902C10.1985 25.5111 10.2626 25.1767 10.2626 23.6599C10.2626 22.0136 10.1531 21.6419 9.54251 21.2155C9.23571 21.0013 9.11593 20.9864 7.52242 20.9624C6.09681 20.941 5.77556 20.963 5.49456 21.1012ZM13.4692 21.1032C13.2871 21.191 13.0181 21.4167 12.8713 21.605C12.6132 21.9357 12.6032 21.9967 12.5719 23.4128C12.5337 25.1395 12.5745 25.4157 12.9279 25.827C13.401 26.3773 13.8275 26.4947 15.3445 26.4923C17.1786 26.4893 17.6548 26.3101 18.0467 25.4746C18.1974 25.1535 18.2302 24.8325 18.232 23.6611C18.234 22.3574 18.2147 22.2016 18.0025 21.8079C17.8581 21.5399 17.6236 21.296 17.3797 21.1601C17.0198 20.9597 16.8617 20.9423 15.3943 20.9429C14.1204 20.9434 13.7335 20.9756 13.4692 21.1032ZM21.3154 21.1609C21.1304 21.2828 20.8771 21.5308 20.7526 21.7118C20.5397 22.0209 20.526 22.1381 20.526 23.6407C20.526 25.3717 20.5676 25.5477 21.0901 26.0264C21.5328 26.4321 22.0213 26.5222 23.5707 26.4841C25.1476 26.4453 25.4942 26.3212 25.9267 25.6404C26.1316 25.3178 26.1596 25.135 26.1908 23.9194C26.2297 22.4027 26.1377 21.9246 25.7232 21.4913C25.2342 20.9799 25.0543 20.9391 23.2859 20.9391C21.7509 20.9391 21.6311 20.9526 21.3154 21.1609ZM8.71815 23.7189V24.9869L7.62207 25.0153C5.9603 25.0583 6.07758 25.1556 6.07758 23.7333C6.07758 23.0727 6.10877 22.5017 6.14683 22.4644C6.1849 22.4271 6.77908 22.4088 7.46712 22.4238L8.71815 22.4509V23.7189ZM16.7176 23.6919C16.7506 25.1623 16.8699 25.0586 15.195 25.0153L14.0989 24.9869L14.0711 23.6917L14.0433 22.3965L15.3665 22.4237L16.6897 22.4509L16.7176 23.6919ZM24.6894 23.6075C24.7085 24.3901 24.6796 24.809 24.6 24.9028C24.5078 25.0116 24.223 25.0355 23.2765 25.0142L22.0705 24.9869L22.0427 23.6917L22.0149 22.3965L23.338 22.4237L24.6612 22.4509L24.6894 23.6075ZM38.294 23.7692C37.9762 23.8933 37.8641 24.169 37.8641 24.8271C37.8641 25.3424 37.8952 25.4355 38.1266 25.6137C38.7607 26.1019 39.3587 25.6606 39.3587 24.7045C39.3587 24.0269 38.8282 23.5608 38.294 23.7692ZM31.9851 26.4012C31.6454 26.7337 31.7246 27.1473 32.221 27.6332C32.7175 28.1192 33.14 28.1967 33.4797 27.8642C33.8233 27.5279 33.743 27.0885 33.2518 26.6165C32.7614 26.1455 32.3226 26.0708 31.9851 26.4012ZM43.8794 26.6321C43.3696 27.1312 43.3061 27.5082 43.6747 27.8472C44.0508 28.1929 44.4323 28.1255 44.9346 27.6245C45.4219 27.1385 45.5042 26.7432 45.1891 26.4024C44.8676 26.0547 44.3825 26.1398 43.8794 26.6321ZM5.43737 28.5696C5.19623 28.7059 4.95748 28.9555 4.81459 29.2206C4.60215 29.6148 4.58292 29.7711 4.58292 31.1021C4.58292 32.3341 4.61142 32.6085 4.77165 32.9156C5.2036 33.7441 5.65549 33.9122 7.4445 33.9093C8.93249 33.907 9.38288 33.7949 9.83247 33.3147C10.1985 32.9239 10.2626 32.5895 10.2626 31.0727C10.2626 29.4263 10.1531 29.0546 9.54251 28.6283C9.23581 28.4142 9.11524 28.3991 7.52242 28.3745C5.91725 28.3496 5.80795 28.3599 5.43737 28.5696ZM13.4692 28.5159C13.2871 28.6037 13.0181 28.8295 12.8713 29.0178C12.6132 29.3485 12.6032 29.4095 12.5719 30.8256C12.5337 32.5523 12.5745 32.8285 12.9279 33.2397C13.4016 33.7908 13.8257 33.9069 15.3726 33.9093C17.1821 33.9122 17.6499 33.7334 18.0467 32.8873C18.1971 32.5669 18.2302 32.2457 18.232 31.0893C18.2346 29.4052 18.0979 28.9983 17.3938 28.5944C16.9909 28.3633 16.8967 28.352 15.3855 28.3541C14.1222 28.3559 13.7327 28.3888 13.4692 28.5159ZM34.9211 28.4456C34.6181 28.5645 34.443 28.816 34.443 29.1325C34.443 29.3392 34.6009 29.5885 35.0325 30.0627C35.3567 30.4191 35.7724 30.8831 35.9559 31.0938L36.2897 31.4772L36.1303 31.8672C36.0426 32.0818 35.9708 32.5331 35.9708 32.8702C35.9708 34.2946 37.0973 35.394 38.5568 35.394C40.2628 35.394 41.5779 33.8004 41.1514 32.25C41.0408 31.8481 41.048 31.8105 41.2673 31.6418C41.3959 31.5428 41.7589 31.2424 42.074 30.9741C42.5595 30.5607 42.647 30.4361 42.647 30.1577C42.647 29.7842 42.2787 29.4248 41.8962 29.4248C41.7672 29.4248 41.3288 29.6949 40.8734 30.0547L40.0764 30.6846L39.6468 30.4814C39.1667 30.2543 38.2079 30.209 37.7324 30.3907C37.4656 30.4926 37.4248 30.4695 36.9353 29.9371C35.5611 28.4429 35.3419 28.2806 34.9211 28.4456ZM8.71815 31.1317V32.3997H7.42278H6.1274L6.09921 31.2349C6.08366 30.5943 6.09392 30.0114 6.12212 29.9396C6.16198 29.838 6.45513 29.8151 7.4457 29.8364L8.71815 29.8637V31.1317ZM16.7176 31.1047C16.7506 32.5751 16.8699 32.4713 15.195 32.428L14.0989 32.3997L14.0711 31.1045L14.0433 29.8093L15.3665 29.8365L16.6897 29.8637L16.7176 31.1047ZM39.3687 32.0184C39.6657 32.2815 39.7912 32.784 39.6582 33.1784C39.4958 33.6601 39.1289 33.9115 38.588 33.9115C38.2148 33.9115 38.0884 33.8579 37.8043 33.5798C37.3309 33.1165 37.337 32.6101 37.8236 31.9762C37.8377 31.9578 38.0173 31.8862 38.2227 31.8171C38.6376 31.6775 39.0696 31.7533 39.3687 32.0184ZM29.8427 32.1284C29.5033 32.2094 29.2947 32.4628 29.2947 32.7941C29.2947 33.2495 29.561 33.5113 30.0947 33.5807C30.9744 33.6952 31.5178 33.2637 31.3447 32.5883C31.2422 32.1889 30.5185 31.9673 29.8427 32.1284ZM46.2698 32.1497C46.0127 32.2576 45.736 32.6232 45.736 32.8549C45.736 32.9472 45.8436 33.1452 45.975 33.2948C46.1889 33.5381 46.2793 33.5669 46.8321 33.5669C47.3848 33.5669 47.4753 33.5381 47.6891 33.2948C47.9886 32.9539 47.9909 32.7258 47.6981 32.3925C47.5184 32.1881 47.3602 32.123 46.9756 32.0954C46.7049 32.0759 46.3872 32.1004 46.2698 32.1497ZM32.221 38.0439C31.7246 38.5298 31.6454 38.9435 31.9851 39.276C32.3226 39.6063 32.7614 39.5316 33.2518 39.0606C33.743 38.5886 33.8233 38.1492 33.4797 37.8129C33.14 37.4804 32.7175 37.558 32.221 38.0439ZM43.6608 37.8436C43.3158 38.203 43.3802 38.5563 43.8794 39.045C44.3687 39.5239 44.7552 39.5991 45.1437 39.2912C45.5207 38.9922 45.4487 38.5653 44.9346 38.0527C44.4216 37.5409 44.0153 37.4743 43.6608 37.8436ZM38.0807 40.0869C37.7954 40.3842 37.7698 41.3838 38.0393 41.7094C38.3066 42.0327 38.8317 42.0106 39.1369 41.6634C39.3502 41.4207 39.3748 41.3149 39.3371 40.8045C39.3032 40.3466 39.2454 40.1838 39.0663 40.0417C38.7546 39.7948 38.3431 39.8136 38.0807 40.0869Z" fill="#12214F"/>
</svg>
