<svg width="47" height="46" viewBox="0 0 47 46" fill="none" xmlns="http://www.w3.org/2000/svg">
<path fill-rule="evenodd" clip-rule="evenodd" d="M18.1071 0.0516428C18.006 0.0736096 17.5924 0.156126 17.188 0.235075C13.7257 0.910883 10.5154 3.47396 8.97037 6.79593C7.21058 10.5794 7.48209 14.9934 9.68684 18.4445C10.734 20.0836 12.262 21.5604 13.8101 22.4293C14.025 22.5498 14.2007 22.6726 14.2007 22.7021C14.2007 22.7315 13.7234 22.9202 13.1401 23.1214C7.05386 25.2202 2.20668 30.5458 0.606634 36.892C0.105793 38.8786 0.00670974 39.8451 0.003217 42.7811L0 45.4404L0.300192 45.7147C0.716563 46.095 1.21465 46.0951 1.5869 45.7148L1.8552 45.4409L1.91393 42.8751C1.97726 40.111 2.09123 39.0824 2.52093 37.3993C3.31378 34.2935 4.84039 31.5981 7.12188 29.2757C9.93344 26.4138 13.2835 24.7257 17.2799 24.1573C18.8715 23.931 21.4514 24.0156 22.9932 24.3447C24.5061 24.6676 25.8479 25.1296 27.2662 25.8158C28.2406 26.2873 28.5054 26.3787 28.7563 26.3306C29.3796 26.2112 29.7183 25.4706 29.4193 24.8803C29.2986 24.6418 29.05 24.4742 28.16 24.0313C27.5502 23.7278 26.5595 23.3165 25.9585 23.1172C25.3575 22.9178 24.865 22.7259 24.8643 22.6906C24.8634 22.6554 24.945 22.5999 25.0454 22.5674C25.4702 22.4296 26.9036 21.3662 27.6751 20.6163C29.2419 19.0936 30.4044 17.077 30.9431 14.948C31.4624 12.8951 31.4021 10.4398 30.7829 8.4241C29.4423 4.06068 25.8329 0.85944 21.4318 0.130404C20.6663 0.00357869 18.5587 -0.046363 18.1071 0.0516428ZM21.0866 2.10545C26.9286 3.07311 30.5934 8.98482 28.9475 14.7857C28.0101 18.0892 25.3865 20.714 22.1054 21.6308C21.0183 21.9344 19.2876 22.038 18.1463 21.8676C13.9047 21.2341 10.4964 17.7531 9.87618 13.421C9.70936 12.2554 9.81074 10.4878 10.1081 9.3775C11.4282 4.44876 16.1903 1.29446 21.0866 2.10545ZM34.5731 24.1193C33.6367 24.2692 32.6596 24.5867 31.6881 25.0565C28.4711 26.6124 26.2853 29.4893 25.6339 33.0252C25.4382 34.0871 25.4403 35.9351 25.6384 37.0101C26.4773 41.5641 29.9919 45.076 34.4951 45.86C35.7514 46.0787 37.6394 45.9981 38.8608 45.6735C44.2261 44.2479 47.6976 38.9396 46.8813 33.4092C46.3238 29.6319 43.7778 26.2781 40.3864 24.8535C39.0557 24.2945 38.1015 24.099 36.5359 24.0646C35.7523 24.0473 34.869 24.0719 34.5731 24.1193ZM37.6748 26.1351C39.8365 26.5201 41.7533 27.6721 43.1068 29.3998C46.1218 33.2486 45.5192 38.917 41.7692 41.9813C40.62 42.9205 39.5026 43.4599 37.9146 43.842C37.1717 44.0208 35.0718 43.9982 34.3082 43.8034C31.572 43.1048 29.3637 41.2665 28.2175 38.7326C27.6114 37.3928 27.4841 36.7409 27.4894 35.0055C27.4949 33.2266 27.6282 32.5657 28.2587 31.1916C29.9386 27.5304 33.8165 25.4479 37.6748 26.1351ZM35.7788 29.1397C35.2916 29.4187 35.2491 29.6404 35.2491 31.9029V33.9728L33.3419 33.9734C31.2689 33.974 30.8517 34.0398 30.5656 34.4111C30.152 34.9483 30.4297 35.7519 31.0941 35.9404C31.2814 35.9936 32.2929 36.0372 33.3419 36.0375L35.2491 36.0381V38.108C35.2491 40.4 35.2905 40.6032 35.8133 40.8794C36.2046 41.086 36.6475 40.9875 36.944 40.6276L37.1793 40.342V38.1963V36.0506L39.3377 36.0208L41.496 35.9911L41.7859 35.6949C42.196 35.2759 42.196 34.735 41.7859 34.316L41.496 34.0198L39.3377 33.9901L37.1793 33.9603V31.8089V29.6576L36.9265 29.3712C36.6211 29.0251 36.1461 28.9294 35.7788 29.1397Z" fill="#16245A"/>
</svg>
