<svg width="49" height="48" viewBox="0 0 49 48" fill="none" xmlns="http://www.w3.org/2000/svg">
<path fill-rule="evenodd" clip-rule="evenodd" d="M48.9648 24C48.9648 37.254 38.2188 48 24.9648 48C11.7108 48 0.964844 37.254 0.964844 24C0.964844 10.746 11.7108 0 24.9648 0C38.2188 0 48.9648 10.746 48.9648 24ZM25.8248 17.718C23.4908 18.688 18.8248 20.698 11.8288 23.746C10.6928 24.198 10.0968 24.64 10.0428 25.072C9.95084 25.804 10.8668 26.092 12.1108 26.482C12.2808 26.536 12.4568 26.59 12.6368 26.65C13.8628 27.048 15.5108 27.514 16.3668 27.532C17.1448 27.548 18.0128 27.228 18.9708 26.572C25.5068 22.158 28.8808 19.928 29.0928 19.88C29.2428 19.846 29.4508 19.802 29.5908 19.928C29.7308 20.052 29.7168 20.288 29.7028 20.352C29.6108 20.738 26.0228 24.076 24.1628 25.804C23.5828 26.342 23.1728 26.724 23.0888 26.812C22.9008 27.006 22.7088 27.192 22.5248 27.37C21.3848 28.466 20.5328 29.29 22.5728 30.634C23.5528 31.28 24.3368 31.814 25.1188 32.346C25.9728 32.928 26.8248 33.508 27.9288 34.232C28.2088 34.416 28.4768 34.606 28.7388 34.792C29.7328 35.502 30.6268 36.138 31.7308 36.038C32.3708 35.978 33.0348 35.376 33.3708 33.578C34.1648 29.326 35.7288 20.118 36.0908 16.322C36.1129 16.0068 36.0995 15.6902 36.0508 15.378C36.0217 15.1259 35.899 14.8939 35.7068 14.728C35.4208 14.494 34.9768 14.444 34.7768 14.448C33.8748 14.464 32.4908 14.946 25.8248 17.718Z" fill="#5365A0"/>
</svg>
