<svg width="48" height="48" viewBox="0 0 48 48" fill="none" xmlns="http://www.w3.org/2000/svg">
<path d="M18.978 0.00600025L20.436 0H27.564L29.024 0.00600025L30.852 0.0260011L31.718 0.0400017L32.554 0.0620026L33.36 0.0900038L34.136 0.122005L34.884 0.164007L35.604 0.214009L36.294 0.274011L36.96 0.340014C40.44 0.73203 42.826 1.57207 44.626 3.37214C46.426 5.17221 47.266 7.55631 47.658 11.0385L47.726 11.7045L47.784 12.3965L47.834 13.1165L47.874 13.8626L47.924 15.0386L47.948 15.8587L47.974 17.1467L47.992 18.9768L48 20.9369L47.998 27.5631L47.992 29.0232L47.972 30.8513L47.958 31.7173L47.936 32.5534L47.908 33.3594L47.876 34.1354L47.834 34.8834L47.784 35.6035L47.724 36.2935L47.658 36.9595C47.266 40.4397 46.426 42.8258 44.626 44.6259C42.826 46.4259 40.442 47.266 36.96 47.658L36.294 47.726L35.602 47.784L34.882 47.834L34.136 47.874L32.96 47.924L32.14 47.948L30.852 47.974L29.022 47.992L27.062 48L20.436 47.998L18.976 47.992L17.148 47.972L16.282 47.958L15.446 47.936L14.64 47.908L13.864 47.876L13.116 47.834L12.396 47.784L11.706 47.724L11.04 47.658C7.56 47.266 5.174 46.4259 3.374 44.6259C1.574 42.8258 0.734 40.4417 0.342 36.9595L0.274 36.2935L0.216 35.6015L0.166 34.8815L0.126 34.1354L0.076 32.9594L0.052 32.1393L0.026 30.8513L0.008 29.0212L0 27.0611L0.002 20.4349L0.008 18.9748L0.028 17.1467L0.042 16.2807L0.064 15.4446L0.092 14.6386L0.124 13.8626L0.166 13.1145L0.216 12.3945L0.276 11.7045L0.342 11.0385C0.734 7.55831 1.574 5.17221 3.374 3.37214C5.174 1.57207 7.558 0.73203 11.04 0.340014L11.706 0.272011L12.398 0.214009L13.118 0.164007L13.864 0.124005L15.04 0.0740031L15.86 0.0500021L17.148 0.024001L18.978 0.00600025ZM13.58 14.5986H8.1C8.36 27.0791 14.6 34.5794 25.54 34.5794H26.16V27.4391C30.18 27.8392 33.22 30.7793 34.44 34.5794H40.12C38.56 28.8992 34.46 25.7591 31.9 24.559C34.46 23.079 38.06 19.4788 38.92 14.5986H33.76C32.64 18.5588 29.32 22.1589 26.16 22.4989V14.5986H21V28.4392C17.8 27.6391 13.76 23.759 13.58 14.5986Z" fill="#5365A0"/>
</svg>
