<svg width="72" height="48" viewBox="0 0 72 48" fill="none" xmlns="http://www.w3.org/2000/svg">
<path d="M70.4581 7.5312C70.0507 6.0778 69.257 4.76196 68.1616 3.72357C67.0351 2.65324 65.6545 1.88761 64.15 1.49895C58.5195 0.0148671 35.9615 0.0148674 35.9615 0.0148674C26.5574 -0.0921282 17.1555 0.378465 7.80901 1.42399C6.30451 1.84137 4.92648 2.62411 3.79749 3.70258C2.68818 4.76992 1.88468 6.0861 1.46494 7.5282C0.456647 12.9601 -0.0332518 18.4754 0.0018504 24C-0.0341273 29.5196 0.454569 35.0331 1.46494 40.4718C1.87569 41.9079 2.67619 43.2181 3.7885 44.2764C4.90081 45.3347 6.28595 46.0993 7.80901 46.504C13.5145 47.9851 35.9615 47.9851 35.9615 47.9851C45.3777 48.0922 54.7915 47.6217 64.15 46.576C65.6545 46.1873 67.0351 45.4217 68.1616 44.3514C69.2567 43.3132 70.0494 41.9972 70.4551 40.5437C71.4898 35.1139 71.9928 29.5963 71.9572 24.0689C72.035 18.5182 71.5326 12.9745 70.4581 7.5282V7.5312ZM28.79 34.2656V13.7374L47.5583 24.003L28.79 34.2656Z" fill="#5365A0"/>
</svg>
